<svg width="163" height="160" viewBox="0 0 163 160" fill="none" xmlns="http://www.w3.org/2000/svg">
<g id="Logo_Siegel">
<path id="Vector" d="M33.301 141.855L32.7146 141.33L31.7842 142.517L27.4759 138.598L37.5965 135.824L37.8896 135.437L32.1283 130.207L32.4087 129.848L31.8224 129.323L30.2928 131.283L30.8792 131.821L31.593 130.91L35.6463 134.582L25.5512 137.411L25.2581 137.783L31.8351 143.759L33.301 141.855Z" fill="#00376C"/>
<path id="Vector_2" d="M52.3257 144.039L48.5896 141.879L48.1802 142.653L49.5748 143.453L47.0031 148.293C46.1714 149.866 44.572 150.4 43.1774 149.6C41.8211 148.813 41.4885 147.2 42.3329 145.613L44.9175 140.746L46.3377 141.559L46.7472 140.786L42.5249 138.346L42.1154 139.119L43.5229 139.933L40.7208 145.199C39.7484 147.026 40.4905 149.186 42.4737 150.346C44.5976 151.573 46.7983 150.973 47.9115 148.88L50.5217 143.986L51.9163 144.786L52.3257 144.039Z" fill="#00376C"/>
<path id="Vector_3" d="M62.998 157.436C64.9275 157.914 66.2643 157.297 66.6552 155.737C67.0335 154.215 66.1382 153.02 64.2087 152.479C65.6968 152.844 66.9831 152.24 67.2857 151.032C67.6388 149.61 66.7687 148.428 65.041 148L60.0849 146.767L59.8957 147.522L61.4217 147.899L59.4543 155.762L57.9284 155.385L57.7393 156.14L62.998 157.436ZM61.9387 152.441L63.4016 152.806C64.7383 153.146 65.2554 153.951 64.9401 155.209C64.6501 156.366 63.8177 156.782 62.4684 156.442L61.0307 156.077L61.9387 152.441ZM62.9728 148.352L64.4104 148.717C65.4067 148.969 65.7977 149.661 65.5328 150.68C65.268 151.711 64.4609 152.215 63.4394 151.963L62.1405 151.636L62.9728 148.352Z" fill="#00376C"/>
<path id="Vector_4" d="M82.2494 158.037L81.3949 158.011L81.3536 159.133L77.4669 159.006L77.6048 155.308L80.5404 155.397L80.4991 156.455L81.3398 156.481L81.45 153.536H80.6093L80.568 154.556L77.6323 154.454L77.7701 150.922L81.519 151.049L81.4776 152.146L82.3046 152.171L82.401 149.8L81.5465 149.774L81.5327 150.195L74.3521 149.966L74.3245 150.743L76.0336 150.807L75.7304 159.018L74.0076 158.955L73.98 159.745L82.1667 160L82.2494 158.037Z" fill="#00376C"/>
<path id="Vector_5" d="M99.7262 157.062L99.1213 157.154C98.6478 157.232 98.2006 157.035 97.7403 156.55L95.2679 153.937C96.6488 153.452 97.3721 152.257 97.1354 150.813C96.8592 149.067 95.5967 148.319 93.5056 148.647L88.416 149.448L88.5475 150.314L90.1652 150.065L91.4803 158.348L89.8627 158.598L89.9942 159.398L94.8733 158.624L94.7418 157.823L93.1242 158.073L92.5587 154.502L93.6108 154.331L96.4647 157.429C97.1354 158.164 97.3195 158.217 98.2664 158.073L99.8446 157.823L99.7262 157.062ZM91.8091 149.815L93.3215 149.579C94.4394 149.408 95.1495 149.973 95.3468 151.18C95.5309 152.362 94.9917 153.268 93.9528 153.425L92.4272 153.662L91.8091 149.815Z" fill="#00376C"/>
<path id="Vector_6" d="M113.449 150.847L112.688 151.129L113.186 152.405L109.571 153.748L106.426 145.798L108.033 145.194L107.701 144.361L102.852 146.16L103.185 146.993L104.791 146.402L107.964 154.42L106.357 155.011L106.662 155.789L114.281 152.956L113.449 150.847Z" fill="#00376C"/>
<path id="Vector_7" d="M123.475 147.072L122.039 147.932L117.623 140.572L119.059 139.713L118.603 138.947L114.281 141.539L114.737 142.305L116.173 141.445L120.589 148.805L119.153 149.664L119.583 150.376L123.905 147.771L123.475 147.072Z" fill="#00376C"/>
<path id="Vector_8" d="M131.903 128.74L133.106 127.584L132.498 126.917L129.272 130.018L129.867 130.671L131.096 129.501L135.38 134.234L125.98 133.173L123.905 135.158L124.513 135.825L125.637 134.75L126.35 134.859L131.718 140.788L130.515 141.944L131.07 142.556L134.296 139.469L133.74 138.857L132.524 140.027L128.109 135.158L137.852 136.301L138.341 135.838L131.903 128.74Z" fill="#00376C"/>
<path id="Vector_9" d="M143.115 122.373C142.442 121.903 141.49 122.068 141.02 122.741C140.537 123.427 140.715 124.366 141.388 124.836C142.074 125.319 143.001 125.154 143.483 124.468C143.953 123.795 143.801 122.855 143.115 122.373Z" fill="#00376C"/>
<path id="Vector_10" d="M21.5645 124.38C20.8915 123.91 19.9392 124.075 19.4694 124.748C18.9869 125.434 19.1647 126.373 19.8376 126.843C20.5233 127.326 21.4502 127.161 21.9328 126.475C22.4026 125.802 22.2502 124.862 21.5645 124.38Z" fill="#00376C"/>
<path id="Vector_11" d="M13.3361 102.585L14.0115 104.075L6.21076 107.543L5.54856 106.04L4.80688 106.37L6.81999 110.893L7.56166 110.563L6.9127 109.073L10.3429 107.557L12.7798 113.016L9.34962 114.545L8.67417 113.042L7.9325 113.372L9.95885 117.895L10.7005 117.565L10.0251 116.062L17.8259 112.607L18.5013 114.11L19.243 113.781L17.2166 109.258L16.475 109.587L17.1372 111.091L13.5877 112.66L11.1508 107.201L14.7002 105.618L15.3624 107.108L16.1041 106.779L14.091 102.256L13.3361 102.585Z" fill="#00376C"/>
<path id="Vector_12" d="M0.596436 86.7729L1.32984 91.0733L2.2607 90.943L1.99273 89.3401L7.77535 88.4931C9.65118 88.2194 11.1885 89.1838 11.4706 90.7736C11.7386 92.3374 10.6244 93.5754 8.72032 93.849L2.90949 94.6961L2.6274 93.0671L1.69654 93.1974L2.52868 98.0451L3.45954 97.9148L3.17746 96.2859L9.46783 95.3607C11.6398 95.0479 12.9515 93.1453 12.5566 90.8518C12.1335 88.4149 10.1448 86.9945 7.63432 87.3594L1.78117 88.2194L1.5132 86.6166L0.596436 86.7729Z" fill="#00376C"/>
<path id="Vector_13" d="M11.8001 65.5248L11.5969 67.1704L2.99432 66.1269L3.21108 64.4679L2.31695 64.3609L1.88344 67.8126L8.99581 72.2677L1.01641 74.8364L0.596436 78.1543L1.49056 78.2613L1.69377 76.6024L10.2964 77.6459L10.0932 79.3048L10.9195 79.3985L11.4614 74.9702L10.6486 74.8631L10.4318 76.5221L3.42784 75.6792L11.8814 72.9634L3.92909 67.9464L11.3937 68.8427L11.1905 70.5017L12.0169 70.6087L12.6265 65.6185L11.8001 65.5248Z" fill="#00376C"/>
<path id="Vector_14" d="M15.8973 53.3427C16.6247 51.2778 16.1653 49.7045 14.6466 49.0583C13.1662 48.4262 11.8517 49.255 11.0732 51.3199C11.6219 49.7326 11.1753 48.2155 9.98837 47.7098C8.61004 47.1199 7.30829 47.9206 6.65741 49.7747L4.80688 55.0845L5.53433 55.3935L6.10864 53.7641L13.7915 57.0089L13.2172 58.6383L13.9447 58.9474L15.8973 53.3427ZM10.7413 53.8343L11.2901 52.261C11.7878 50.8283 12.6812 50.3647 13.9064 50.8844C15.0295 51.362 15.3485 52.3453 14.8508 53.7781L14.3148 55.3233L10.7413 53.8343ZM6.73399 52.1487L7.27 50.6035C7.64011 49.5359 8.39308 49.1988 9.38854 49.6202C10.3968 50.0416 10.8052 51.0249 10.4223 52.1065L9.93732 53.4972L6.73399 52.1487Z" fill="#00376C"/>
<path id="Vector_15" d="M23.7665 41.0691C25.3983 38.7185 24.7184 35.1583 22.2843 33.4538C19.9046 31.7631 16.3826 32.3404 14.7508 34.691C13.0918 37.0828 13.7446 40.6017 16.1379 42.3062C18.5856 44.0382 22.1075 43.4609 23.7665 41.0691ZM15.5123 35.2683C16.6002 33.7013 19.1295 33.5913 21.1965 35.0621C23.2906 36.5467 24.0657 38.966 22.9642 40.5467C21.8764 42.1138 19.3471 42.1963 17.2529 40.7117C15.2132 39.2546 14.4245 36.8353 15.5123 35.2683Z" fill="#00376C"/>
<path id="Vector_16" d="M33.9525 24.8128L33.385 25.3728L34.3089 26.3462L31.6559 28.9196L25.8483 22.8394L27.023 21.6927L26.4158 21.0526L22.8521 24.5328L23.4592 25.1595L24.6471 24.0128L30.5075 30.1463L29.3328 31.293L29.8872 31.8797L35.4836 26.4262L33.9525 24.8128Z" fill="#00376C"/>
<path id="Vector_17" d="M39.7543 24.0602L44.2572 21.068C46.8727 19.3356 47.6816 16.0285 46.1177 13.3656C44.5808 10.7599 41.3587 10.0441 38.7837 11.7621L34.2808 14.7543L34.7257 15.4988L36.1547 14.5538L40.7655 22.3708L39.3364 23.3157L39.7543 24.0602ZM42.1541 21.3543L37.6242 13.6519L39.1207 12.6497C40.8733 11.4901 43.2192 12.2918 44.4864 14.468C45.7672 16.6441 45.3897 19.1925 43.6236 20.3665L42.1541 21.3543Z" fill="#00376C"/>
<path id="Vector_18" d="M60.4606 12.6112L58.5582 13.1859L55.5831 5.4723L58.8586 4.46341L59.2877 5.58724L60.1173 5.33182L59.2305 3.00754L58.3866 3.26295L58.5439 3.65885L50.2765 6.20023L50.1191 5.80434L49.3181 6.04699L50.2192 8.37127L51.0202 8.12862L50.5911 7.00479L53.8667 5.9959L56.8418 13.7222L54.9394 14.2969L55.2255 15.0376L60.7467 13.3519L60.4606 12.6112Z" fill="#00376C"/>
<path id="Vector_19" d="M70.0548 4.81202L65.5588 5.56971L65.8892 7.21803L70.3709 6.47363L70.0548 4.81202Z" fill="#00376C"/>
<path id="Vector_20" d="M87.213 0.20501L83.0943 0.128129L83.082 0.98661L84.6234 1.01224L84.5371 6.32967C84.5124 8.05944 83.3779 9.26388 81.8488 9.23825C80.3567 9.21262 79.3702 7.99538 79.3949 6.2528L79.4812 0.909729L81.035 0.935356L81.0473 0.0896914L76.3983 0L76.386 0.845665L77.9398 0.871292L77.8411 6.68844C77.8041 8.68729 79.3825 10.1864 81.5652 10.2249C83.8959 10.2633 85.5236 8.72572 85.5606 6.41936L85.6469 1.03786L87.1761 1.06349L87.213 0.20501Z" fill="#00376C"/>
<path id="Vector_21" d="M105.896 4.67933L107.434 5.10392L107.664 4.25474L103.526 3.11365L103.309 3.96283L104.872 4.38742L103.296 10.4776L99.3247 1.94603L96.673 1.203L96.4424 2.05218L97.8899 2.45023L98.1462 3.12692L96.1734 10.7563L94.6361 10.3317L94.4312 11.1278L98.5689 12.2689L98.761 11.4861L97.1982 11.0482L98.8251 4.77221L102.912 13.6621L103.539 13.8346L105.896 4.67933Z" fill="#00376C"/>
<path id="Vector_22" d="M115.378 18.4866L113.944 17.6686L117.856 9.70025L119.29 10.5182L119.694 9.70025L115.378 7.21807L114.974 8.03606L116.395 8.86815L112.484 16.8224L111.05 16.0044L110.672 16.766L115 19.2481L115.378 18.4866Z" fill="#00376C"/>
<path id="Vector_23" d="M131.71 19.2468L132.415 19.8196L132.927 19.0967L130.467 17.119L129.954 17.8419L130.928 18.6193L124.829 22.493L126.584 15.1413L127.661 16.0005L128.173 15.2776L124.88 12.6316L124.367 13.3545L125.2 14.0228L122.702 24.3343L123.099 24.6617L131.71 19.2468Z" fill="#00376C"/>
<path id="Vector_24" d="M137.726 35.3294L137.151 34.721L136.224 35.5013L133.569 32.7237L136.603 30.1577L138.597 32.2476L137.741 32.975L138.316 33.5835L140.732 31.5465L140.128 30.9513L139.3 31.6524L137.305 29.5625L140.198 27.1156L142.755 29.7874L141.856 30.5545L142.418 31.1365L144.356 29.4964L143.78 28.888L143.429 29.1922L138.527 24.0602L137.895 24.6025L139.061 25.8326L132.333 31.5333L131.167 30.3032L130.521 30.8455L136.111 36.6918L137.726 35.3294Z" fill="#00376C"/>
<path id="Vector_25" d="M147.553 56.2555C147.352 57.2672 147.365 58.1264 147.633 58.9718C148.21 60.7873 149.846 61.7435 151.429 61.203C152.81 60.7457 153.32 59.9835 153.736 57.7661C153.843 57.2256 153.977 56.602 154.111 55.9229C154.299 55.036 154.527 54.6895 155.077 54.5093C155.949 54.2183 156.713 54.7172 157.035 55.7427C157.223 56.3387 157.236 56.7683 157.062 57.7661L156.002 58.1264L156.257 58.9302L158.792 58.071L158.537 57.2672L158.014 57.4474C158.148 56.699 158.108 56.0199 157.88 55.2854C157.33 53.5392 155.694 52.5553 154.165 53.068C152.918 53.4838 152.381 54.3985 152.059 56.6297C151.737 58.7501 151.375 59.5261 150.571 59.7895C149.739 60.0666 148.908 59.4846 148.559 58.3897C148.317 57.6414 148.317 56.9762 148.559 55.9229L149.659 55.5487L149.404 54.7449L146.762 55.6319L147.017 56.4357L147.553 56.2555Z" fill="#00376C"/>
<path id="Vector_26" d="M151.794 73.2627L151.58 71.3902L159.551 70.0463L159.778 71.9187L160.596 71.7677L159.942 66.1654L159.11 66.3013L159.337 68.1587L151.353 69.5026L151.139 67.6453L150.371 67.7812L151.026 73.3835L151.794 73.2627Z" fill="#00376C"/>
<path id="Vector_27" d="M151.778 85.8162L151.844 83.8625L160.281 84.1674L160.175 87.5205L158.947 87.4789L158.921 88.338L161.456 88.4211L161.483 87.5759L161.047 87.562L161.324 79.0961L161.76 79.11L161.799 78.2925L159.251 78.1955L159.225 79.0269L160.453 79.0684L160.347 82.4215L151.897 82.1167L151.963 80.163L151.157 80.1353L150.972 85.7885L151.778 85.8162Z" fill="#00376C"/>
<path id="Vector_28" d="M148.738 101.971L148.957 101.106L159.05 99.6021L159.179 99.0755L151.033 92.9829L151.226 92.2181L150.453 92.0301L149.731 94.8633L150.504 95.0514L150.788 93.9231L152.811 95.4149L151.87 99.0881L149.37 99.4516L149.602 98.5615L148.828 98.3735L147.965 101.771L148.738 101.971ZM160.661 102.824C161.28 102.974 161.911 102.598 162.053 102.022C162.208 101.42 161.834 100.806 161.215 100.655C160.622 100.517 159.991 100.881 159.836 101.483C159.694 102.072 160.068 102.686 160.661 102.824ZM161.576 99.251C162.195 99.4015 162.827 99.0254 162.968 98.4487C163.123 97.8595 162.736 97.2327 162.13 97.0948C161.538 96.9443 160.906 97.3204 160.751 97.9222C160.609 98.4989 160.996 99.1006 161.576 99.251ZM153.533 95.954L156.794 98.3735L152.76 98.9627L153.533 95.954Z" fill="#00376C"/>
<path id="Vector_29" d="M143.352 112.956L144.211 111.247L152.494 114.865L151.035 117.789L149.819 117.269L149.461 118.016L151.951 119.098L152.323 118.363L151.894 118.177L155.585 110.767L156.014 110.967L156.386 110.233L153.882 109.151L153.525 109.872L154.726 110.393L153.267 113.33L144.969 109.725L145.827 108.016L145.026 107.669L142.551 112.609L143.352 112.956Z" fill="#00376C"/>
<path id="Vector_30" d="M145.198 50.1307L144.894 49.6203C144.656 49.212 144.682 48.7398 144.973 48.1656L146.576 45.0391C147.516 46.1366 148.893 46.379 150.178 45.6899C151.727 44.8477 151.992 43.444 150.946 41.6575L148.403 37.2932L147.635 37.7016L148.443 39.0925L141.067 43.0867L140.259 41.6958L139.544 42.0786L141.98 46.2514L142.682 45.8686L141.874 44.4776L145.053 42.7549L145.583 43.661L143.649 47.3106C143.186 48.1656 143.199 48.357 143.676 49.1737L144.47 50.5263L145.198 50.1307ZM149.291 40.4835L150.045 41.7723C150.602 42.7294 150.31 43.5716 149.238 44.1586C148.178 44.7329 147.145 44.5415 146.629 43.6482L145.861 42.3338L149.291 40.4835Z" fill="#00376C"/>
<path id="Vector_31" d="M98.9025 47.0961C98.8228 47.057 96.8577 46.2358 96.5789 46.1706C96.4461 46.1445 95.4502 45.4667 94.7332 44.9714C93.8835 44.3848 93.4984 44.1371 93.4055 44.111C93.2461 44.0719 92.3698 43.6548 91.9316 43.4462L89.7408 42.0645L87.5499 40.4872C87.5366 40.4741 87.125 40.1613 86.647 40.044C86.6338 40.044 85.3193 39.5747 83.6462 39.7311C82.6371 39.8615 79.9948 40.1874 79.8886 40.1874C79.7691 40.1874 77.2065 40.6958 77.0339 40.8C77.0073 40.8131 74.936 42.0905 74.2721 42.4816L74.2455 42.4946L73.98 43.9546L74.1526 43.7851C74.1659 43.7721 75.9584 42.0384 77.6447 41.53C77.6845 41.517 81.2961 40.6827 83.8056 40.8131C83.8321 40.8131 86.3815 40.8652 88.2404 42.2209L89.9001 43.5766L92.3167 44.8149C92.33 44.828 94.1357 46.2488 98.1324 47.8391C98.1589 47.8522 100.297 48.6473 101.505 49.8205L101.611 49.9248L101.638 49.7814C101.85 48.6473 99.0353 47.1613 98.9025 47.0961Z" fill="#00376C"/>
<path id="Vector_32" d="M108.415 59.3257L108.038 56.8841L107.787 55.422L107.347 53.7529C106.819 51.6424 106.028 50.2216 105.01 48.7594C104.998 48.7181 104.633 47.8214 103.201 46.4696C103.088 46.3593 102.95 46.2213 102.799 46.0696C102.296 45.5454 101.53 44.7592 100.525 44.1246C100.286 43.9591 98.1124 42.5245 97.9742 42.4694C97.924 42.4556 97.7858 42.4004 97.6099 42.3314C97.1701 42.1521 96.5042 41.89 96.3158 41.8486C95.8258 41.7107 95.2729 41.6279 94.9337 41.5865L95.185 41.5038L94.5065 41.5452V41.5727C94.4688 41.6003 94.4312 41.6417 94.4312 41.7107C94.4312 41.8348 94.5694 42.0141 95.5242 42.29C95.7504 42.359 97.7858 43.1866 97.7858 43.1866C97.8109 43.2004 100.236 44.8143 100.638 45.104C100.663 45.1178 102.598 46.7179 103.867 48.8284C103.879 48.856 105.525 51.1596 106.442 55.2978L107.611 58.8843L108.867 61.3534L108.415 59.3257Z" fill="#00376C"/>
<path id="Vector_33" d="M112.871 68.9346C112.737 68.0124 112.558 66.8695 112.424 66.194C112.246 65.2069 111.576 63.4015 110.996 62.5573C110.43 61.739 109.165 60.9467 109.12 60.9077L108.867 60.7519L109.864 62.7911C109.879 62.817 111.1 64.9991 111.829 70.2465L111.338 74.8704L110.772 76.5589C110.579 78.1565 110.579 78.1695 110.683 78.1825L110.728 78.1955L110.757 78.1695C110.802 78.1305 112.008 77.1564 112.305 76.0004C112.32 75.9225 112.737 74.1041 112.796 73.6754C112.796 73.6495 113.183 70.9349 113.05 70.0906C113.005 69.8178 112.945 69.4022 112.871 68.9346Z" fill="#00376C"/>
<path id="Vector_34" d="M120.855 94.5246C119.947 93.7968 120.187 93.0028 120.201 92.9499L120.494 89.5624C120.521 87.8819 119.787 86.4661 119.787 86.4661C119.546 85.6589 118.278 85.0767 118.211 85.0502C117.464 84.8914 116.436 84.8782 116.049 84.8782C115.942 84.8782 115.888 84.8782 115.888 84.8782C113.886 84.9973 113.338 85.2884 113.071 85.4339C112.951 85.5001 112.924 85.5001 112.858 85.4869C112.844 85.4604 112.898 85.3281 112.938 85.2222C113.058 84.9311 113.245 84.4415 113.138 83.8196C112.711 82.6948 112.738 81.5304 112.738 81.3584L114.233 79.2677C116.316 75.6023 115.995 71.1033 115.982 71.0636C115.448 63.3492 113.952 59.1413 113.939 59.1016C111.803 52.2472 108.519 46.0545 108.479 45.9883C104.26 39.2531 95.1144 37.9431 95.0343 37.9298C90.5752 37.03 82.8317 37.3476 82.7516 37.3476C78.773 37.652 76.4634 38.6444 76.45 38.6576C76.41 38.6709 72.872 40.047 71.39 42.3759C71.3633 42.4288 71.1497 42.9449 71.0429 43.3419C70.7626 43.5668 69.5743 44.3211 67.8921 43.2228C66.3968 42.5612 66.1432 39.6633 66.1432 39.6103C66.1432 39.5971 65.7693 38.5518 64.6612 38.5253C61.0165 37.9828 58.9738 39.3192 58.9471 39.3457C58.867 39.4119 57.0246 40.8277 56.4104 42.2833C56.0633 42.323 54.0874 42.6538 51.9913 45.8031L50.1889 47.9467L47.7724 50.0374L47.7591 50.0639C47.719 50.1433 46.7711 51.9826 47.3586 55.595C47.4387 55.9126 48.1329 56.4286 49.4947 57.1829C49.5214 57.1961 49.5348 57.2094 49.5615 57.2226C49.7884 57.5799 49.7617 61.3511 49.2277 62.2509C49.1876 62.317 48.5201 63.9711 48.3999 64.2887L47.5455 65.6781C47.4654 65.7442 47.0381 66.2074 47.0648 67.5174L47.0782 68.6024C47.0782 68.6156 46.9313 70.1638 46.3706 70.8916L44.635 73.2073L43.073 75.4832C43.0596 75.4965 42.0449 77.3622 41.7512 77.7592C41.6845 77.8386 41.6044 77.9444 41.4842 78.0768C41.057 78.5796 40.4028 79.3206 40.296 80.1939C40.296 80.2469 40.2559 81.4245 41.057 82.2185C41.5109 82.6684 42.1384 82.8933 42.9127 82.8933C42.9528 82.8933 42.9929 82.8933 43.0196 82.8933L43.834 82.8669C43.834 82.8933 43.8473 82.9066 43.8607 82.9198C43.874 83.0521 43.8874 83.3697 43.9007 83.5814L43.9808 84.2695L43.9007 85.6721C43.8874 85.7251 43.5936 86.8366 43.9274 87.3791C43.9274 87.3791 44.2745 87.7231 44.2478 88.0407L44.0609 88.7156L43.9141 89.1655C43.8874 89.2978 43.6604 90.4225 44.1677 90.6475L44.8086 90.9783C44.8219 90.9915 45.6096 91.6928 45.2491 92.3941L44.635 93.466C44.6083 93.4924 44.0342 94.154 43.9141 95.0009C43.9141 95.0274 43.5002 96.999 44.635 98.6927C45.4227 99.8704 46.7578 100.638 48.5868 100.969L52.1382 101.405L56.0767 102.12C56.1167 102.133 57.1714 102.411 57.1447 103.8L57.1047 104.383C57.1047 104.422 57.1714 105.415 57.652 106.288L58.5199 108.154L59.4544 109.848L60.389 112.097C60.4023 112.124 61.19 114.122 61.1633 116.543L60.9898 121.148V121.227L62.2714 121.254H62.3515L62.4183 114.849C62.4183 114.823 62.1112 112.349 61.0832 110.483L60.2955 108.855L59.1206 106.844C59.1073 106.831 58.2795 105.256 58.1193 103.059L58.1594 101.802C58.5198 101.683 60.6693 100.969 62.7387 100.016C62.979 99.9101 66.3301 97.7268 67.6385 96.7608C70.2953 94.5378 71.0162 93.9423 71.1764 93.7571C71.1764 93.7571 71.1764 93.7571 71.1764 93.7438V93.7571C71.4434 93.5321 73.3526 91.931 74.0202 90.8857L74.5942 90.8724C74.6076 90.8724 74.6343 90.8724 74.6476 90.8724C74.7811 90.8724 74.888 90.9121 74.9948 91.0048C75.5154 91.4547 75.5956 92.844 75.5956 92.8705L78.1722 104.118L74.9147 108.935L71.4301 117.006L68.6531 126.825L68.6264 126.917H70.4688V126.838C70.5756 118.872 76.7437 107.929 76.8105 107.836L82.6314 99.844L89.2 92.7514L94.9275 86.8233C95.1144 86.691 99.6137 83.6873 100.134 83.2506C100.268 83.1712 100.401 83.158 100.522 83.2109C100.855 83.3565 101.029 83.9651 101.029 83.9916C101.576 85.037 101.79 86.0691 101.803 86.0823C102.351 87.7893 102.177 88.3583 102.03 88.5303C101.937 88.6362 101.817 88.6362 101.83 88.6362H101.817H101.803C99.8273 88.9008 98.9194 90.3564 98.9194 90.3696C97.798 92.1295 98.0917 94.1408 98.2385 94.8024C98.2118 94.8421 98.1985 94.8818 98.1851 94.9215C98.0783 94.9083 97.9582 94.9083 97.8514 94.9083C95.4616 94.9083 94.7273 96.7476 94.7273 96.7608C93.0718 99.8704 94.3668 102.954 94.3802 102.967C94.3802 102.993 94.794 105.005 94.7006 106.46C94.6872 106.698 94.6071 108.736 95.5016 109.226C96.1692 109.715 96.7432 109.861 96.9035 109.901C96.9969 110.073 97.4508 110.84 98.1184 110.919C98.1851 110.933 98.2519 110.933 98.3186 110.933C99.0796 110.933 99.8139 110.377 100.495 109.279C100.522 109.226 100.548 109.186 100.562 109.186C100.642 109.107 102.177 107.717 102.19 107.717C102.204 107.704 103.045 107.175 104.206 107.439C104.353 107.466 105.635 107.373 105.889 107.36C107.103 107.294 107.744 106.394 107.998 105.931C108.091 106.844 108.545 109.57 110.682 110.284C110.481 110.642 110.495 111.184 110.495 111.277C109.987 113.447 111.589 114.532 111.603 114.545C115.021 116.609 118.518 114.651 118.545 114.638C120.615 113.473 120.748 110.575 120.748 110.549C120.988 108.233 120.721 106.857 120.721 106.844L120.708 106.817C118.866 103.906 120.735 101.855 120.748 101.829C121.402 101.247 121.856 100.082 122.07 98.3884C122.323 95.5699 120.908 94.5642 120.855 94.5246ZM118.946 106.698C119.747 107.995 119.346 110.814 119.346 110.84C118.892 113.169 116.876 113.91 116.022 114.108C114.34 114.532 112.591 114.108 111.776 113.116C111.322 112.547 111.189 111.832 111.362 111.025C111.389 110.972 111.416 110.933 111.429 110.853C111.656 110.178 112.083 108.895 114.98 108.683C115.474 108.683 116.476 109.517 116.489 110.059C116.489 110.311 116.262 110.443 115.808 110.47C115.768 110.47 115.741 110.47 115.701 110.47C115.501 110.47 115.328 110.443 115.314 110.443C114.994 110.456 114.794 110.536 114.7 110.681C114.607 110.827 114.673 110.999 114.673 110.999C114.687 111.025 114.94 111.621 115.955 111.621C116.022 111.621 116.102 111.621 116.182 111.608C116.209 111.608 116.249 111.607 116.302 111.594C116.543 111.581 116.783 111.568 116.863 111.541C117.878 111.25 117.784 109.755 117.771 109.702C117.717 108.71 116.716 108.127 116.676 108.101L115.541 107.466L114.82 107.4L113.579 107.558C112.123 107.863 111.429 108.908 111.162 109.464C109.52 108.154 109.36 107.069 109.36 107.042L108.706 105.19C108.826 104.978 108.986 104.674 109.213 104.264L109.8 104.462C109.814 104.462 111.296 104.806 112.791 104.806C112.991 104.806 113.191 104.793 113.378 104.78C113.525 104.766 115.061 104.634 115.114 104.634L116.129 104.687C116.142 104.687 117.797 105.018 118.385 105.706L118.732 106.262C118.852 106.5 118.932 106.685 118.946 106.698ZM95.7286 103.84V103.814C95.7286 103.814 95.7019 103.509 95.9556 103.231C96.2359 102.914 96.7432 102.742 97.4375 102.715C97.4775 102.715 98.332 102.729 98.6391 103.483L98.6524 103.509C98.6524 103.509 99.1731 103.999 99.2398 104.621C98.9595 104.647 97.9582 104.793 97.1171 105.375C96.5163 105.799 96.1158 106.381 95.8754 106.778C95.6618 105.878 95.6084 104.938 95.5817 104.264L95.7286 103.84ZM97.7179 106.023C98.3854 105.626 99.1998 105.521 99.8406 105.785L100.949 106.725C100.922 107.135 100.762 107.85 99.894 108.352L99.8673 108.379C99.2131 109.226 98.5857 109.662 98.065 109.662C98.0516 109.662 98.0383 109.662 98.0116 109.662C97.5309 109.636 97.2906 109.239 97.2773 109.239L97.2506 109.212C96.9836 109.04 96.7699 108.789 96.583 108.511C96.5697 107.929 96.6364 106.685 97.7179 106.023ZM101.63 106.037L100.775 105.534C100.775 105.534 100.575 105.402 100.508 105.203L99.6804 103.351L99.6671 103.337C99.627 103.284 98.5857 102.014 97.8247 101.948C97.7579 101.948 97.7045 101.948 97.6511 101.948C97.2239 101.948 96.9969 101.974 96.8901 102.001C96.8501 102.001 96.8234 102.014 96.81 102.014C96.7165 102.014 96.0089 102.265 95.6752 102.371L95.0744 102.358C94.5003 100.982 94.9943 99.5661 95.2747 98.9442C95.4482 98.7589 95.6618 98.5869 95.9556 98.5075C96.3828 98.3884 96.8768 98.534 97.3841 98.9177L98.826 100.4L99.7605 101.551C99.9074 101.789 101.229 103.827 101.683 104.052C101.736 104.078 101.777 104.092 101.817 104.092C101.87 104.092 101.91 104.065 101.937 104.039C102.137 103.814 101.71 102.861 101.336 102.292C101.216 102.107 101.082 101.882 100.922 101.604C100.401 100.731 99.6938 99.5396 98.9461 98.8118C98.8527 98.7192 98.7592 98.6266 98.6658 98.5472C97.8914 97.7797 97.2372 97.1843 96.1825 96.9725C96.9702 96.0727 98.1317 95.8478 98.7192 95.7949L99.4268 96.1389L99.9741 96.5888L100.642 97.396L101.122 98.0973L101.683 99.5131L102.003 100.598L102.471 101.577L103.485 103.033L103.512 103.059C103.846 103.271 104.18 103.377 104.527 103.377C104.674 103.377 104.807 103.351 104.954 103.324C105.662 103.139 106.196 102.504 106.449 101.988C107.571 99.7646 104.126 94.8289 103.846 94.4452C103.619 92.2751 105.168 90.1182 105.595 89.5492C106.342 89.536 106.997 89.483 107.584 89.4169V89.7345L107.384 91.2429C107.317 91.4811 107.103 92.1163 106.89 92.2883C106.863 92.328 106.129 93.3733 105.955 94.4716C105.955 94.5642 105.942 95.3979 106.142 95.6758C106.89 96.6153 108.091 98.1635 108.172 98.3884V98.4149C108.559 101.339 108.278 101.935 107.517 103.496C107.33 103.88 107.117 104.343 106.877 104.885L106.102 105.64C105.381 106.526 103.632 106.54 103.619 106.54L101.937 106.407C101.87 106.301 101.75 106.169 101.63 106.037ZM99.1731 93.7174C99.1864 92.725 99.8139 91.362 99.8673 91.2429C100.869 90.0917 101.83 89.9197 101.83 89.9197C102.311 89.8932 102.658 89.7344 102.911 89.4698C103.392 89.4963 103.819 89.5095 104.26 89.5095C103.859 90.0388 101.349 93.466 103.165 95.8478C104.527 97.6342 105.862 100.056 105.662 101.022C105.622 101.194 105.555 101.3 105.421 101.366L105.395 101.379C104.941 101.882 104.553 102.08 104.233 102.014C103.752 101.895 103.579 101.167 103.566 101.141L102.845 99.7778L102.391 98.2561C102.297 97.8591 101.483 96.8005 101.443 96.7476L101.002 96.2315L100.602 95.8875L100.028 95.2126L99.5603 94.8554L99.2398 94.6436C99.2265 94.6436 99.1731 94.6172 99.133 94.604C99.1731 94.2864 99.1731 93.9556 99.1731 93.7174ZM45.2892 88.1466C45.4494 87.9613 45.7298 87.7761 46.0635 87.9084C46.1703 87.9878 46.7444 88.4112 46.958 88.4112C46.958 88.4112 47.3853 88.398 48.1062 88.3583C48.3465 88.3583 48.4533 88.2524 48.5067 88.1598C48.6135 87.9745 48.5468 87.7231 48.4533 87.5776C48.3866 87.4717 48.3065 87.4188 48.2264 87.4188C47.9861 87.432 47.2251 87.4717 47.2251 87.4717H47.1984L47.1717 87.4849C47.1717 87.4849 47.1182 87.5114 47.0381 87.5114C46.9313 87.4982 46.7044 87.3923 46.384 86.9027C46.3172 86.7836 46.0902 86.6116 45.9167 86.5719C45.8232 86.5455 45.6764 86.5322 45.4227 86.5058L45.1824 86.4793C45.0622 86.4661 44.9688 86.4131 44.9154 86.347C44.8086 86.2014 44.862 85.9897 44.862 85.9897L44.9955 85.2752C45.0088 85.1958 45.4093 83.555 45.0088 82.6948C45.0489 82.7213 45.1023 82.7478 45.169 82.7742L46.2638 82.9463L47.6656 83.5152C47.6923 83.5152 48.3999 83.7799 49.7884 82.9066L49.8285 82.8801V82.8404C49.7484 81.676 48.6536 80.1013 48.6002 80.0351L48.5334 79.9425L48.1997 80.4189L48.213 80.4586C48.213 80.4718 48.5067 81.1864 48.6002 81.4245C48.8272 82.0465 48.8939 82.3376 48.8405 82.4567C48.8005 82.5361 48.707 82.5625 48.5334 82.6154L48.48 82.6287C48.0528 82.761 47.2518 82.8933 46.7711 82.2185L46.7444 82.192C46.7044 82.1655 45.8766 81.6892 44.6751 81.5172C44.6617 81.5172 43.2332 81.6627 42.846 81.676C42.1517 81.7024 41.6978 81.5966 41.4575 81.3584C41.2038 81.0937 41.2305 80.7232 41.2572 80.3527C41.2706 80.2072 41.2706 80.0748 41.2706 79.9558C41.3907 79.7308 42.5389 77.7592 43.4067 76.8726L43.9541 76.1713L45.5161 73.5248L46.7845 71.9237C46.8379 71.8576 48.2397 70.4417 48.1997 69.264L48.2931 67.7555V67.7423V67.7291C48.2931 67.7158 48.1463 66.9219 48.6269 66.0353L49.3078 64.7386L50.0154 62.8463L50.4827 60.9806L50.7096 58.4135L50.6963 58.0562C50.9766 57.6196 51.6308 56.561 51.751 55.7935C51.8978 54.8672 52.8324 54.0204 53.6468 53.6234C54.1007 53.4117 54.5146 53.2397 54.8217 53.1206C55.0887 53.0147 55.2756 52.9353 55.3424 52.8824L55.3557 52.8692C55.3691 52.8559 55.596 52.5648 55.5026 52.3002C55.4358 52.1281 55.2623 52.0223 54.9819 51.9694C54.9819 51.9694 54.9685 51.9694 54.9552 51.9694C54.7416 51.9694 53.8204 52.4325 53.4732 52.6177C52.819 52.9618 52.1782 53.3852 51.7109 53.7822C51.4439 54.0071 51.2036 54.3909 50.9633 54.7614C50.8031 55.026 50.6429 55.2642 50.4827 55.4627L50.4426 55.5024C50.2023 55.7803 50.0688 55.9258 49.7484 56.0449C48.8672 55.6612 48.2664 55.1583 48.2264 54.7481C48.2264 54.7349 48.213 53.2926 48.1863 52.8162C48.1596 52.3266 48.213 51.2548 48.8005 50.3285C49.0007 50.4741 49.2677 50.58 49.6683 50.6064C49.7617 50.6064 49.8552 50.6197 49.9486 50.6197C51.2036 50.6197 52.9259 50.0771 53.8871 49.0847C54.6214 48.3305 55.7829 48.2246 56.5039 48.2378C56.4238 48.3305 56.3437 48.4363 56.3036 48.5025C56.1034 48.8201 55.5693 50.4741 55.7963 50.8446C55.8497 50.9372 55.9164 51.0828 55.9832 51.2548C56.1835 51.7312 56.4371 52.3266 56.8243 52.3266C56.8777 52.3266 56.9311 52.3002 56.9712 52.2605C57.078 52.1281 57.0246 51.8238 56.9311 51.3739C56.8109 50.752 56.6507 49.8787 56.9712 49.3361C57.9324 47.7218 59.8149 46.2662 61.1767 45.6443C62.9256 44.8636 64.2207 44.6783 65.0084 45.0885C65.6625 45.4326 66.3701 46.2133 66.9309 46.8484C67.1979 47.1528 67.4515 47.4307 67.6652 47.6292C68.0523 47.9864 68.7332 48.132 69.2673 48.1981C69.1337 48.5554 68.9869 48.9788 68.8267 49.4817C68.3727 49.442 67.6385 49.4287 66.8775 49.5478C66.1832 48.8862 63.9403 46.9278 62.485 47.5762C60.923 48.2643 59.7348 49.217 59.3209 49.6272C59.0539 49.8919 58.6 50.5932 58.6667 50.8843C58.6801 50.9505 58.7201 51.0034 58.7869 51.0299C58.8136 51.0299 58.8269 51.0431 58.8536 51.0431C59.2007 51.0431 59.9617 50.3418 60.1887 50.1168C60.2021 50.1036 61.9911 48.6083 63.0858 48.6083H63.0992C63.9937 48.6083 65.222 49.4684 65.6892 49.8654C65.529 49.9316 65.3688 49.9977 65.222 50.0904C64.1405 50.7652 63.6733 51.2813 63.3395 51.6518C63.246 51.7576 63.1659 51.8503 63.0858 51.9297L63.0191 51.9958C62.218 52.8162 61.6306 53.2397 61.2701 53.2397H61.2568C60.8562 53.2264 60.0952 52.8692 59.4811 52.578C59.174 52.4325 58.8937 52.3002 58.7335 52.2472C58.3329 52.1149 57.8523 52.1943 57.2916 52.4722C56.9979 52.6177 56.6107 52.8956 56.4772 53.2264C56.4505 53.2794 56.4638 53.319 56.4905 53.3587C56.5973 53.4911 56.9712 53.4911 57.7989 53.4117C57.9992 53.3984 58.1727 53.3852 58.2662 53.3852C58.5065 53.3852 59.2942 53.7822 59.935 54.0998C60.2688 54.2718 60.5892 54.4306 60.8028 54.5232C60.8963 54.5629 61.0031 54.5894 61.1099 54.5894C61.951 54.5894 63.206 53.5837 63.3528 53.4514C63.5131 53.319 63.6866 53.0941 63.9136 52.7898C64.4209 52.1281 65.1152 51.2283 66.2233 50.6461C67.1311 50.183 67.9455 50.2491 68.4662 50.3947C68.3194 50.7652 68.1458 51.2019 67.9989 51.5591C67.9589 51.7179 67.9188 51.8635 67.8788 52.0223C67.6652 52.1546 67.3981 52.3399 67.0644 52.6707C65.6225 54.0468 63.8068 54.9731 62.8455 55.4098C62.8055 55.4362 62.7788 55.4362 62.7654 55.4495C61.9644 55.9523 59.6547 55.4759 58.8136 55.198C58.7335 55.1716 58.6801 55.198 58.6534 55.2245C58.6267 55.251 58.6 55.2907 58.6267 55.3833C58.7201 55.6876 59.401 56.3757 60.5492 56.5742C60.5625 56.5742 60.9631 56.6404 61.5638 56.6404C62.5117 56.6404 63.967 56.4683 65.1152 55.5818L67.3581 53.9013C67.3314 53.9807 67.3047 54.0733 67.3047 54.0998C67.1712 54.3379 66.2366 56.5477 66.1298 56.8124C65.7426 58.8237 65.1018 59.8426 65.1018 59.8426L59.6947 68.0334C59.0672 69.1714 59.0138 70.3094 59.1607 70.7593C59.3342 71.2886 59.4945 71.6061 60.0819 71.6061C60.3489 71.6061 60.7094 71.6326 61.0432 71.6591C61.3235 71.6855 61.6039 71.712 61.7774 71.712C61.8041 71.712 61.8309 71.712 61.8576 71.712C62.6853 71.712 62.7521 72.3604 62.7521 72.3736C62.7521 72.4662 62.7788 74.8084 62.8055 75.0069C62.8322 75.245 62.8722 76.436 62.8722 76.4492C62.8722 76.4624 62.8188 77.2696 63.8468 77.6798C63.9269 77.8253 63.8735 78.0503 63.6599 78.3811C63.5798 78.5399 63.3128 79.9557 63.3662 80.1145C63.3795 80.141 63.3795 80.1675 63.3929 80.1939C63.4196 80.3263 63.473 80.5115 63.7934 80.6571C64.8348 81.107 64.8481 81.8215 64.8481 81.848V81.8744C64.9816 82.192 64.3542 83.4755 63.9136 84.2166C63.2327 85.2751 63.5398 88.3318 63.5665 88.4774C63.9403 89.9594 66.784 90.5284 66.9175 90.5548C69.7078 90.6739 71.7105 90.9651 71.7505 90.9651L72.5382 90.9386C72.4581 91.018 72.3913 91.0709 72.3112 91.1503L67.2379 95.3847C67.1845 95.4376 61.417 100.744 56.7308 100.744C56.6374 100.744 56.5573 100.744 56.4638 100.731C56.3704 100.731 55.6895 100.678 55.0219 100.625C54.2609 100.558 53.7803 100.532 53.7403 100.532C53.7403 100.532 53.6335 100.506 53.5133 100.492C52.9659 100.386 51.5107 100.082 50.229 100.042C47.1183 100.042 45.1957 98.8251 44.9688 96.6947C44.7151 95.1862 45.0088 94.4452 45.0355 94.3525C45.169 94.207 46.5041 92.725 46.4908 92.0766C46.4774 92.0236 46.1837 90.7004 45.7298 90.3167L45.7031 90.2902L45.663 90.3034C45.2892 90.3961 45.0355 90.3034 44.8887 90.052C44.7151 89.5624 44.862 88.6362 45.2892 88.1466ZM114.86 73.2073C114.593 77.7327 112.644 79.4397 112.057 79.8499C112.03 79.8631 112.017 79.8896 112.003 79.9028C112.003 79.9161 112.003 79.916 111.99 79.9293C111.883 80.0219 111.763 80.1145 111.643 80.2204C111.229 80.6041 110.775 81.0276 110.014 81.3848C109.88 81.451 109.747 81.5172 109.613 81.5833C109.493 81.6363 109.373 81.7024 109.226 81.7686C108.852 81.6098 108.358 81.3584 107.971 80.9746C108.278 80.4056 108.826 79.1883 108.465 78.4076C108.145 77.7195 107.864 77.3093 107.651 77.0182C107.557 76.8859 107.464 76.7535 107.397 76.6477C107.33 76.5286 107.277 76.0919 107.237 75.6288C107.144 74.7422 107.023 73.6439 106.65 73.1279C105.889 72.0428 104.42 70.9578 103.699 70.6137C103.325 70.4417 102.711 70.4814 102.217 70.5211C101.897 70.5476 101.536 70.574 101.456 70.4946C101.456 69.3434 100.281 66.0883 99.1731 65.0164C98.8527 64.6989 97.4909 64.4739 96.9302 64.6459C96.4095 64.8047 94.9943 64.9106 94.6739 64.4342C94.6338 64.3813 94.6071 64.3284 94.5671 64.2754C94.5137 64.196 94.4736 64.1166 94.4202 64.024C94.3801 63.9446 94.3267 63.852 94.2733 63.7726C94.26 63.7461 94.2333 63.7064 94.2333 63.6932C94.2333 63.5609 92.9116 59.6838 92.4977 58.4929C91.9102 57.3682 91.1092 57.1432 90.3348 56.9182C89.5338 56.6933 88.3723 56.2302 87.7982 55.82C87.5712 55.6612 87.4644 55.0525 87.3576 54.4173C87.2108 53.5175 87.0238 52.4854 86.4498 51.9297C85.4485 50.9637 81.4299 50.6064 81.2696 50.5932C81.1762 50.58 80.8958 50.5535 80.6288 50.5667C80.6555 50.4212 80.6689 50.3153 80.6689 50.3153L80.8157 49.0715C81.1762 49.1376 81.6835 49.1906 82.2309 49.0979C83.0854 48.9524 84.6474 48.6877 85.7822 48.7671C86.61 48.8333 87.1306 49.4023 87.8115 50.1168C87.9985 50.3153 88.1854 50.5138 88.399 50.7255C88.8262 51.1489 89.2134 51.89 89.6273 52.6707C90.188 53.7425 90.8288 54.9599 91.7367 55.767C92.9917 56.8918 94.794 57.646 95.8754 58.0959C96.1425 58.215 96.3694 58.2944 96.5029 58.3738C96.8768 58.5591 96.9302 58.8237 97.0637 59.3927C97.1438 59.75 97.2506 60.2263 97.4642 60.8615C98.0917 62.6479 99.0663 63.4815 99.9341 64.0505C100.441 64.3813 101.616 64.7915 102.764 65.1885C103.873 65.5722 105.034 65.9692 105.395 66.2603C105.782 66.5646 105.889 67.1601 106.009 67.7952C106.102 68.3245 106.196 68.8671 106.463 69.2905C106.836 69.8727 107.771 70.6137 108.612 71.2753C109.093 71.6458 109.533 72.0031 109.814 72.281C110.214 72.678 110.414 73.2999 110.575 73.7498C110.681 74.0938 110.748 74.2791 110.868 74.3188C110.882 74.3188 110.882 74.3188 110.895 74.3188C110.922 74.3188 110.962 74.3055 111.002 74.2658C111.242 74.0277 111.109 73.2205 110.828 72.109C110.735 71.712 110.094 71.1298 109.36 70.4549C109.24 70.3491 109.119 70.23 108.986 70.1109C109.333 69.7272 109.8 69.092 109.854 68.2716C109.934 66.9881 109.44 65.1091 108.759 64.1563C108.078 63.2168 107.264 62.1847 105.982 61.7613C105.688 61.6687 105.461 61.6025 105.288 61.5496C104.687 61.3775 104.58 61.3378 104.086 60.8218C103.459 60.1734 102.791 57.1564 102.578 54.8672C102.431 53.3323 101.736 52.6839 100.748 52.1943C100.188 51.9164 99.093 51.6518 97.9315 51.3607C96.9836 51.1225 95.9956 50.8843 95.2479 50.6197C94.1398 50.2359 92.0171 48.7804 90.4684 47.735C89.6807 47.1925 88.9864 46.7293 88.5992 46.5044C87.3843 45.8163 82.3778 44.9297 81.2963 45.34C80.7356 45.5517 80.4552 45.9089 80.3217 46.2133C80.1348 45.8825 79.9613 45.7766 79.9079 45.7502C79.5741 45.4855 78.5327 45.1415 78.4793 45.1282C78.3992 45.1018 78.3058 45.0885 78.2257 45.0621C78.5194 44.8371 78.9466 44.5328 79.3738 44.2814C80.1615 43.8315 81.7636 43.633 82.9919 43.633C84.327 43.633 84.8877 43.4213 84.9011 43.408L85.0613 43.3419L84.9144 43.2625C84.9011 43.2492 84.4471 43.0375 83.5526 42.9184C82.9786 42.8523 81.7636 42.9581 80.8024 43.0508C80.255 43.1037 79.7877 43.1434 79.5474 43.1434C78.9066 43.1434 77.0508 44.5592 76.7704 44.771C76.2097 44.7048 75.7024 44.6783 75.4353 44.6783C75.3953 44.6783 75.3686 44.6783 75.3419 44.6783C74.8613 44.6386 73.6997 44.8371 73.6463 44.8504C73.1657 44.9297 72.6317 45.1415 72.5249 45.1944C72.2845 44.771 72.1377 44.2681 72.1911 43.6859C72.2445 43.0905 72.4448 42.5876 72.7251 42.3759L72.7385 42.3627C73.2324 41.7275 74.5809 40.8013 74.5942 40.788C74.9814 40.4969 78.7997 38.7767 82.9518 38.6444C86.6367 38.5253 90.2013 38.6576 93.5257 39.0546C96.089 39.3589 102.978 42.3362 103.045 42.3627C105.114 43.408 106.77 45.7766 106.796 45.8163C108.105 47.1925 110.895 53.6234 110.922 53.6763C112.644 59.4986 112.978 60.4645 113.085 60.6233H113.071C113.218 60.8483 114.607 65.4663 114.86 73.2073ZM112.19 84.6797C112.203 84.7062 112.19 84.7591 112.177 84.812L111.856 85.6324C111.803 85.7383 111.763 85.8441 111.71 85.95C111.71 85.95 111.71 86.0029 111.71 86.0294L111.536 86.4793C111.322 87.3526 107.063 88.2789 105.461 88.57L104.54 88.5303H103.752L103.312 88.5038C103.312 88.2392 103.272 88.0407 103.258 88.0142L103.085 87.2468C103.152 87.1806 103.298 87.1541 103.352 87.1541C105.795 87.1144 107.905 86.2676 107.918 86.2543C107.985 86.2279 109.293 85.6854 109.8 85.4869C110.241 85.3148 110.722 84.7723 110.748 84.4812C110.762 84.3754 110.722 84.3224 110.682 84.296C110.588 84.2298 110.428 84.243 110.201 84.3489C109.16 84.812 105.595 86.0029 105.568 86.0029L104.754 86.122H103.512C103.138 86.122 102.871 85.4207 102.711 84.8649C102.791 84.7591 103.112 84.415 104.273 84.415C104.433 84.415 104.607 84.4151 104.807 84.4415H104.834C104.874 84.4283 108.559 83.7402 110.748 82.192C110.935 82.1391 111.336 82.0729 111.643 82.1523C111.669 82.4567 111.723 82.6684 111.723 82.6816C112.337 83.9916 112.203 84.6268 112.203 84.64V84.6665L112.19 84.6797ZM118.692 102.676L118.679 102.702C118.532 103.298 118.478 103.84 118.478 104.316C118.051 103.906 117.464 103.562 116.663 103.523C116.583 103.523 115.848 103.456 115.461 103.417L114.326 103.456C114.219 102.795 113.779 100.638 112.671 99.5528C111.83 98.7192 111.269 98.309 110.775 97.9517C110.508 97.7532 110.268 97.5812 110.001 97.3563C109.24 96.6947 107.905 95.6625 107.905 95.6625C107.264 94.8686 107.304 94.3393 108.091 92.9102C108.439 92.5794 108.639 90.0123 108.692 89.2581C109.213 89.1655 109.667 89.0596 110.041 88.9537C110.054 89.4036 110.094 90.3828 110.268 91.5076C110.374 92.2618 110.121 93.1352 109.934 93.7703C109.814 94.2202 109.72 94.5378 109.76 94.7098C109.894 95.1465 111.483 96.5888 112.137 96.9064C112.27 96.9725 112.444 97.0519 112.657 97.1578C113.512 97.568 114.94 98.2693 115.514 98.6663C115.928 98.9442 116.596 99.6587 117.197 100.281C117.637 100.744 118.011 101.141 118.225 101.3C118.478 101.498 118.759 101.908 118.972 102.252C118.839 102.424 118.732 102.583 118.692 102.676ZM109.346 98.9971L109.373 98.7192L109.52 98.7721L111.109 99.9895L112.457 101.352C112.471 101.352 113.111 102.001 113.138 102.623L113.165 103.509L112.844 103.523L111.029 103.417H111.002L110.975 103.443C110.975 103.456 110.828 103.562 110.535 103.483H110.508C110.508 103.483 110.495 103.483 110.481 103.483C110.308 103.483 109.547 103.403 109.226 102.596L109.36 101.154L109.48 100.453V100.439L109.346 98.9971ZM108.679 68.3245C108.585 68.748 108.385 69.1317 108.238 69.3831C107.931 69.0523 107.678 68.7347 107.571 68.4701C107.464 68.2054 107.397 67.954 107.33 67.6761C107.103 66.8293 106.863 65.9559 105.715 65.0958C104.927 64.5004 103.739 64.1696 102.591 63.8388C101.563 63.5477 100.495 63.2433 99.7605 62.7537C99.2666 62.4361 98.9328 61.2585 98.6124 60.1072C98.3987 59.353 98.1718 58.5723 97.9048 58.0165C97.344 56.8786 96.1291 56.6139 95.1545 56.4022C94.9142 56.3493 94.6872 56.2963 94.4869 56.2434C93.499 55.9523 91.4296 54.3644 90.0945 51.3077C88.7862 48.3172 87.3176 47.9996 86.5299 47.8276L86.4631 47.8144C85.9157 47.6953 84.0199 47.8541 82.7516 47.96C82.2042 47.9997 81.777 48.0394 81.6301 48.0394C81.4566 48.0394 81.2296 47.907 81.0293 47.7615C81.2029 47.1131 81.5901 46.2133 82.3778 46.2133C83.7128 46.2133 85.9424 46.2133 88.3322 47.6027C88.9197 47.9467 89.5872 48.3569 90.3081 48.8068C92.5244 50.183 95.288 51.89 97.2639 52.406L97.4508 52.4589C99.8807 53.0809 100.882 53.3323 101.202 54.4967C101.309 54.8805 101.376 55.4495 101.469 56.1111C101.643 57.5137 101.87 59.2604 102.564 60.2925C103.045 61.0203 103.966 61.6157 104.941 62.2641C105.969 62.939 107.037 63.6535 107.544 64.5004C108.532 66.1809 108.826 67.6364 108.679 68.3245ZM101.923 82.5625C101.79 82.2317 101.563 81.7024 101.269 81.279C101.029 80.8423 100.388 80.2336 99.2265 79.3603C99.133 79.2941 98.5723 79.0824 97.8914 78.8575C97.9181 78.7516 97.9048 78.6458 97.8247 78.5267L97.7446 78.4208C97.5309 78.1297 97.5309 78.1297 97.5443 77.5342L97.5576 77.2299C97.571 76.555 97.5576 76.4095 97.5576 76.2507C97.5576 76.1713 97.5576 76.0919 97.5576 75.9331C97.5576 75.7346 97.4909 75.5229 97.4108 75.2847C97.6244 75.2318 97.8781 75.1789 98.1451 75.1127C98.866 74.9539 99.7605 74.2923 100.388 73.4322C100.588 73.1543 100.855 72.3472 101.069 71.6458C101.536 71.5135 102.124 71.3547 102.551 71.4871C103.272 71.6988 104.78 72.5192 105.101 73.022C105.288 73.3263 105.448 73.935 105.595 74.5173C105.635 74.6893 105.688 74.8613 105.728 75.0201L103.031 75.2318L101.349 75.6155L99.4401 76.4095L99.9207 76.952L99.9474 76.9785H99.9875C100.174 76.952 101.79 76.7668 101.937 76.7271C104.594 75.986 106.276 76.5021 106.289 76.5153H106.316C106.369 76.5153 106.423 76.5683 106.476 76.608C106.543 76.7138 106.596 76.8065 106.663 76.9123C106.997 77.4416 107.344 77.9841 107.384 78.1826C107.424 78.487 107.13 79.4 106.623 80.1807C106.316 80.3263 105.742 80.5644 105.194 80.5777L104.1 80.4718L103.365 80.313C103.232 80.2469 102.898 80.1145 102.818 80.1145C102.751 80.1013 102.417 79.9425 102.137 79.797C101.483 79.2809 101.403 79.2677 101.376 79.2677C101.309 79.2677 100.842 79.1089 100.415 78.9501L99.4935 78.8839L100.041 79.5323L100.628 79.8499L101.109 79.969L101.937 80.6703L102.698 81.1731L103.165 81.3848L103.806 81.5966L104.981 81.7156L106.396 81.6495C106.903 81.7686 107.451 81.9671 107.464 82.0862L107.611 82.4831C107.531 82.5096 107.477 82.5361 107.384 82.5625C107.37 82.5757 105.915 83.4491 103.285 83.4491C103.098 83.4491 102.911 83.4491 102.724 83.4359L101.923 82.5625C101.937 82.5625 101.937 82.5625 101.923 82.5625ZM95.3147 77.9841C94.527 77.5342 94.033 77.1108 93.7794 76.8726C93.726 76.8329 93.6859 76.7932 93.6592 76.7668C92.3642 75.6949 91.6699 75.5097 91.6299 75.4965C91.5631 75.4832 91.483 75.4832 91.4163 75.4832C91.4029 75.4832 91.3762 75.4965 91.3629 75.4965C91.0024 75.0863 90.4817 74.4114 90.5618 74.0674C90.682 73.5381 90.9089 73.194 91.2427 73.0352C91.4697 72.9294 92.4042 72.9029 93.0718 72.9029C93.0851 72.9161 93.0985 72.9161 93.1252 72.9294C93.5924 73.2205 94.754 73.8953 94.7673 73.8953C95.4215 74.2394 95.8621 74.7951 96.0623 75.5361C96.3027 76.3963 95.9155 77.8253 95.8087 78.1429C95.5817 78.0768 95.3815 78.0106 95.3147 77.9841ZM92.511 62.8331C91.8301 62.9257 90.8822 63.0316 90.5351 62.7537C90.2414 62.5023 89.921 62.0656 89.6273 61.629C89.3736 61.2717 89.1466 60.9276 88.9197 60.7027C88.5325 60.319 87.9985 60.0146 87.4511 59.7632C87.2508 59.4059 86.6634 58.3473 86.3029 58.0298C85.3683 57.1829 84.7275 56.7065 84.1534 56.2831C83.8998 56.0978 83.6594 55.9126 83.4191 55.7273C81.9372 54.5497 80.295 53.9145 79.7076 53.7028C80.0414 52.8162 80.255 52.0884 80.4018 51.5195C80.8291 51.5988 81.2963 51.6385 81.8037 51.665C83.1922 51.7444 84.7809 51.837 86.0359 52.8162C86.156 52.9089 86.2629 53.6234 86.3563 54.2453C86.5032 55.2113 86.65 56.2169 86.9838 56.4286C87.3843 56.6801 87.9184 56.8786 88.4791 57.1035C89.5605 57.5269 90.8021 58.0165 91.5498 58.9428C92.4977 60.1337 92.5377 62.145 92.511 62.8331ZM100.148 70.4152C100.001 71.0504 99.7205 72.109 99.4401 72.5986C99.0262 73.3396 98.5322 73.6572 97.9715 73.9747C97.6511 74.16 97.2239 74.1468 96.9168 74.1071C96.7299 73.7762 96.3828 73.5778 95.9689 73.3925C95.7152 73.2734 95.4482 73.1543 95.2479 72.9823C94.9542 72.7574 94.5003 72.4398 94.1131 72.1884C94.6205 71.8046 95.0477 70.9842 95.1678 70.4285C95.3681 69.5551 95.3948 68.9464 95.3681 68.126V67.9805C95.3414 67.2792 95.3147 66.7366 95.1945 66.4323C95.6618 66.0353 96.4495 65.4399 97.7446 65.6913C98.826 65.903 99.7605 68.1922 100.108 69.3831C100.174 69.5816 100.161 69.9918 100.148 70.4152ZM82.7115 56.336C83.6728 57.0638 84.7275 58.1224 85.128 58.5194L85.2482 58.6517C85.395 58.784 85.4752 58.9693 85.5553 59.1545C84.7943 58.9693 84.0066 58.8237 83.5393 58.8237C82.9652 58.8237 82.0039 59.1016 81.3764 59.6044C81.2963 59.6706 81.2429 59.7235 81.1762 59.7897C80.6822 58.5326 79.5073 57.2623 79.4539 57.2094C78.6662 56.4287 78.733 55.992 78.733 55.992C78.8932 55.6612 79.0267 55.3568 79.1602 55.0525C80.0013 55.1584 81.5634 55.4627 82.7115 56.336ZM81.2296 62.939C81.3764 62.317 81.3764 61.5628 81.3364 60.9541C81.6835 60.5571 82.1775 60.0808 82.6581 59.9617C83.5927 59.7235 84.7142 59.922 85.4751 60.1205C86.2495 60.3322 87.5579 60.6762 88.2388 61.5099C88.4257 61.7348 88.5992 61.9995 88.7594 62.2509C89.0932 62.7669 89.427 63.2962 89.9477 63.5741C90.2948 63.7594 91.2294 63.9579 91.8435 64.0902C92.0171 64.1299 92.1773 64.1563 92.2841 64.1828C92.8582 64.3151 93.2186 64.5533 93.4856 64.8312C93.4856 64.8444 93.499 64.8709 93.499 64.8841C93.6592 65.3473 94.1932 67.0013 94.1932 68.5627C94.1932 68.8141 94.0464 69.8065 93.6192 70.6137C93.5658 70.7063 93.539 70.799 93.499 70.8784C93.4189 71.0901 93.3521 71.2224 93.1919 71.2224C93.1385 71.2224 93.0718 71.2092 92.9917 71.1827C92.7781 71.1033 92.6312 71.0372 92.4977 70.9842C92.2841 70.8916 92.1105 70.8122 91.7901 70.7196C91.2694 70.574 90.5752 70.574 90.5485 70.574C90.5351 70.574 89.2801 70.8254 88.8262 70.2168C88.6126 69.9256 88.5058 69.5816 88.4123 69.264C88.2922 68.8671 88.1854 68.523 87.8783 68.4304C87.7448 68.3907 87.6513 68.3378 87.5445 68.2848C87.5846 68.2319 87.6246 68.179 87.6513 68.126C88.0919 67.4909 88.2121 67.2262 88.2922 66.6969C88.3723 66.1677 88.2788 65.1752 88.132 64.7253C87.865 63.8652 87.3443 63.0316 87.1841 62.7934C86.917 62.3832 85.1948 61.6951 84.7809 61.6951C84.7676 61.6951 84.7542 61.6951 84.7542 61.6951C84.6474 61.7084 84.6207 61.7745 84.6074 61.801C84.554 62.0789 85.6487 62.7272 85.7822 62.8066C86.4097 63.1639 87.0105 64.2622 87.1974 64.8709C87.3576 65.4134 86.877 66.869 86.7969 67.1204C86.5699 67.1998 85.3016 67.61 84.6607 67.3718C84.2602 67.2262 83.9265 67.041 83.566 66.8557C83.2856 66.697 82.9785 66.5382 82.6314 66.3926C82.084 66.1544 81.1228 65.1223 80.6288 64.5798C80.8024 63.7594 81.2296 62.939 81.2429 62.9257L81.2296 62.939ZM82.1107 67.0278C82.578 67.1733 82.805 67.4909 83.0186 67.7555C83.072 67.8217 83.1121 67.8614 83.1521 67.9143C83.2456 68.867 83.4191 70.4152 83.5793 71.0372C83.6728 71.4077 83.8063 71.7252 83.9265 72.0031C84.1 72.4133 84.2469 72.7706 84.1935 73.1411C84.1267 73.5513 84.1534 74.2262 84.1801 74.7025C82.6314 74.7554 82.3778 74.5834 82.3644 74.5702C82.1108 74.2526 81.6034 70.6534 81.3097 68.2981L80.8691 66.472C81.2029 66.6705 81.6568 66.8954 82.1107 67.0278ZM84.8877 72.6383L84.8076 72.3207C84.594 71.54 84.327 70.574 84.3403 69.9918C84.3403 69.5022 84.2869 68.7612 84.2469 68.351C84.5005 68.4701 84.7943 68.6289 85.0613 68.7877C85.355 68.9597 85.6354 69.1185 85.8757 69.2243C85.9958 69.2773 86.1026 69.2905 86.2228 69.2905C86.2762 69.2905 86.3163 69.264 86.3697 69.2508C86.2896 69.4757 86.2228 69.7007 86.1694 69.8198C85.9958 70.1903 85.9825 70.9181 85.9825 71.4341C85.9825 71.9502 86.116 72.9161 86.2762 73.2999C86.3697 73.5116 86.5032 74.0806 86.61 74.5305C86.0759 74.5834 85.6087 74.6231 85.1948 74.6628C85.128 74.16 85.0479 73.2337 84.8877 72.6383ZM88.666 76.1713L88.6526 76.1448C88.3723 75.7346 88.2521 75.2186 88.2388 75.1259C88.2655 74.9804 88.2254 74.8613 88.132 74.7554C88.1186 74.7422 88.1053 74.7422 88.0919 74.729L88.0118 74.6628C87.9985 74.6628 87.1841 74.0012 87.1841 73.1676C87.1841 72.7971 87.0772 72.3207 86.9971 71.8576C86.8636 71.2092 86.7435 70.5476 86.8903 70.3491C87.0372 70.1506 87.3443 69.9521 87.5979 69.8065C87.8516 70.0447 88.0786 70.2829 88.1987 70.4682C88.2655 70.5476 88.3189 70.6402 88.3723 70.7196C88.7328 71.2356 89.0799 71.7385 89.8809 71.7914L90.0278 71.8046C90.682 71.8443 91.0291 71.884 91.6833 72.109C91.2561 72.1354 90.7888 72.2016 90.5752 72.4133C90.228 72.7706 89.7474 73.3263 89.654 73.9747C89.5872 74.3982 89.694 74.901 89.8142 75.4832L89.8409 75.5891C89.8676 75.7479 89.961 75.9199 90.0411 76.0654C89.7341 76.2772 89.4537 76.5286 89.2267 76.7535C88.7728 76.4889 88.6793 76.1845 88.666 76.1713ZM119.066 93.81C119.026 93.8232 118.986 93.8497 118.932 93.8497C118.906 93.8497 118.879 93.8497 118.852 93.8497H118.825C115.621 94.4716 114.567 94.0747 114.246 93.638C114.019 93.3204 114.153 92.9102 114.219 92.7514C114.3 92.7514 114.446 92.6323 115.141 90.3696C115.394 89.6683 114.713 88.7817 114.62 88.6759C114.513 88.4112 113.405 87.1806 113.058 86.7969C113.098 86.7439 113.138 86.6778 113.165 86.6513C113.178 86.6513 113.191 86.6513 113.205 86.6513C113.552 86.5984 114.647 86.3602 114.687 86.347C116.97 86.0691 118.919 86.0823 119.493 89.1655C119.466 89.3639 118.892 91.6796 119.066 93.81ZM71.0296 45.0753L69.9215 46.769C69.9081 46.7823 69.8013 46.9808 69.6544 47.2719C69.4942 47.2983 69.2673 47.3116 68.9735 47.1925C68.5997 47.0469 67.5584 46.0148 66.7173 45.1679C66.6104 45.0621 66.5303 44.9827 66.4369 44.8901C66.5837 44.8107 66.784 44.718 67.0644 44.6519C67.1578 44.6254 67.2379 44.6254 67.318 44.6122C67.9188 44.9959 68.7599 45.2473 69.9748 44.9959C70.0149 44.9959 70.7225 44.9297 71.1764 44.8636C71.123 44.9827 71.0429 45.0621 71.0296 45.0753ZM66.3835 43.6859C66.0764 43.7653 65.8094 43.9506 65.6225 44.1093C65.5691 44.0564 65.4756 43.977 65.4356 43.9506C64.3008 43.1831 62.8989 43.4742 62.1646 43.7124C61.9243 43.7918 61.5238 44.0167 61.0699 44.3078C60.8963 44.2946 60.696 44.2417 60.5225 44.0696L60.3489 43.8976C59.8015 43.3551 59.2541 42.8126 59.1073 42.7332C58.6267 42.4288 58.0392 42.2436 57.6654 42.1245L57.8523 41.9128L58.2395 41.3703C58.2395 41.357 58.8536 40.4704 59.4811 40.0338L59.6013 39.9676C60.0151 39.7691 60.4958 39.531 60.9497 39.531C60.9631 39.531 60.963 39.531 60.9764 39.531L63.4062 39.7162C63.4329 39.7162 65.0217 39.7294 65.3288 40.9865L66.1565 43.2095C66.1565 43.2228 66.2366 43.4213 66.3835 43.6859C66.3968 43.6859 66.3968 43.6859 66.3835 43.6859ZM56.9979 43.1037C57.5052 43.1566 58.1193 43.3286 58.7201 43.7653C59.0939 44.0432 59.7081 44.6651 60.0418 45.0091C59.174 45.6311 58.3196 46.3059 58.0259 46.597C57.839 46.7823 57.5986 47.0205 57.3717 47.2719C54.9819 46.8749 53.6068 47.9997 53.2329 48.3702C51.9646 49.6405 50.5628 49.6537 49.7484 49.3361C50.1889 48.9789 50.7897 48.5025 51.1368 48.2246C51.7643 47.735 52.3918 46.8749 52.9793 46.028C53.6068 45.1415 55.8497 43.5933 55.8497 43.5933L56.9979 43.1037ZM69.0937 89.7477C68.9869 89.7477 68.8667 89.7477 68.7599 89.7477C66.7974 89.7477 65.489 89.2581 64.8481 88.3054C63.8602 86.8233 64.8481 84.6797 64.8615 84.6532L65.4756 83.1712C65.5691 82.9066 65.7026 82.933 65.9563 82.9727C66.0364 82.986 66.1298 82.9992 66.2233 83.0124C66.25 83.0124 66.2767 83.0124 66.3034 83.0124C66.5704 83.0124 66.7306 82.9463 66.784 82.8139C66.9175 82.5228 66.5036 82.0729 66.4502 82.0332C66.1966 81.7686 65.9296 81.3187 65.9429 80.8556C65.9563 80.5512 66.0898 80.2601 66.3568 80.0219L66.3835 79.9954V79.969C66.3835 79.9028 66.3701 79.8499 66.3301 79.8102C66.2099 79.7043 65.9296 79.744 65.8895 79.744L65.8628 79.7573C65.0484 80.2866 64.6879 79.8631 64.6746 79.8499C64.5277 79.6249 64.4743 79.4 64.5144 79.2015C64.5811 78.8707 64.8882 78.6854 64.8882 78.6854L64.9015 78.6722C64.9015 78.6722 65.3421 78.2355 66.8908 78.6457C67.278 78.7516 68.1992 78.6457 68.2392 78.6457C68.9735 78.5134 68.9602 77.9312 68.9602 77.918V77.8783L68.9335 77.8518C68.5463 77.5739 68.3728 77.4284 68.2659 77.3357C68.1324 77.2167 68.079 77.177 67.8387 77.0711C67.7186 77.0314 67.6385 77.124 67.545 77.2431C67.3447 77.5078 66.9976 77.9312 66.023 77.2564C65.3021 76.5815 65.1419 76.5947 65.0084 76.608C64.8348 76.608 64.7013 76.6212 64.5945 76.6212C64.1672 76.6477 64.1138 76.6609 63.9403 76.0257L63.8735 72.7971L63.9002 71.9237L65.262 72.0957C65.9563 72.3339 66.3968 72.3207 66.5837 72.3075H66.5971C66.6772 72.3339 67.1178 72.2148 67.3981 71.9237C67.6518 71.6723 67.8921 71.2224 67.5851 70.4814L67.5183 70.3094L67.4515 70.4814C67.1044 71.3283 65.4089 71.143 65.2086 71.1166C63.7934 70.1109 61.8843 70.574 61.8175 70.6005C61.0966 70.7064 60.6293 70.6137 60.4157 70.3094C60.0685 69.8198 60.5358 68.9465 60.5358 68.9465L62.9123 65.2149C62.939 65.1752 65.5157 61.6025 66.8908 59.2868L66.9042 59.2604C67.1979 56.9183 67.5984 55.9126 67.6518 55.8067C68.6264 54.7349 68.9335 53.7822 68.9869 53.6102C70.362 49.1112 70.6023 48.1717 70.6023 48.1584C70.7759 47.4439 71.6838 45.9619 72.7251 45.7634C72.8186 45.7502 72.9387 45.7369 73.0989 45.7105C73.7665 45.6178 74.9013 45.4723 75.2618 45.5384C75.3552 45.5517 75.4754 45.5649 75.6089 45.5781C76.2764 45.6575 77.3846 45.7766 79 46.4647C80.5487 46.9278 79.5207 50.8049 79.5207 50.8314L77.2243 55.767C76.9974 56.2037 77.8518 56.9579 77.9319 57.0241C78.0655 57.2094 79.2136 58.6252 79.2804 58.6914C79.2937 58.7046 80.3751 59.6838 80.2149 61.5231C80.3484 62.7008 80.0681 63.1639 79.7877 63.6667C79.6675 63.8785 79.534 64.1034 79.4272 64.3813V64.4078C79.3605 65.4399 79.8678 67.385 79.8945 67.4777C79.8945 67.4909 79.9079 67.5306 79.9212 67.5438C79.4139 67.9276 78.5327 68.5098 77.0908 69.0655C76.7838 69.1846 76.4233 69.317 76.0628 69.4493C74.1537 70.1506 73.5529 70.402 73.5529 70.6005C73.5529 70.627 73.5662 70.6799 73.6196 70.7196C73.7531 70.8254 74.0869 70.8519 74.434 70.8519C74.8078 70.8519 75.2084 70.8122 75.422 70.7725C75.9293 70.6667 77.3579 70.2035 77.8518 70.005C78.2123 69.8727 79.5607 69.2905 80.2683 68.9861C80.3751 69.4757 80.4819 70.005 80.5754 70.4682C80.3217 70.6137 80.028 70.7725 79.761 70.8916C79.3071 71.0901 78.6529 71.4341 78.1589 71.6723C77.9319 71.7914 77.745 71.884 77.6249 71.937C77.3846 72.056 76.4634 72.6118 76.4366 72.7838C76.4233 72.8235 76.45 72.8632 76.4767 72.9029C76.5969 73.0352 76.9707 73.194 77.1976 73.194C77.211 73.194 77.2243 73.194 77.2377 73.194C77.3979 73.1808 78.012 72.9294 78.8665 72.5721C79.1335 72.4663 79.3738 72.3604 79.5607 72.281C79.9746 72.1222 80.4686 71.884 80.8024 71.7252C80.8024 71.7517 80.8157 71.8046 80.8157 71.8046C81.0293 74.8348 81.1762 75.4171 81.2696 75.5229C81.5233 75.814 83.2723 75.7743 86.6233 75.5758C88.0919 76.2639 88.3189 77.3622 88.4257 77.8386L88.1053 78.7251C87.6113 79.9558 85.6354 85.3413 85.622 85.381C85.5553 85.5001 85.5019 85.6457 85.4351 85.7912C85.128 86.5058 84.7542 87.3791 83.1655 87.6834C81.5233 88.3054 80.5354 88.57 78.5995 88.914C75.3819 89.6418 73.0722 89.6418 73.0455 89.6418L69.0937 89.7477ZM76.5301 90.9121C76.4901 90.8195 76.4767 90.793 76.4767 90.7004C76.4767 90.5284 77.2644 90.3431 77.9987 90.277C84.9812 89.0861 85.9825 87.2468 86.3563 86.5455C86.3964 86.4793 86.4231 86.4131 86.4631 86.3602C87.6647 84.2695 89.7608 78.1959 89.8809 77.865C89.9744 77.7724 90.6286 77.0182 91.1626 76.8726C91.8835 76.6609 92.5644 77.4019 92.5644 77.4019L92.5911 77.4151C92.9249 77.6004 94.3267 78.6987 94.3401 78.7119C94.8741 79.0956 96.0624 79.3735 96.1158 79.3868C96.4629 79.4662 97.5309 79.8631 98.1718 80.1013C98.4388 80.2072 98.6257 80.2733 98.6925 80.2998C98.8794 80.3527 99.7472 80.9217 99.8006 81.0805C99.8273 81.1467 99.8807 81.2128 99.9608 81.279C100.014 81.451 100.068 81.6627 100.054 81.8612L99.6137 82.2185L93.7794 86.4396C89.1466 89.9991 83.032 97.7135 82.9652 97.7929L79.534 102.054L79.0935 102.702L78.6395 100.347L77.1976 93.7703C76.8105 91.6267 76.6102 91.1238 76.5301 90.9121ZM119.787 100.85C119.453 100.572 118.959 100.148 118.398 99.5528C117.21 98.309 116.008 97.4092 114.633 96.7344C114.486 96.6682 114.353 96.5888 114.206 96.5226C112.924 95.9007 111.616 95.2656 111.229 94.2996C111.029 93.81 111.189 93.4924 111.376 93.0822C111.603 92.6059 111.856 92.0633 111.616 91.1238C111.336 90.0388 111.095 89.139 110.962 88.6097C111.563 88.345 111.83 88.1333 111.843 88.1069C112.017 88.001 112.203 87.8158 112.39 87.6305C112.564 87.9084 112.778 88.2392 112.858 88.398L112.871 88.4244C112.884 88.4377 113.899 89.3639 114.073 90.0388C113.966 90.3564 112.964 92.844 112.951 92.8705C112.711 93.8365 112.738 94.4849 113.058 94.8157C113.272 95.0406 113.645 95.12 114.099 95.0142L119.987 95.3582C121.002 96.9725 121.028 98.3222 120.975 98.8912C120.975 98.9177 120.975 98.9309 120.975 98.9442C120.975 99.0103 120.975 99.2485 120.121 100.307C120.107 100.334 119.974 100.558 119.787 100.85Z" fill="#00376C"/>
<path id="Vector_35" d="M51.3229 71.3533C51.3778 70.9338 51.3504 70.3924 51.3367 70.0405C51.3367 69.9052 51.3229 69.7834 51.3229 69.7428C51.3367 69.621 51.3915 69.4721 51.4874 69.4315C51.5834 69.3773 51.7479 69.3638 51.9946 69.3773L52.159 69.3909C52.3646 69.4044 52.5977 69.4179 52.8307 69.445C53.1048 69.4856 53.6805 69.5804 53.845 69.621C53.9135 69.648 54.0231 69.7022 54.1191 69.7563C54.2424 69.824 54.3795 69.9052 54.5303 69.9593C54.5988 69.9864 54.6947 70.0134 54.8044 70.054C55.1334 70.1623 55.6268 70.3383 55.7913 70.4465C55.9969 70.5954 56.5314 71.2044 56.6274 71.3263C56.7233 71.4751 56.9426 71.7458 57.0386 71.8405C57.1482 71.9488 57.3812 72.0977 57.6279 72.1654C57.8747 72.233 58.2036 72.1654 58.2173 72.1654L58.3407 72.1383L58.2584 72.0436C58.1899 71.9624 57.6965 71.2044 57.3127 70.6089C56.9152 69.9999 56.6685 69.621 56.6274 69.5668C56.5314 69.4586 56.3532 69.3638 56.0654 69.2826C55.9558 69.2555 55.7776 69.2014 55.5994 69.1473C55.4623 69.1067 55.3253 69.0525 55.2156 69.0255C55.0922 68.9849 54.8866 68.8901 54.6536 68.7818C54.4617 68.7006 54.2699 68.6059 54.1054 68.5382C54.0231 68.5112 53.9272 68.457 53.8038 68.4164C53.4201 68.254 52.9129 68.0239 52.5017 67.9833C51.9946 67.9292 50.2264 68.051 50.0345 68.1322C49.8564 68.2134 49.7467 68.3894 49.7604 68.5518C49.7604 68.6465 49.8289 68.8224 49.9386 69.1202C49.9797 69.2149 50.0071 69.3097 50.0345 69.3909C50.0345 69.3909 50.1442 69.7157 50.1853 69.9728C50.2127 70.2435 50.2264 71.042 50.1853 71.4751C50.1442 71.8676 50.0757 72.0436 49.9797 72.2601L49.9523 72.3278C49.8975 72.4631 49.7056 72.7203 49.5548 72.9233C49.3218 73.2346 49.3081 73.2752 49.3218 73.3293L49.3492 73.3699L49.3903 73.3834C49.404 73.3834 49.4315 73.3834 49.4589 73.3834C49.733 73.3834 50.5554 73.3022 50.7062 73.1669C50.8981 73.0315 51.2407 71.9353 51.3229 71.3533Z" fill="#00376C"/>
<path id="Vector_36" d="M55.5775 72.3471C55.5512 72.3203 55.4986 72.2667 55.4459 72.213C55.275 72.0387 55.1303 71.918 55.0646 71.8778C55.0251 71.851 54.9331 71.7705 54.8542 71.7035C54.7753 71.6364 54.7095 71.5694 54.6569 71.5426C54.5912 71.4889 54.4728 71.4085 54.3939 71.3548L54.3019 71.2878C54.3019 71.2878 53.8942 71.0062 53.8021 70.9794L53.7758 70.966C53.6969 70.9392 53.4602 70.8319 53.4076 70.8185C53.3945 70.8051 53.355 70.7782 53.3156 70.738C53.2498 70.6844 53.1841 70.6173 53.1183 70.5771C53.0263 70.5235 52.395 70.3894 52.2635 70.376C52.1057 70.376 51.8164 70.5905 51.7507 70.671C51.7112 70.738 51.7244 70.8453 51.7375 70.9257C51.7507 70.9794 51.8033 71.1537 51.9085 71.2073C51.9611 71.2342 52.0926 71.2878 52.2241 71.3414C52.1715 71.5292 52.0926 71.7974 52.0794 71.9985C52.0531 72.2801 52.04 72.6019 52.0794 72.7896C52.1189 72.9774 52.3293 73.3126 52.4608 73.4601C52.5923 73.6076 52.8685 73.6881 52.8816 73.6881C52.8816 73.6881 52.9079 73.6881 52.9211 73.6881C52.9737 73.6881 53.0394 73.6747 53.1052 73.621C53.1841 73.5406 53.1972 73.4199 53.1709 73.2456C53.1052 72.8969 53.1052 72.7762 53.092 72.5617V72.441C53.0789 72.2667 53.2104 72.0253 53.3287 71.8242C53.3945 71.851 53.4865 71.8912 53.526 71.918C53.7101 72.0387 54.1835 72.4142 54.315 72.5483C54.3545 72.5885 54.4202 72.6287 54.4728 72.669C54.6569 72.7762 54.7621 72.8567 54.7095 73.0578C54.6306 73.3931 54.4202 73.5406 54.223 73.6344C54.0257 73.7283 53.7364 73.849 53.5523 73.9026C53.355 73.9697 52.8685 74.0367 52.7238 74.0501C52.5265 74.0769 52.1846 74.1038 52.1846 74.1038H52.1583C52.1057 74.1306 51.9216 74.211 51.9085 74.3451C51.8953 74.4926 52.0663 74.5731 52.0794 74.5731L52.737 74.5865C52.737 74.5865 52.9605 74.5597 53.1315 74.5597C53.1841 74.5731 53.263 74.5597 53.3419 74.5597C53.4997 74.5597 53.6838 74.5731 53.789 74.5597C53.9731 74.5329 54.315 74.4256 54.486 74.3451C54.6964 74.2647 55.5775 73.7551 55.6695 73.6881C55.7616 73.6076 55.8668 73.4601 55.9062 73.3662C55.9588 73.259 55.9325 73.0444 55.8799 72.9103C55.9062 72.7896 55.6827 72.4544 55.5775 72.3471Z" fill="#00376C"/>
<path id="Vector_37" d="M68.9591 58.9795C68.9726 58.9795 68.986 58.9795 69.0129 58.9795C69.3622 58.9795 70.6521 59.3023 71.2299 59.4847C71.7808 59.6532 72.0092 59.7514 72.1704 59.8637C72.3182 59.976 72.9632 60.5795 73.3663 61.0005C73.5275 61.1689 73.6753 61.2532 73.8097 61.3233C73.9843 61.4216 74.1053 61.4918 74.1321 61.7304C74.1456 61.7865 74.1724 61.8707 74.3471 61.9268C74.4143 61.9409 74.4815 61.9549 74.5487 61.9549C74.7636 61.9549 75.0055 61.8847 75.113 61.7444C75.1936 61.6461 75.2071 61.5339 75.1399 61.4075C75.0458 61.197 75.0189 61.1549 74.9518 61.1268C74.9249 61.1128 74.8577 61.0707 74.6427 60.7619C74.4143 60.4391 74.159 60.2146 73.8634 59.9479C73.7559 59.8637 73.6484 59.7654 73.5409 59.6532C73.0035 59.1619 72.7751 58.9795 72.5063 58.8251C72.4795 58.8111 72.4392 58.783 72.3854 58.7549C71.9554 58.4882 70.8268 57.7865 69.3622 57.7444H69.3488C68.9995 57.7444 68.1261 58.3198 68.0186 58.376L67.9648 58.404L68.153 58.9514L68.1933 58.9654C68.2336 58.9514 68.6635 59.0216 68.9591 58.9795Z" fill="#00376C"/>
<path id="Vector_38" d="M74.4252 63.4252C74.4991 63.4252 74.5607 63.4417 74.6593 63.4252C74.8318 63.4088 74.8688 63.3267 74.9057 63.2282C74.9304 63.1626 74.9674 63.0805 75.1152 62.982C75.1891 62.9328 75.1892 62.8507 75.1768 62.8179C75.0906 62.5716 73.6736 62.4731 73.4148 62.6373C73.2916 62.7029 73.0451 62.785 72.7987 62.8507C72.4537 62.9492 72.0964 63.0477 71.9362 63.1954C71.8622 63.2611 71.739 63.3267 71.6035 63.3924C71.2954 63.5401 70.9381 63.7207 70.9751 64.0983C70.9874 64.1803 71.012 64.246 71.0613 64.2953C71.1106 64.3281 71.1722 64.3609 71.2585 64.3609C71.4926 64.3609 71.8499 64.1968 72.2565 64.0162C72.3551 63.9669 72.4537 63.9177 72.5276 63.9013C72.7617 63.8028 72.8357 63.7864 72.9958 63.7535C73.1191 63.7207 73.3039 63.6879 73.6366 63.5894C74.1295 63.3924 74.2773 63.4088 74.4252 63.4252Z" fill="#00376C"/>
<path id="Vector_39" d="M71.2463 60.7384C71.6674 60.8497 72.4177 61.3568 72.6151 61.567C72.6019 61.5794 72.5888 61.5794 72.5756 61.5917C72.4308 61.6783 72.1149 61.8267 71.8254 61.9628C71.1673 62.2719 70.983 62.3709 70.9567 62.4451L70.9436 62.4822L70.9567 62.5069C70.9699 62.5193 70.9831 62.544 71.0225 62.5564C71.0357 62.5564 71.0488 62.5564 71.0752 62.5564C71.4042 62.5564 72.6546 62.2101 72.9046 62.0741C73.181 61.9133 73.3521 61.5917 73.3653 61.5794L73.3784 61.5546L73.2995 61.1713L73.2863 61.1836C73.2205 61.0476 73.1284 60.8992 72.9968 60.7384C72.7599 60.4416 71.4963 59.7985 71.0883 59.7367C71.062 59.7367 68.9167 59.4028 68.6798 59.6254C68.4692 59.8109 68.614 60.3179 68.6271 60.3798L68.6403 60.4292H68.7061C68.7061 60.4292 68.7324 60.4292 68.7719 60.4292C68.8772 60.4292 69.1404 60.4416 69.4563 60.454C69.4563 60.6642 69.4563 60.9239 69.4826 61.0971C69.4958 61.1465 69.4958 61.196 69.509 61.2455C69.5353 61.4557 69.5616 61.6165 69.7327 61.8762C69.759 61.9133 69.7853 61.9504 69.8117 61.9875C69.9038 62.1235 69.9696 62.2348 70.167 62.2348C70.2065 62.2348 70.246 62.2348 70.2986 62.2225C70.5487 62.173 70.5356 61.9133 70.5224 61.6412C70.5224 61.4928 70.5092 61.3444 70.5356 61.2084C70.6014 60.9363 70.7198 60.7632 70.8383 60.6271C70.9567 60.6766 71.0883 60.7013 71.2463 60.7384Z" fill="#00376C"/>
</g>
</svg>
