<?xml version="1.0" encoding="utf-8"?>
<!-- Generator: Adobe Illustrator 19.2.1, SVG Export Plug-In . SVG Version: 6.00 Build 0)  -->
<svg version="1.1" id="layer" xmlns="http://www.w3.org/2000/svg" xmlns:xlink="http://www.w3.org/1999/xlink" x="0px" y="0px"
	 viewBox="0 250 652 150" style="enable-background:new 0 0 652 652;" xml:space="preserve">
<style type="text/css">
	.st0{fill:#FFFFFF;}
	.st1{fill-rule:evenodd;clip-rule:evenodd;fill:#004E96;}
	.st2{fill:#004E96;}
	.st3{fill:none;stroke:#004E96;stroke-width:0.1779;stroke-miterlimit:3.864;}
	.st4{fill:none;stroke:#004E96;stroke-width:0;stroke-miterlimit:3.864;}
</style>
<g>
	<g>
		<g>
			<g>
				<path class="st0" d="M501.5,320.8c0-32.9,26.6-59.5,59.5-59.5s59.5,26.6,59.5,59.5c0,32.9-26.6,59.5-59.5,59.5
					S501.5,353.7,501.5,320.8"/>
				<path class="st1" d="M553.6,309.8c0,0-0.1,0-0.1,0c0,0-0.1,0-0.1-0.1l0.1-0.1l0.2-0.1l0.2-0.1l0.2-0.1l0.2-0.1l0.3-0.1l0.3-0.1
					l0.2-0.1l0.2-0.1l0.2-0.1l0.1-0.1l0-0.1l0-0.1l-0.1-0.1l-0.1,0c0,0-0.1,0-0.2,0c-0.1,0-0.2,0.1-0.2,0.1s-0.3,0.1-0.3,0.1
					l-0.3,0.2l-0.2,0.1l-0.2,0.1l-0.3,0c0,0-0.2,0-0.2,0c0,0-0.3,0-0.3,0c0,0-0.2,0-0.2-0.1c0,0,0-0.2,0-0.1c0,0,0.1-0.1,0.2,0
					c0,0,0.1,0,0.1,0l0.1,0h0.2h0.2l0.3-0.1c0,0,0.1,0,0.1-0.1l0-0.2l0-0.2l-0.1-0.1l-0.1-0.1l-0.2-0.1c0,0-0.1-0.1-0.2-0.1
					c0,0-0.2-0.1-0.2-0.1l-0.2,0c0,0-0.5,0-0.6,0.2l-0.1,0l0-0.4l0.1-0.3l0.3,0l0.4,0.1l0.2,0.1l0.2,0.1l0.3,0.1l0.2,0.1l0.2,0.1
					l0.3,0l0.1,0l0-0.1l-0.1-0.2l-0.1-0.2L554,307l-0.3-0.2l-0.1-0.1l-0.1-0.1l-0.2,0l-0.2,0h-0.3c0,0-0.2,0-0.2,0
					c0,0-0.1-0.1-0.1-0.1l0-0.2l0-0.2l0.2-0.1l0.2-0.1l0.3,0h0.4h0.5l0.2,0l0.3,0.1l0.2,0.1l0.4,0.2l0.2,0.2l0.4,0.4l0.3,0.4
					l0.3,0.4l0.4,0.4l0.3,0.5c0,0,0.1,0.1,0.1,0.2c0,0,0.1,0.2,0,0.2l0,0.2c0,0-0.1,0.1-0.3,0.2l-0.3,0h-0.5h-0.4c0,0-0.3,0-0.4,0
					l-0.3,0.1l-0.3,0.1l-0.2,0.1l-0.4,0.1l-0.4,0.1L553.6,309.8z M553.1,306.1L553.1,306.1l0.1,0.2l0.9,0.2l0.9,0.7l0.5,0.6l0.5,0.3
					c0,0,0.3-0.2,0.1-0.5l-0.3-0.3l-0.6-0.7l-0.4-0.2l-0.4-0.2l-0.5-0.1l-0.5,0L553.1,306.1z"/>
				<path class="st2" d="M581.7,342.9c0.2-0.3,0.2-1,2.7-1.2c0.6,0,0.8,0.7,0.4,0.7c-0.2,0-0.3,0-0.3,0c-0.5,0-0.4,0.3-0.4,0.3
					s0.2,0.4,1,0.4c0.1,0,0.4,0,0.5,0c1.1-0.3,0.3-1.1,0.3-1.1c-0.2-0.3-0.9-0.5-0.9-0.5l-0.3-0.1l-0.5,0l-0.8,0.1
					c-1.3,0.3-1.9,0.2-1.9,0.2L581.7,342.9z"/>
				<path class="st2" d="M580.1,339.4l0.6,0.3c0,0,1.2,0.9,2.5,0.7c0.1,0,2.4-0.2,3.4,0.8c0-0.2,0-0.6,0-0.7
					c-0.3-0.7-1.9-0.7-1.9-0.7c-1.7,0.4-3-0.2-3-0.2s-1-0.7-1.1-0.8c-0.1,0-0.8-0.3-0.8-0.3L580.1,339.4z"/>
				<path class="st1" d="M587.5,340.5l-0.9-1.3c-0.4-0.5-1.6-0.5-1.6-0.5l-0.7,0c0,0-1.1,0.1-1.2,0.1c-1.2,0.1-2.4-0.4-2.4-0.4
					l-0.4-0.1c0,0-0.1-0.5-0.1-0.6s0-0.6,0-0.6c0.2,0.8,1,0.7,1,0.7c0.2,0.1,0.4,0,0.4,0l1.2,0.1l1.8-0.1c0,0,0.7,0.1,0.8,0.1
					c1.4,0.1,1.9,1.6,1.9,1.6L587.5,340.5z"/>
				<polygon class="st2" points="587.6,336 587,335.3 586.6,334.9 586.1,334.5 585.6,334.3 585.1,334 584.5,333.7 583.7,333.2 
					583,332.8 582.3,332.3 581.8,332 581.5,331.7 581.5,331 581.6,330.2 581.8,329.6 581.9,329.1 582,328.6 582.1,328 582.1,327.6 
					582,327.1 581.9,326.6 582.3,326.3 582.6,326.8 582.7,327.2 582.7,327.6 582.7,328.1 582.7,328.7 582.6,329.2 582.4,329.7 
					582.2,330.2 582.1,330.6 582,331.2 582.1,331.6 582.5,332 583.1,332.2 584,332.5 584.8,332.8 585.4,333 586,333.4 586.5,333.7 
					587,334.1 587.5,334.6 588.1,335.2 588,335.5 				"/>
				<path class="st2" d="M588.5,333.9c-0.4-0.8-1.7-0.8-1.7-0.8c-0.1,0-0.2-0.2-0.2-0.2s0-0.1,0.1-0.1c0.6-0.1,1.7,0.4,1.7,0.4
					l0.1,0.3L588.5,333.9z"/>
				<path class="st3" d="M588.5,333.9c-0.4-0.8-1.7-0.8-1.7-0.8c-0.1,0-0.2-0.2-0.2-0.2s0-0.1,0.1-0.1c0.6-0.1,1.7,0.4,1.7,0.4
					l0.1,0.3L588.5,333.9z"/>
				<path class="st2" d="M582.9,327.1c0,0,0.7,0.7,0.8,1.2c0,0.1-0.8,2-0.8,2c-0.3,1.1,0,1.6,0.7,1.4l4.2,0.3l-0.4-1.2
					c0,0-0.2,0.2-0.6,0.2c-4.2,0.8-3.2-0.9-3.2-0.9c0,0.3,0.6-1.6,0.6-1.6c0.2-0.5-0.4-1.1-0.4-1.1c0-0.1-1.1-1.3-1.1-1.3l-0.5,0.3
					C582.4,326.3,582.8,327,582.9,327.1"/>
				<path class="st2" d="M584.9,330.4c0.4-0.5,0.7-0.9,0.8-1.2c0.5-1.2-0.9-1.8-0.9-1.8c-0.2-0.1-0.8-0.1-0.8-0.1l-0.7-0.4
					c0.1,0.1-0.3-0.4-0.3-0.4s1.8,0.1,2.3,0.3c1.4,1,1.6,1.9,0.6,2.9l-0.3,0.7l-0.3,0.9l-0.6,0L584.9,330.4z"/>
				<path class="st2" d="M585.4,337.6v-0.3l0.2-0.9l0.1-0.6l0-0.2v-0.2l0.2,0.1l0.1,0.3l0.1,0.3v0.2l0,0.2l-0.1,0.4
					c0,0-0.2,0.2-0.1,0.8c0,0.1,0.1,0.3,0.1,0.3l-0.2,0c0,0-0.1-0.1-0.2-0.1C585.5,337.7,585.4,337.6,585.4,337.6"/>
				<path class="st1" d="M584.5,338l-0.2-0.1l-0.2-0.3l-0.1-0.2v-0.2l0.1-0.2l0.1-0.4l0.1-0.4l0-0.5l-0.1-0.4l-0.2-0.4l-0.3-0.2
					l-0.4-0.3l-0.5-0.3l-0.6-0.3l-0.3-0.2l-0.5-0.3l-0.7-0.5l-0.3-0.4l-0.2-0.4l-0.1-0.5l0-0.5l0.1-0.4l0.2-0.4l0.2-0.4l0.1-0.3
					l0-0.7l0-0.2l-0.1-0.5l-0.1-0.3l-0.1-0.2c0,0-0.2-0.6-0.1-0.7c0.1-0.1,0.6-0.2,0.6-0.2c-0.4-0.1,0.7,0.1,0.5,0.3
					c0.1,0.1,0,0.5,0,0.5v0.4l-0.1,0.5l-0.1,0.4l-0.1,0.5l-0.1,0.3l-0.1,0.4l-0.1,0.3l-0.1,0.3l-0.1,0.5l0,0.5l0.1,0.5l0.2,0.4
					l0.3,0.3l0.4,0.2l0.6,0.3l0.6,0.2c0,0,0.3,0.1,0.4,0.2c0.1,0.1,0.7,0.3,0.7,0.3l0.3,0.2l0.3,0.4l0.2,0.3l0.1,0.4l0,0.7l-0.1,0.7
					v0.3v0.3l0.1,0.4l-0.1,0.2L584.5,338z"/>
				<path class="st2" d="M577.7,327.8v0.4l-0.1,0.9l-0.7,2.1c-0.1,0.7-0.1,1.3,0.2,1.7l0.6,1.1l0.2,0.4c0,0,0.5,1.6-0.2,1.9
					c-1,1.1-1.3-0.2-1.3-0.2l-0.5-1l-0.3-1.1c-0.1-0.3-0.6-1-0.6-1l-0.3-0.4l-0.3-0.2l-0.4-0.5l-0.3-0.2l-0.2-0.1
					c0,0-0.2-0.1-0.3-0.1c-0.1,0-0.3,0.1-0.3,0.1s-0.2,0.2-0.1,0.2c0,0.1,0.1,0.3,0.1,0.3l0.2,0.1l0.5,0.2l0.4,0.3l0.5,0.6l0.3,0.5
					l0.4,1l0.2,0.7l0.3,0.7l0.5,0.8c0.5,0.6,1.5,0.2,1.5,0.2c0.1,0,0.4-0.3,0.4-0.3s0.3,0.1,0.4-0.1c0.1-0.1,0.1-0.9,0.1-0.9l0-0.6
					l0-0.4c0-0.2-0.2-1-0.2-1l-0.8-1.4c-0.4-0.9,0-1.9,0-1.9l0.5-1.3l0.2-0.5l0.2-0.9v-0.2c-0.2-0.5-0.7-0.2-0.8-0.2
					C577.7,327.5,577.7,327.8,577.7,327.8"/>
				<path class="st1" d="M578.6,336.8l-0.1,0.4l-0.1,0.3l-0.2,0.2l-0.2,0.2l-0.4,0.3c-1,0.5-1.7,0.1-1.7,0.1c0,0-0.6-0.4-0.6-0.4
					l-1.4-2l-0.5-0.8l-0.8-1c-1.2-0.9-1.8,0.2-1.8,0.2l-0.2,0.3l0.7-1.5c0.9,0.1,2,0.8,2,0.8l2.1,3.2l0.6,0.7
					c0.8,0.2,1.2-0.2,1.2-0.2s0.1-0.1,0.3-0.3c0.1-0.1,0.5-0.2,0.5-0.2s0.2-0.2,0.3-0.2C578.2,336.9,578.6,336.8,578.6,336.8"/>
				<path class="st2" d="M575.8,327.1l0,0.5c0.2,0.3,0.2,0.4,0.2,0.4c0,0-0.2,0.2-0.2,0.2l-0.4,0.4l-0.3,0.6l-0.2,0.5l-0.1,0.5
					c0,0.8,0.5,1.8,0.5,1.8l0.6,1c0.5,0.9,0.3,1.7,0.3,1.7l-0.1,0.6l0.4,0.7l0.1,0.2c0,0,0.1-0.4,0.1-0.4c0-0.1,0.1-1.5,0.1-1.5
					c0.1-0.5-0.2-1.2-0.2-1.2c-1-1.4-1.1-2-1.1-2c-0.2-0.8-0.1-1.2,0.1-1.5l0.5-0.7l0.3-0.3l0.3-0.3c0,0,0.1-0.1,0.2-0.2
					c0.1-0.1,0.2-0.3,0.2-0.3l0.1-0.2c0,0,0-0.3-0.2-0.3c-0.2-0.1-0.4-0.2-0.4-0.2l-0.4-0.2L575.8,327.1z"/>
				<path class="st1" d="M575.4,339.7c0,0-0.2-0.1-0.2-0.1l-0.4,0c-0.5-0.2-0.9,0-0.9,0l-0.9,0.7l-0.5,0.4l-0.3,0.4
					c-0.3,0.3-0.5,0.1-0.5,0.1l-0.6-0.4l0.2-0.1l0.4,0l0.9-0.6l0.9-0.8l0.2-0.2c0-1-0.7-0.7-0.7-0.7l-0.2,0.1l-0.2,0.3
					c0,0-0.2,0.1-0.3,0c-0.1-0.1-0.1-0.3-0.1-0.3s0.1-0.4,0.5-0.6c0.4-0.1,0.7-0.1,0.7-0.1l0-0.2c-0.2-0.6-1.1-0.6-1.1-0.6
					c-1.3,0.1-1.2,0.8-1.2,0.8l-0.1,0.4l-0.5-1.3l0.6,0c0,0,0.7-0.2,0.8-0.2s0.2,0,0.7,0c0.5,0,1.2,0.9,1.2,0.9l0.6,1.3
					c0,0.2,0.2,0.3,0.2,0.3l0.6,0.3C575.1,339.4,575.4,339.7,575.4,339.7"/>
				<path class="st2" d="M578.7,338.7c0.9-2.1,1.3-2.1,1-4.6c0-0.1-1.4-1.9-1.4-1.9c-0.1-0.2-0.1-0.8-0.1-0.8
					c0.1-0.8,0.6-1.5,0.6-1.5c0.2-0.2,0.3-0.7,0.3-0.7l0.1-1.1v-0.2l0.6-0.2c0,0-0.1,2.4-0.4,2.6c-0.6,1-0.6,1.8-0.2,2.4l0.6,0.8
					c0.1,0.1,0.3,0.1,0.3,0.1l1,0.8l1.1,1l0.7,0.8c0.5,0.9,0.3,1.6,0.3,1.6c-0.1,0-0.4,0-0.4,0l0-0.7c0-0.5-0.5-0.9-0.5-0.9
					l-0.9-0.9l-1.1-0.9l-0.2-0.1l0,0.3l0.1,0.2l0.3,0.3l1.5,2.1l0.4,0.6l-1,0l-0.1-0.4c-0.1-0.8-1.1-1.8-1.1-1.8l-0.1,0.5l-0.1,1.3
					l0.1,0.7c0,0,0,1,0,0.9C580.4,338.8,578.7,338.7,578.7,338.7"/>
				<path class="st2" d="M575.8,327.6l0.3,0.3c4.8,0.3,5.9-1,5.9-1c0.4-0.2,0.9-1,0.9-1l0.5-0.2l-0.1-0.7l-0.6,0.2l-0.5,0.1
					l-0.3-0.1l-0.1,0.6c-0.2,0.8-4.2,1.5-4.2,1.5l-0.6,0h-0.5l-0.4,0.1L575.8,327.6z"/>
				<path class="st2" d="M576.4,327.2c0,0,0-0.3,0.1-0.4c0-0.1,0.2-0.2,0.2-0.2c2.2,0,5.4-1.1,5.4-1.1c0.5-0.1,0.5-0.2,0.5-0.2
					c0.4-0.6,0.1-0.7,0.1-0.7l-0.7,0.2c-2.3,1.3-5.8,1.4-5.8,1.4l-0.1,0.3l0,0.4L576.4,327.2z"/>
				<path class="st2" d="M576,326c-0.1-0.3,0.3-0.3,0.3-0.3c1.6,0,4.4-1,4.5-1.1c0.1,0,1-0.4,1-0.4c0.3-0.3,0.7-0.2,0.7-0.2l0-0.6
					l-0.2-0.5c0,0-0.1-0.2-0.1-0.2s-0.6,0.8-0.6,0.8c-0.8,0.8-3.7,1.4-3.7,1.4l-0.6,0.1h-0.9c-0.4,0-0.5-0.7-0.5-0.7l-0.4,0.4
					l0.2,0.7L576,326z"/>
				<path class="st1" d="M582.3,323c0-0.5-0.9-0.2-0.9-0.2c-1.5,1.1-4,1.6-4,1.6c-1.3-0.1-1.5,0.4-1.5,0.4c-0.5-0.1-0.6-0.3-0.6-0.3
					s-0.1-1.1-0.1-1.1s-0.1-0.3-0.1-0.3l0.3,0.1l0.6,0.7c2.1,0.1,2.9-1.1,2.9-1.1c1.1-0.4,1.5-0.6,1.8-0.9c0.1-0.2,0.3-0.1,0.3-0.2
					c0.1,0,1.1,0,1.1,0L582.3,323z"/>
				<path class="st1" d="M566.7,320.3c0,0,0.7-0.5,0.7-0.6c0.1-0.1,0.2-0.3,0.3-0.3c0.1-0.1,0.3-0.3,0.3-0.3c0.2,0,0.8,0,0.8,0
					c0,0,0.1,0.2,0.2,0.3c0.1,0.1,0.4,0.3,0.4,0.3l0.4,0.3c0,0,0.4,0.3,0.4,0.3s0.5,0.1,0.5,0.1l0.4,0.1l0.4,0.2l0.5,0.2l0.4,0.2
					l0.2,0.2l0.2,0.2l0.6,0.5l0.4,0.2l0.3,0.2c0.2,0.5,1.2,0.7,1.2,0.7l-0.3-0.4l-0.1-0.4l0-0.5c0,0-0.1-0.3-0.1-0.4
					s-0.1-0.3-0.1-0.3l-0.4-0.3l-0.4-0.2l-0.7-0.1l-0.3-0.2l-0.5-0.3c0,0-0.5-0.2-0.5-0.2h-0.4l-0.4-0.1c-1-0.5-1.6-1.2-1.6-1.2
					l-0.3-0.3l-0.3-0.1l-0.3,0l-0.5,0c0,0-0.2,0-1.2,0.7c-0.3,0.3-0.7,0.1-0.7,0.1c0-0.1,0.1,0.6,0.1,0.6l0.3,0.6L566.7,320.3z"/>
				<path class="st2" d="M578.9,322.8c0-0.2-0.5-0.3-0.5-0.3l-1,0l-0.8-0.1l-0.4-0.1l-0.3-0.1l-0.3-0.2l-0.3-0.2l-0.6-0.5l-0.3-0.1
					l-0.4-0.2l-0.3-0.3l0.5,0c0,0,0.6,0,0.6,0s0.5,0,0.5,0s0.4,0.1,0.5,0.1s0.4,0.1,0.4,0.1l0.5,0.3l0.7,0.3
					c0.7,0.4,1.3-0.1,1.3-0.1l0.3,0.1c0.2,0.9,1.3,0.7,1.3,0.7C580.3,322.3,578.9,322.8,578.9,322.8"/>
				<path class="st2" d="M571.7,304.4l-0.3-0.1l-0.3-0.2l-0.2-0.2l-0.3-0.1l-0.3-0.1l-0.3-0.2l-0.5-0.3l-0.3-0.4l-0.3-0.4l-0.4-0.7
					l-0.2-0.6l-0.1-0.3v-0.2l0.1-0.1c0.2,0,0.4,0.1,0.4,0.1c0.3,0.1,0.7,0.5,0.7,0.5l0.3,0.3l0.3,0.1l0.6,0.2l0.4,0.1l0.9,0.2
					c0.6,0.1,1,0.4,1,0.4c0.9,0.6,1.1,1.4,1.1,1.4l0.1,0.7l0.1,0.6l0,0.5l-0.1,0.7l0.1,0.4l0.1,0.4l0.1,0.3c0,0.2,0,0.3,0,0.4
					c-0.1,0-0.3-0.1-0.3-0.1c-0.1-0.1-0.3-0.3-0.3-0.3l-0.2-0.3l-0.1-0.4l0-0.7l-0.1-0.5v-0.8c0.1-0.7-0.5-1.5-0.5-1.5l-0.4-0.3
					l-0.5-0.2l-0.4-0.1l-0.8-0.2l-0.7-0.1l-0.7-0.3l-0.3-0.2c-0.4,0-0.2,0.3-0.2,0.3l0.1,0.3l0.2,0.3c0.5,0.4,0.8,0.4,0.8,0.4
					s0.9,0,1,0.1c0.1,0,0.3,0.1,0.3,0.1l0.3,0.1l0.3,0.2l0.2,0.3l0,0.3C572.1,304.6,571.7,304.4,571.7,304.4"/>
				<path class="st3" d="M571.7,304.4l-0.3-0.1l-0.3-0.2l-0.2-0.2l-0.3-0.1l-0.3-0.1l-0.3-0.2l-0.5-0.3l-0.3-0.4l-0.3-0.4l-0.4-0.7
					l-0.2-0.6l-0.1-0.3v-0.2l0.1-0.1c0.2,0,0.4,0.1,0.4,0.1c0.3,0.1,0.7,0.5,0.7,0.5l0.3,0.3l0.3,0.1l0.6,0.2l0.4,0.1l0.9,0.2
					c0.6,0.1,1,0.4,1,0.4c0.9,0.6,1.1,1.4,1.1,1.4l0.1,0.7l0.1,0.6l0,0.5l-0.1,0.7l0.1,0.4l0.1,0.4l0.1,0.3c0,0.2,0,0.3,0,0.4
					c-0.1,0-0.3-0.1-0.3-0.1c-0.1-0.1-0.3-0.3-0.3-0.3l-0.2-0.3l-0.1-0.4l0-0.7l-0.1-0.5v-0.8c0.1-0.7-0.5-1.5-0.5-1.5l-0.4-0.3
					l-0.5-0.2l-0.4-0.1l-0.8-0.2l-0.7-0.1l-0.7-0.3l-0.3-0.2c-0.4,0-0.2,0.3-0.2,0.3l0.1,0.3l0.2,0.3c0.5,0.4,0.8,0.4,0.8,0.4
					s0.9,0,1,0.1c0.1,0,0.3,0.1,0.3,0.1l0.3,0.1l0.3,0.2l0.2,0.3l0,0.3C572.1,304.6,571.7,304.4,571.7,304.4z"/>
				<path class="st2" d="M575.7,317.4c-0.1,0.2,0.1,0.4,0.3,0.4c0,0,0.5,0.1,0.5,0.1c0.1,0,0.3-0.2,0.3-0.3c0-0.1-0.2-0.2-0.2-0.2
					C576.2,317.2,575.7,317.4,575.7,317.4"/>
				<path class="st3" d="M575.7,317.4c-0.1,0.2,0.1,0.4,0.3,0.4c0,0,0.5,0.1,0.5,0.1c0.1,0,0.3-0.2,0.3-0.3c0-0.1-0.2-0.2-0.2-0.2
					C576.2,317.2,575.7,317.4,575.7,317.4z"/>
				<path class="st2" d="M562.7,310.6c-0.1,0-0.3-0.1-0.3-0.1c-0.2-0.3-0.1-0.5-0.1-0.5c0,0,0.1-0.2,0.2-0.2c0.1,0,0.2-0.1,0.3-0.1
					c0.3-0.1,0.5,0,0.7,0.1c0.1,0,0.3,0.1,0.3,0.1l0.3,0.2c0.2,0.2,0.2,0.3,0.2,0.3c0,0,0,0.8-0.1,0.9c-0.3,0.4-0.6,0.7-1,0.7
					l-1.3,0.3l-0.4,0.1l-0.2,0.3l-0.2,0.6c0,0-0.2-1.3-0.3-1.3c-0.1,0-0.2-0.8-0.2-0.8l0.9,0.7c1.4,0,2.1-0.7,2.1-0.7l0.1-0.4
					c0-0.2,0-0.3,0-0.3c0,0-0.2-0.3-0.7-0.1C562.9,310.6,562.7,310.6,562.7,310.6"/>
				<path class="st3" d="M562.7,310.6c-0.1,0-0.3-0.1-0.3-0.1c-0.2-0.3-0.1-0.5-0.1-0.5c0,0,0.1-0.2,0.2-0.2c0.1,0,0.2-0.1,0.3-0.1
					c0.3-0.1,0.5,0,0.7,0.1c0.1,0,0.3,0.1,0.3,0.1l0.3,0.2c0.2,0.2,0.2,0.3,0.2,0.3c0,0,0,0.8-0.1,0.9c-0.3,0.4-0.6,0.7-1,0.7
					l-1.3,0.3l-0.4,0.1l-0.2,0.3l-0.2,0.6c0,0-0.2-1.3-0.3-1.3c-0.1,0-0.2-0.8-0.2-0.8l0.9,0.7c1.4,0,2.1-0.7,2.1-0.7l0.1-0.4
					c0-0.2,0-0.3,0-0.3c0,0-0.2-0.3-0.7-0.1C562.9,310.6,562.7,310.6,562.7,310.6z"/>
				<path class="st2" d="M556.5,295.2c0.2-0.2,1.2-0.6,1.2-0.6c0,0,1.3-0.4,1.3-0.4s0.7-0.2,0.9-0.2c2.6-0.4,4.5-0.6,5.9-0.5
					c2.7,0,4.9,0.6,4.9,0.6c1.3,0.3,4.1,1.3,4.1,1.3c0.5,0.2,2.3,1.2,3.3,2.6c0.1,0.1,2,3.2,2,3.2c0.6,1.2,1.3,3.9,1.3,3.9l0.4,1.5
					l0.5,1.7c0.7,2.6,0.8,4.1,0.8,4.1l0.1,1.2l0.2,2.2l0.1,1.1l0.2,1.8c0,0.2-0.6,2.1-0.6,2.1l-0.7,0.9l-0.7,0.2v-0.4l0.7-1
					c0.1,0,0.5-0.9,0.5-1c0-0.1-0.1-3.7-0.1-3.7l-0.1-2l-0.1-1.2c0-0.1-0.2-1.6-0.2-1.6c0-0.1-0.3-1-0.3-1l-0.3-1.2l-0.3-1.1
					l-0.3-1.4l-0.2-1.2c0-0.4-0.7-2.5-0.7-2.5c-0.9-2.1-2.8-4.4-2.8-4.4l-1.2-1.1c-6.3-3.9-13.7-3-13.9-3c0,0-1.4,0.2-2.9,0.4
					c-1.3,0.3-2.1,0.7-2.1,0.7c-0.3,0.2-0.9,0.3-0.9,0.3C556.3,295.4,556.5,295.2,556.5,295.2"/>
				<path class="st2" d="M567.7,296.2c0.1,0.1,0.4,0.2,0.7,0.4c1.5,1,2.7,1.5,3.9,1.9c0.1,0,2.3,1,2.9,2.2c0.5,0.8,0.7,1.5,0.7,1.5
					c0-0.1,0.3,1.1,0.3,1.1l0.4,2.2l0.3,0.8c0.3,0.9,1,1.5,1,1.5l1.8,1.5c0,0,1,1.1,1,2.1c0.1,0.2-0.2,0.3-0.3,0
					c-0.1-0.4-0.1-0.4-0.3-0.7c-0.2-0.4-1.1-1.2-1.1-1.2l-1-0.7l-1-0.8l-0.7-0.6c-0.4-0.8-0.3-1.4-0.3-1.4l0-1
					c0.1-0.5-0.4-2.2-0.4-2.2l-0.2-0.5l-0.2-0.4l-0.3-0.7c-0.1,0-0.2-0.2-0.7-0.6c-1-1.2-2.9-1.7-2.9-1.7c-0.8-0.2-1.4-0.3-2-0.6
					C567.5,297.1,567.7,296.2,567.7,296.2"/>
				<path class="st3" d="M567.7,296.2c0.1,0.1,0.4,0.2,0.7,0.4c1.5,1,2.7,1.5,3.9,1.9c0.1,0,2.3,1,2.9,2.2c0.5,0.8,0.7,1.5,0.7,1.5
					c0-0.1,0.3,1.1,0.3,1.1l0.4,2.2l0.3,0.8c0.3,0.9,1,1.5,1,1.5l1.8,1.5c0,0,1,1.1,1,2.1c0.1,0.2-0.2,0.3-0.3,0
					c-0.1-0.4-0.1-0.4-0.3-0.7c-0.2-0.4-1.1-1.2-1.1-1.2l-1-0.7l-1-0.8l-0.7-0.6c-0.4-0.8-0.3-1.4-0.3-1.4l0-1
					c0.1-0.5-0.4-2.2-0.4-2.2l-0.2-0.5l-0.2-0.4l-0.3-0.7c-0.1,0-0.2-0.2-0.7-0.6c-1-1.2-2.9-1.7-2.9-1.7c-0.8-0.2-1.4-0.3-2-0.6
					C567.5,297.1,567.7,296.2,567.7,296.2z"/>
				<path class="st2" d="M556.9,297.1c0.5-0.3,2.1-0.6,2.1-0.6c0.1-0.1,1.6-0.3,1.7-0.3c0.1,0,2.7-0.4,2.7-0.4c1.1-0.1,2,0.3,2,0.3
					c0.3,0.1,0.6,0.3,0.6,0.3l1.5,1.2l1.5,1c0,0,0.9,0.5,1,0.5s2,0.7,2.2,0.7c0.2,0,1.6,0.7,1.6,0.7s2,1.1,1.8,1.9
					c-0.8-0.9-2.3-1.5-2.3-1.5c-4-1.3-4.6-2-4.6-2l-1.1-0.7l-1-0.6c-1.3-1-3.1-1.1-3.1-1.1c-1.8-0.2-4.8,0.4-4.8,0.4
					C557.4,297.2,556.9,297.1,556.9,297.1"/>
				<path class="st1" d="M570.1,295.5c-0.1,0,0.6,0.1,1.2,0.2c0.2,0,1.1,0.4,1.2,0.4c0.1,0,1.6,0.7,1.8,0.8c0.9,0.5,1.6,1,1.9,1.3
					c1.1,0.9,1.3,1.5,1.3,1.5c0.7,1,1.3,1.9,1.7,3.3l0.3,1.1l0.2,1l0.3,1.6l0.2,1l-0.9-1.3l-0.3-0.4l-0.3-0.4l-0.3-0.8
					c-0.9-4.1-1.7-5-1.7-5c-0.9-1.4-2.4-2.2-2.4-2.2c-0.3-0.2-2.1-1-2.1-1s-1.5-0.6-1.7-0.6C569.8,295.6,570.1,295.5,570.1,295.5"/>
				<path class="st2" d="M560.8,300.6c0.9,0.5,1.5,0.6,1.5,0.6c0.7,0,1.6,0.2,1.6,0.2s0.6,0.3,0.6,0.6c0.1,0.3,0.1,0.4,0.1,0.4
					l0,0.9c0,0,0.2,1,0.3,1.1c0.1,0,0.1,0.3,2.1,0.8c0.1,0,1,0.4,1.1,0.6c0.3,0.2,0.4,0.4,0.5,0.6c0.7,1.1,0.2,3.6,0.2,3.6l0.1,0.5
					c0.9,0.8,1.3,0.6,1.3,0.6v-0.3c0-0.1-0.2-0.6-0.2-0.6l-0.9-3.9c-0.4-0.7-2-1.4-2-1.4c-1-0.2-1-1-1-1l-0.2-1l-0.3-1
					c-0.2-1.3-1.4-1.3-1.4-1.3h-1.2l-0.6,0l-0.5-0.1l-0.8-0.3C561.2,300.1,560.3,299.9,560.8,300.6"/>
				<path class="st2" d="M560.9,302.5l0.6,0.1l0.4,0.1c0.4,0,0.5-0.1,0.5-0.1l0.8-0.3h0.3l0.6,0.1c1.1,0.3,1.2,0.9,1.2,0.9l-0.6-0.2
					l-0.6,0l-0.9,0l-0.6,0C561.4,303.5,560.9,302.5,560.9,302.5"/>
				<path class="st1" d="M560.6,298.8c0.8,1.1,1.7,0.4,1.6,0.5l1.3-0.3c0.4,0,0.7,0,0.8,0c0.6,0,0.8,0.1,1,0.2
					c0.4,0.1,0.7,0.2,1.3,1c0-0.1,0.5,0.9,0.5,0.9l0.4,1c0.6,2.2,2.8,3,2.8,3l1.3,0.4l0.4,0.2c0,0,0.5,0.4,0.6,0.6
					c0,0.1,0.3,0.6,0.3,0.6l0.3,0.8l0.4,1.2l0.4,0.3l0.5,0.4l0.4,0.6c-0.2,0.1-0.1,0.5-0.1,0.5c0,0.1-0.4,0.1-0.4,0.1l-0.4,0.1
					c-0.2-0.1-0.3-0.4-0.3-0.4l-0.1-0.7l-0.6-2c-0.5-1.2-1.3-1.4-1.3-1.4l-1.2-0.6l-1.6-0.9c-1.1-0.5-1.8-2.5-1.8-2.5
					c-0.5-2-1.4-2.5-1.4-2.5c-0.5-0.5-2.8-0.2-2.8-0.2l-0.9,0.3c0.1,0-1.4,0.5-1.4,0.5s0-0.7,0-0.8
					C560.4,299.6,560.6,298.8,560.6,298.8"/>
				<path class="st1" d="M570.4,307.1c0.9,1.1,0.5,3.1,0.5,3.1l0.2,1l0.6,0.9c0,0,1.1,1.2,1.1,1.3c1.2,1.4,0.9,2.7,0.5,3.8l-0.5,0.6
					l-0.1,0.2l0,1.2l0.2,0.3c0.3,0.2,1.4,0.2,1.4,0.2s1.4,0,1.5,0c0.1,0,0.6-0.1,0.5-0.2c-0.1-0.1-0.4-0.2-0.4-0.2s-0.6-0.5-0.7-0.6
					c0-0.1-0.1-0.9-0.1-1s-0.1-0.4-0.1-0.4c0-0.1-0.3-0.4-0.4,0c0-0.1-0.1,0.5-0.1,0.5l-0.1,0.6l-0.5,0.2c-0.1,0-0.1,0-0.2,0
					c-0.1-0.1,0-0.4,0-0.4c0.1-0.2,0.4-0.6,0.4-0.6l0.2-0.6l0.2-0.8l0.1-1l-0.2-0.8l-0.3-0.6l-1.1-1.5l-0.5-0.7l-0.5-0.7l-0.2-0.8
					l-0.1-2c0-0.6-0.6-1.3-0.6-1.3C570.1,306.4,570.4,307.1,570.4,307.1"/>
				<path class="st2" d="M556.2,296.2l1.4-0.6l1.7-0.4c4.1-0.6,7-0.4,7-0.4c2.4,0.4,4,1.2,4,1.2s4.1,1.7,5.6,3.6
					c0.5,0.6,0.6,1.2,0.6,1.2l1.2,3.6c0.4,1.1,0.7,1.6,0.7,1.6c0.3,0.3,0.6,0.5,0.6,0.5l0.4,0.2c0.4,0.2,0.7,0.6,0.7,0.6
					c0.5,0.7,0.5,1.2,0.5,1.2c0.1,0.1,0,0.6,0,0.6l-0.4-0.5l-0.8-0.8c-1.8-1-2.3-3.7-2.3-3.7l-0.3-1.4l-0.5-1.4
					c-0.5-2.6-7.3-5.3-7.3-5.3c-2.9-1.4-6.5-0.9-6.5-0.9c-0.4,0-1.6,0.2-1.6,0.2l-3,0.5l-1.1,0.3L556.2,296.2z"/>
				<path class="st2" d="M580.1,322.6c0.2,0,0.3-0.2,0.3-0.6l0.1-0.6l0.1-0.8l0-0.7l0.1-0.7v-0.6c-0.5-1.2-2.1-1.9-2.1-1.9l-0.9-0.3
					l-0.6-0.4l-0.5-0.5l-0.5-0.3l-0.6-0.2c-0.4,0-0.1-0.2-0.1-0.2s0.2-0.1,0.4-0.1c0.2,0,0.7,0,0.8,0.1c0.1,0,0.6,0.1,0.6,0.1
					s0.4,0.4,0.7,0.6c1.1,0.6,3.6,2.4,3.6,2.4c0.3,0.2,0.3,0.8,0.3,0.8v0.6l0,0.6l-0.1,0.5l-0.2,1l-0.1,0.6c0,0-0.1,0.2-0.2,0.3
					c0,0.1-0.3,0.3-0.3,0.3l-0.4,0.1L580.1,322.6z"/>
				<path class="st1" d="M581.6,317.6l-0.6-1c0,0-0.6-1.2-1.8-1.8c-0.7-0.2-0.9-0.5-0.9-0.5c0,0,0-0.8,0-0.8
					c0.1-1.2-0.9-2.3-0.9-2.3s-1.3-0.7-1.4-0.7c-0.1,0-1.3-0.4-1.4-0.5c-0.1,0-0.9-0.7-0.9-0.7l-0.2-0.5l0.4,0.2l1.2,0.6l2.8,1.4
					c0.6,0.3,1,0.8,1,0.8c0.1,0.3,0.4,1.4,0.4,1.4c0,0.4,0.5,0.7,0.5,0.7c0.2,0.2,1.9,1.8,1.9,1.8
					C581.8,316,581.6,317.6,581.6,317.6"/>
				<path class="st3" d="M581.6,317.6l-0.6-1c0,0-0.6-1.2-1.8-1.8c-0.7-0.2-0.9-0.5-0.9-0.5c0,0,0-0.8,0-0.8
					c0.1-1.2-0.9-2.3-0.9-2.3s-1.3-0.7-1.4-0.7c-0.1,0-1.3-0.4-1.4-0.5c-0.1,0-0.9-0.7-0.9-0.7l-0.2-0.5l0.4,0.2l1.2,0.6l2.8,1.4
					c0.6,0.3,1,0.8,1,0.8c0.1,0.3,0.4,1.4,0.4,1.4c0,0.4,0.5,0.7,0.5,0.7c0.2,0.2,1.9,1.8,1.9,1.8
					C581.8,316,581.6,317.6,581.6,317.6z"/>
				<path class="st2" d="M561.3,299.4c-0.2-0.3-0.1-0.7-0.1-0.7c0.5-0.8,4.1-0.4,4.4-0.2l1.6,0.9l1.7,0.9c3,1.5,5,2,5,2
					c1,0.6,0.9,3,0.9,3l0.1,1.3l0,0.8l0.1,0.6c0.1,0.4,0.4,0.7,0.4,0.7l3.6,2.1c0,0,1,0.6,1.1,2.3c0,0.6-0.3,0.9-0.3,0.9
					c0,0.1,0,0.4,0,0.4s0,0.1,0.4,0.3c0.3,0.2,0.6,0.4,0.6,0.4l0-0.4l-0.2-0.6l0-1.5l0.1-1.1c0-0.3-0.1-0.4-0.4-0.6l-0.5-0.2
					l-1.8-0.9l-0.6-0.4l-0.9-0.6l-0.6-0.7l-0.4-0.7l-0.2-0.8l-0.1-0.8v-0.6l0-0.8l-0.1-0.9c0.2-1.3-2.7-2.1-2.7-2.1l-2-0.7l-0.8-0.4
					l-1.4-1c0-0.1-1.4-1-1.4-1c-1.9-1-4-0.9-4-0.9l-0.9,0.1c-0.7,0.1-1.1,0.5-1.1,0.5l0,0.4c0,0,0.1,0.4,0.1,0.4
					c0.1,0.1,0.2,0.3,0.2,0.3L561.3,299.4z"/>
				<path class="st2" d="M561.1,303.7c0.1,0.1,2.5,2,2.5,2c0.9,0.8,2.3,1.1,2.3,1.1c0.3,0.1,1.1,0,1.1,0c0.8,0.2,0.8,1.3,0.8,1.3
					c0.3,1.5-0.5,1.6-0.5,1.6c-0.2,0.1-0.4,0.2-0.4,0.2s-0.4,0.2,0,0.3c0.3,0,1.5-0.1,1.5-0.1l-0.4-2.9c-0.3-1.1-1.9-1-1.9-1
					c-0.4,0.1-0.8,0-0.8,0c-1.1-0.3-1.7-0.9-1.7-0.9l-2.3-1.7C560.6,303.2,561.1,303.7,561.1,303.7"/>
				<path class="st2" d="M579.4,322l0.1-0.7l0.3-1c0-0.1-0.1-0.4-0.1-0.4c0,0-0.6-0.8-0.6-0.8c-0.1-0.1,0-0.7,0-0.7
					c0-0.3-0.1-0.9-0.5-1.7c-0.4-0.6-1.1-0.8-1.1-0.8s-0.4-0.1-0.4-0.1c-0.1,0-0.1,0.1,0,0.2c0.9,1,1.1,2,1.1,2c0,0.2,0,0.1,0.1,0.2
					c0,0.1,0.2,0.4,0.2,0.4l0.2,0.5l0.5,1c0.2,0.3-0.3,0.9-0.3,0.9l0,0.6L579.4,322z"/>
				<path class="st2" d="M579.3,322.2l0-0.7c0,0-0.1-0.6-0.2-0.7c-1.6-1.5-3.5-1.4-3.5-1.4l-0.3,0.1l0.2,0.2
					c3.8,0.8,3.4,1.8,3.4,1.8c0.2,0.2,0.1,0.3,0.1,0.3l0.2,0.3L579.3,322.2z"/>
				<path class="st2" d="M574,319.2c0,0,1.2-0.1,1.3-0.2c1.9-0.5,3-0.2,3-0.2c0.2,0,0.4,0.3,0.4,0.3l0.1-0.2l0-0.3
					c0-0.4-0.9-0.5-0.9-0.5l-2,0.1l-0.9,0.2l-1.4,0.4L574,319.2z"/>
				<path class="st2" d="M572,307.5l0,0.6c0,0-0.1,1.8-0.1,1.6c0,0,0,1,0.4,1.3c0.2,0.1,0.7,0.6,0.7,0.6c0.3,0.2,0.8,1,0.8,1
					s0.4,1.4,0.3,1.5l-0.1,0.7l0.2,0.4c0,0,0.8-0.1,0.9-0.1c0.1,0,0.4-0.1,0.4-0.1l0-0.2c0,0-0.2-0.1-0.3-0.1
					c-0.1,0-0.2,0.1-0.2,0.1l-0.1-0.6c0-0.3-0.5-1.3-0.5-1.3l-0.1-0.3l-0.3-0.9l-0.6-0.8c-0.4-0.2-0.7-0.7-0.7-0.7
					c-0.2-0.3-0.2-2.1-0.2-2.1C572.4,307.8,572,307.5,572,307.5"/>
				<path class="st2" d="M577.4,315.5c0.2,0.1-0.2-0.6-0.2-0.6l0.2-1.5c-0.1-1.7-1.8-2.7-1.8-2.7l-0.9-0.3l-0.5,0
					c-0.5,0.4-1.2,0.2-1.2,0.2s-1.2,0.3-1.5,0.2c-0.2-0.1-0.5-0.4-0.5-0.4s-0.1-0.4-0.2-0.3c-0.1,0.3-0.8,0-0.8,0l-1.3-0.6l-0.1,0
					l-1,0.1l0,0.2l0.2,0.1c0,0,2.2,0.7,2.5,2c0,0.1,0.6,0.1,0.6,0.1s1.1-0.4,1.1-0.4s0.4-0.9,1.2-0.5c0.1,0.1,1.2,0,1.2,0l0.9,0.1
					c1.1,0.3,1.3,2.2,1.3,2.2c0.1,0.2-0.2,0.6-0.2,0.6s0.5,1,0.6,1.1C577.2,315.8,577.4,315.5,577.4,315.5"/>
				<path class="st2" d="M560.8,308.4l0.3-0.2l0.3-0.3c0,0,0.3-0.4,0.5-0.4h0.5c0,0,0.8,0.1,1,0.2c0.1,0,0.8,0.3,0.8,0.3l0.9,0.2
					l0.4,0l0.6,0.3l0.3,0.4l0.1,0.3l0,0.4l0.3,0.2l0.6,0.1l-0.3-0.8l-0.5-1.1l-0.3-0.3l-0.4-0.2c-2.2-0.4-2.3-0.8-2.3-0.8l-0.2-0.2
					l-0.9-0.8l-1.2-1.3c-0.1-0.1-0.7-0.5-0.7-0.5c-0.2,0.1-0.1,0.3-0.1,0.3l1.1,0.9c0,0,0.7,1.1,0.9,1.2c0.2,0.1,0.3,0.4,0.3,0.4
					c-0.1,0.3-0.4,0-0.4,0l-0.3-0.4l-1.5-1.5c-0.6-0.3-0.2,0.3-0.2,0.3c0.1,0.1,1,1.2,1,1.2l0.1,0.5l-0.2,0.2l-0.3-0.1l-0.2,0.1
					l-0.3,0.6L560.8,308.4z"/>
				<path class="st1" d="M572.2,320l-0.1-0.4l0-0.4c0.1-0.3,0.6-0.1,0.6-0.1s0.3,0,0.4,0c0.1,0,0.1-1.2,0.1-1.2l-0.7,0l-0.6,0
					c0,0-0.3-0.4-0.1-0.4c1.2,0,1.3-1.8,1.3-1.8c-0.1-0.4-0.3-0.2-0.3-0.2c-0.3,1.4-1.3,1.6-1.3,1.6l-0.6,0l-0.4-0.1l-0.2-0.2
					c1.3-0.7,1.6-1.4,1.6-1.4c0.2-0.2,0.1-1.1,0.1-1.1l-0.1-0.5c-0.2-0.2-0.3,0-0.3,0v0.4c0,0.2,0,0.3,0,0.5
					c-0.9,1.9-1.8,1.2-1.8,1.2l-0.2-0.2c1.6-0.2,1.3-3.3,1.3-3.3l0-0.4l-0.2-0.2l-0.2,0c0.2,0.4,0.2,1.4,0.2,1.4
					c0.1,0-0.4,2-1.7,1.8c-0.1,0-0.5-0.1-0.5-0.2c0-0.1,0-0.3,0.1-0.3c0.1,0,0.4-0.2,0.5-0.2c0.1,0,0.5-0.5,0.5-0.5l0.2-0.4l0-0.6
					l0-0.2c0-0.1-0.2,0-0.2,0l-0.1,0.2c-0.1,1.3-1.2,1.4-1.2,1.4l-0.5,0.2h-0.3l-0.1-0.1c1.1-0.8,1.2-1.7,1.2-1.7l0-0.5
					c0-0.2,0-0.3,0-0.3c0,0-0.2,0-0.2,0c0,0-0.1,0.2-0.1,0.2l-0.2,0.7c-0.3,0.8-1.1,1.2-1.1,1.2c-0.4,0-0.2-0.3-0.2-0.3
					c1-1,0.9-1.4,0.9-1.4l-0.1-0.8c-0.1-0.1-0.2,0-0.2,0l-0.1,0.4c-0.1,0.8-0.8,1.5-1,1.5c-0.2,0-0.3,0.1-0.3,0.1l-0.1-0.2l0.3-0.2
					l0.3-0.3l0.2-0.4c0-0.3,0.1-0.5,0-0.6c0.1-0.2,0.1-0.3,0.1-0.4c-0.1-0.1-0.2,0-0.2,0c0,0-0.1,0.2-0.1,0.2
					c-0.2,0.5-0.4,0.8-0.6,1c0,0-0.4,0-0.2-0.1c0.3-0.3,0.3-1.1,0.3-1.1l0-1.2l0.1-0.3l0.7-0.2l1.1,0.1l0.3-0.2l-0.5-0.4l-1-0.1
					l-0.5,0.2l-0.4,0l-0.5,0l-0.2-0.1l-1-0.6c-0.2,0-0.4,0-0.4,0c0,0-0.2,0.2,0.1,0.3c0.1,0.1,2.5,0.9,1.3,3.4
					c0,0.1-0.3,0.3-0.3,0.3c-0.1,0.1-0.7,0.1-0.7,0.1c-0.1,0-0.5-0.2-0.5-0.2l-0.4-0.4v-0.4l-1.2,0.2l-0.1,0.3l0,0.2
					c0,0,0.4,0.4,0.4,0.4c0.1,0.1,0.3,0.5,0.3,0.5c0,0,0,0.8,0,0.8l-0.1,2.6c0,0.2,0.4,1,0.4,1c0,0,0.4,0,0.4,0
					c-0.2-0.5-0.4-1.1-0.4-1.5l0.2-1.4c0,0,0.2-0.6,0.2-0.6c0-0.1,0.1-0.8,0.1-0.8s0-0.2,0.2-0.2c0.1,0,0.2,0,0.2,0
					c0.1,0,0.1,0.1,0.1,0.1c0,0,0,1,0,1c-0.6,2.2-0.3,3.3-0.3,3.3c0,0,0.6-0.1,0.6-0.1c-0.4-0.6-0.4-1.2-0.4-1.2l0.1-0.7l0.2-0.7
					l0.1-1.1l0.1-0.2h0.2l0,0.5v1.2l-0.1,0.9c0,0.8,0.1,1.3,0.1,1.3l0.4,0l-0.1-0.5l0-0.7c0,0,0-0.6,0-0.6c0-0.1,0.2-0.9,0.2-0.9
					l0.2-0.3c0.4-0.1,0.4,0.3,0.4,0.3l-0.4,1.9c0,0-0.1,0.9,0,1c0,0.1,0.4,0.6,0.4,0.6c0.1,0.1,0.2-0.1,0.2-0.1
					c0,0.1,0.1-2.1,0.1-2.1s0.2-0.3,0.5-0.1c0.5,0,0.6-0.5,0.6-0.5s0.7-0.7,0.7,0.6c0,0.2-0.4,0.7-0.4,0.7c-0.4,0.4,0.3,0.2,0.3,0.2
					l0.5-0.2c0,0,0.4-0.1,0.5-0.1c0.1,0,0.2,0,0.4,0.1c0.2,0.1,0.3,0.3,0.3,0.3l-0.3,0.6c0,0-0.1,0.5,0,0.7c0.2,0.3,0.5,0,0.5,0
					s-0.1-0.4,0-0.5c0-0.1,0.1-0.3,0.1-0.3c0.1-0.2,0.6-0.2,0.6-0.2c0.9,0.4,1.1,1.9,1.1,1.9c0.1,0.2-0.2,0.3-0.2,0.3l0.2,0.4
					l1.4,0.5L572.2,320z"/>
				<path class="st3" d="M572.2,320l-0.1-0.4l0-0.4c0.1-0.3,0.6-0.1,0.6-0.1s0.3,0,0.4,0c0.1,0,0.1-1.2,0.1-1.2l-0.7,0l-0.6,0
					c0,0-0.3-0.4-0.1-0.4c1.2,0,1.3-1.8,1.3-1.8c-0.1-0.4-0.3-0.2-0.3-0.2c-0.3,1.4-1.3,1.6-1.3,1.6l-0.6,0l-0.4-0.1l-0.2-0.2
					c1.3-0.7,1.6-1.4,1.6-1.4c0.2-0.2,0.1-1.1,0.1-1.1l-0.1-0.5c-0.2-0.2-0.3,0-0.3,0v0.4c0,0.2,0,0.3,0,0.5
					c-0.9,1.9-1.8,1.2-1.8,1.2l-0.2-0.2c1.6-0.2,1.3-3.3,1.3-3.3l0-0.4l-0.2-0.2l-0.2,0c0.2,0.4,0.2,1.4,0.2,1.4
					c0.1,0-0.4,2-1.7,1.8c-0.1,0-0.5-0.1-0.5-0.2c0-0.1,0-0.3,0.1-0.3c0.1,0,0.4-0.2,0.5-0.2c0.1,0,0.5-0.5,0.5-0.5l0.2-0.4l0-0.6
					l0-0.2c0-0.1-0.2,0-0.2,0l-0.1,0.2c-0.1,1.3-1.2,1.4-1.2,1.4l-0.5,0.2h-0.3l-0.1-0.1c1.1-0.8,1.2-1.7,1.2-1.7l0-0.5
					c0-0.2,0-0.3,0-0.3c0,0-0.2,0-0.2,0c0,0-0.1,0.2-0.1,0.2l-0.2,0.7c-0.3,0.8-1.1,1.2-1.1,1.2c-0.4,0-0.2-0.3-0.2-0.3
					c1-1,0.9-1.4,0.9-1.4l-0.1-0.8c-0.1-0.1-0.2,0-0.2,0l-0.1,0.4c-0.1,0.8-0.8,1.5-1,1.5c-0.2,0-0.3,0.1-0.3,0.1l-0.1-0.2l0.3-0.2
					l0.3-0.3l0.2-0.4c0-0.3,0.1-0.5,0-0.6c0.1-0.2,0.1-0.3,0.1-0.4c-0.1-0.1-0.2,0-0.2,0c0,0-0.1,0.2-0.1,0.2
					c-0.2,0.5-0.4,0.8-0.6,1c0,0-0.4,0-0.2-0.1c0.3-0.3,0.3-1.1,0.3-1.1l0-1.2l0.1-0.3l0.7-0.2l1.1,0.1l0.3-0.2l-0.5-0.4l-1-0.1
					l-0.5,0.2l-0.4,0l-0.5,0l-0.2-0.1l-1-0.6c-0.2,0-0.4,0-0.4,0c0,0-0.2,0.2,0.1,0.3c0.1,0.1,2.5,0.9,1.3,3.4
					c0,0.1-0.3,0.3-0.3,0.3c-0.1,0.1-0.7,0.1-0.7,0.1c-0.1,0-0.5-0.2-0.5-0.2l-0.4-0.4v-0.4l-1.2,0.2l-0.1,0.3l0,0.2
					c0,0,0.4,0.4,0.4,0.4c0.1,0.1,0.3,0.5,0.3,0.5c0,0,0,0.8,0,0.8l-0.1,2.6c0,0.2,0.4,1,0.4,1c0,0,0.4,0,0.4,0
					c-0.2-0.5-0.4-1.1-0.4-1.5l0.2-1.4c0,0,0.2-0.6,0.2-0.6c0-0.1,0.1-0.8,0.1-0.8s0-0.2,0.2-0.2c0.1,0,0.2,0,0.2,0
					c0.1,0,0.1,0.1,0.1,0.1c0,0,0,1,0,1c-0.6,2.2-0.3,3.3-0.3,3.3c0,0,0.6-0.1,0.6-0.1c-0.4-0.6-0.4-1.2-0.4-1.2l0.1-0.7l0.2-0.7
					l0.1-1.1l0.1-0.2h0.2l0,0.5v1.2l-0.1,0.9c0,0.8,0.1,1.3,0.1,1.3l0.4,0l-0.1-0.5l0-0.7c0,0,0-0.6,0-0.6c0-0.1,0.2-0.9,0.2-0.9
					l0.2-0.3c0.4-0.1,0.4,0.3,0.4,0.3l-0.4,1.9c0,0-0.1,0.9,0,1c0,0.1,0.4,0.6,0.4,0.6c0.1,0.1,0.2-0.1,0.2-0.1
					c0,0.1,0.1-2.1,0.1-2.1s0.2-0.3,0.5-0.1c0.5,0,0.6-0.5,0.6-0.5s0.7-0.7,0.7,0.6c0,0.2-0.4,0.7-0.4,0.7c-0.4,0.4,0.3,0.2,0.3,0.2
					l0.5-0.2c0,0,0.4-0.1,0.5-0.1c0.1,0,0.2,0,0.4,0.1c0.2,0.1,0.3,0.3,0.3,0.3l-0.3,0.6c0,0-0.1,0.5,0,0.7c0.2,0.3,0.5,0,0.5,0
					s-0.1-0.4,0-0.5c0-0.1,0.1-0.3,0.1-0.3c0.1-0.2,0.6-0.2,0.6-0.2c0.9,0.4,1.1,1.9,1.1,1.9c0.1,0.2-0.2,0.3-0.2,0.3l0.2,0.4
					l1.4,0.5L572.2,320z"/>
				<path class="st2" d="M580.5,308.1l0.4,0.7l0.6,1.9l0.4,4.8l0.1,1.9v1.6c-0.2,0.8-0.5,1.1-0.5,1.1c0,0-0.2-0.9-0.2-0.9v-2.1
					l-0.1-2.4c0-4.3-0.7-5.8-0.7-5.8L580.5,308.1z"/>
				<path class="st3" d="M580.5,308.1l0.4,0.7l0.6,1.9l0.4,4.8l0.1,1.9v1.6c-0.2,0.8-0.5,1.1-0.5,1.1c0,0-0.2-0.9-0.2-0.9v-2.1
					l-0.1-2.4c0-4.3-0.7-5.8-0.7-5.8L580.5,308.1z"/>
				<path class="st2" d="M573.6,309.2l0.8,2.3l0.6,1.3l0.6,1.4c0.2,0.2,0,0.6,0,0.6l0.4,0.3l1,0.5c0,0,0.3,0,0.2-0.2
					c-0.1-0.2-0.7-0.9-1-1.2c-0.3-0.2-0.3-0.2-0.4-0.4c0-0.1-0.6-2.1-0.6-2.1l-0.5-1.4l-0.6-0.8L573.6,309.2z"/>
				<path class="st1" d="M548.2,349.8l-0.8,0l0.1-3.2c0-1.7-0.5-3.1-0.5-3.1l-0.6-1.6l-0.6-1.2l-0.6-1.3c-0.3-0.6-0.4-1.3-0.4-1.3
					l0-0.4c0-1-0.8-1-0.8-1l-3.3-0.7l-1.7-0.1c-3.8,0-3.2-4.3-3.2-4.3c0.1-0.6,0.5-1,0.5-1l0.4-0.8c0.3-0.5-0.3-1-0.3-1l-0.5-0.2
					c-0.3-0.1-0.1-1-0.1-1l0.1-0.3l0.1-0.5c0-0.3-0.2-0.5-0.2-0.5c-0.2-0.3,0-1.1,0-1.1l0.1-1l-0.1-0.5c0,0,0-0.5,0-0.5
					c0,0.1,0-0.1,0-0.1l-0.6,0c-1.9,0.1-1.8-1.8-1.8-1.8c0.1-0.7,1-1.7,1-1.7l0.9-1.6l1.1-1.6l1.2-1.6c0.4-0.5,0.3-1.6,0.3-1.6
					l0-0.8c0-1,0.3-1.2,0.3-1.2l0.6-1c0,0,0.5-1.4,0.6-1.4c0.4-0.6,0.6-3.3,0.4-3.5c0.2,0.1-1.4-0.7-1.5-1.1
					c-0.4-2.5,0.3-3.8,0.3-3.8l1.7-1.4l1.2-1.5c1.6-2.4,3-2.4,3-2.4c0.4-1,1.7-2,1.7-2s1.4-0.9,3.9-0.6c0.7,0,1,0.7,1,0.7
					s0.3,2.2,1.4,2.7c1.4,0.9,2.1-0.1,2.1-0.1c0.6-0.3,0.8,0.4,0,0.6c-0.2,0-0.8,0.1-0.8,0.1c-2,0.4-2.6-1.2-2.6-1.2l-0.6-1.5
					c-0.2-0.9-1.4-0.9-1.4-0.9l-1.6,0.1c-0.4,0-0.7,0.1-1,0.2c-0.5,0.3-0.9,1.1-0.9,1.1l-0.3,0.4l-0.4,0.5l-0.4,0.3l-0.5,0.2
					c0,0-1.1,0.4-2.2,1.9c-0.3,0.6-0.8,1.2-1.2,1.8l-1.1,0.8c-1.2,1-1,2.3-1,2.3l0,1.1c0,0.3,0.6,0.7,1.4,1c0.3,0.2,0.4,0.5,0.4,0.5
					l0.1,1l-0.2,1.8l-0.3,1.3l-0.5,1.3l-0.5,0.9c-0.3,0.6-0.2,1.2-0.2,1.2l0,1.2c0,0.8-1,1.6-1,1.6l-0.9,1.1l-1.1,1.8l-0.4,0.5
					c-0.6,0.7-1.5,2.2-1.5,2.2c0,0.5-0.3,1.3,1.1,1.3c0.3,0,1.3-0.1,1.3-0.1c0.8,0.1,1.4,0.5,1.4,0.5c0.4,0.5,1,0.4,1.2,0.3
					c0.3-0.1,0.5-0.2,0.2-1c-0.1-0.2-0.3-0.7-0.3-0.7l0.1-0.1c0,0,0.8,1.1,0.8,1.9c-0.9,0.6-1.4,0.4-1.4,0.4l-1-0.4l-0.7-0.1
					c-0.6-0.3-0.3-0.1-0.3-0.1c0.4,0.5,0.1,1.9,0.1,1.9l-0.1,0.5c0,0-0.1,0.4,0.3,0.4c0.3,0,0.4,0,0.5,0.1c0.1,0,0.2,0.1,0.3,0.2
					c0.4,0.6,0.6,0.4,0.6,0.4s0.5,0,0.7,0c0.1,0,0.3,0.5-0.1,0.5c-0.5,0-0.8,0-0.8,0c-0.1,0-0.6-0.3-0.6-0.3c-0.9-0.4-1.4,2-0.2,1.7
					c0.3,0.3,0.5,1.2,0.5,1.2c0,0.4-1,1.5-1,1.5s-0.2,0.5-0.1,1.7c0.1,1.4,1.4,2.4,3.7,2.4c1.1,0,2.8,0.2,2.8,0.2s1.4,0.1,1.6,0.1
					c3.3,0.1,7.3-3.4,7.3-3.4l3-3.2c1.3-1.1,1.2-0.1,1.2-0.1c0.7,0.3-1,2-1,2c0.1-0.1-3.9,2.7-3.9,2.7c-1.6,1-1.6,1.7-1.6,1.7
					c-0.1,1.2-0.1,1.3-0.1,1.3s-1.8,1.2-2.1,1.1c-0.2-0.1,1.6-1.5,1.6-1.5c0.3-0.7-0.5-0.4-0.6-0.4c-1.2,0.8-2.7,0.7-2.7,0.7l0,0.9
					c0.1,1.5,0.7,2.6,0.7,2.6l0.8,1.4l0.5,1.1c0.7,1.3,0.9,3,0.9,3L548.2,349.8z"/>
				<path class="st4" d="M548.2,349.8l-0.8,0l0.1-3.2c0-1.7-0.5-3.1-0.5-3.1l-0.6-1.6l-0.6-1.2l-0.6-1.3c-0.3-0.6-0.4-1.3-0.4-1.3
					l0-0.4c0-1-0.8-1-0.8-1l-3.3-0.7l-1.7-0.1c-3.8,0-3.2-4.3-3.2-4.3c0.1-0.6,0.5-1,0.5-1l0.4-0.8c0.3-0.5-0.3-1-0.3-1l-0.5-0.2
					c-0.3-0.1-0.1-1-0.1-1l0.1-0.3l0.1-0.5c0-0.3-0.2-0.5-0.2-0.5c-0.2-0.3,0-1.1,0-1.1l0.1-1l-0.1-0.5c0,0,0-0.5,0-0.5
					c0,0.1,0-0.1,0-0.1l-0.6,0c-1.9,0.1-1.8-1.8-1.8-1.8c0.1-0.7,1-1.7,1-1.7l0.9-1.6l1.1-1.6l1.2-1.6c0.4-0.5,0.3-1.6,0.3-1.6
					l0-0.8c0-1,0.3-1.2,0.3-1.2l0.6-1c0,0,0.5-1.4,0.6-1.4c0.4-0.6,0.6-3.3,0.4-3.5c0.2,0.1-1.4-0.7-1.5-1.1
					c-0.4-2.5,0.3-3.8,0.3-3.8l1.7-1.4l1.2-1.5c1.6-2.4,3-2.4,3-2.4c0.4-1,1.7-2,1.7-2s1.4-0.9,3.9-0.6c0.7,0,1,0.7,1,0.7
					s0.3,2.2,1.4,2.7c1.4,0.9,2.1-0.1,2.1-0.1c0.6-0.3,0.8,0.4,0,0.6c-0.2,0-0.8,0.1-0.8,0.1c-2,0.4-2.6-1.2-2.6-1.2l-0.6-1.5
					c-0.2-0.9-1.4-0.9-1.4-0.9l-1.6,0.1c-0.4,0-0.7,0.1-1,0.2c-0.5,0.3-0.9,1.1-0.9,1.1l-0.3,0.4l-0.4,0.5l-0.4,0.3l-0.5,0.2
					c0,0-1.1,0.4-2.2,1.9c-0.3,0.6-0.8,1.2-1.2,1.8l-1.1,0.8c-1.2,1-1,2.3-1,2.3l0,1.1c0,0.3,0.6,0.7,1.4,1c0.3,0.2,0.4,0.5,0.4,0.5
					l0.1,1l-0.2,1.8l-0.3,1.3l-0.5,1.3l-0.5,0.9c-0.3,0.6-0.2,1.2-0.2,1.2l0,1.2c0,0.8-1,1.6-1,1.6l-0.9,1.1l-1.1,1.8l-0.4,0.5
					c-0.6,0.7-1.5,2.2-1.5,2.2c0,0.5-0.3,1.3,1.1,1.3c0.3,0,1.3-0.1,1.3-0.1c0.8,0.1,1.4,0.5,1.4,0.5c0.4,0.5,1,0.4,1.2,0.3
					c0.3-0.1,0.5-0.2,0.2-1c-0.1-0.2-0.3-0.7-0.3-0.7l0.1-0.1c0,0,0.8,1.1,0.8,1.9c-0.9,0.6-1.4,0.4-1.4,0.4l-1-0.4l-0.7-0.1
					c-0.6-0.3-0.3-0.1-0.3-0.1c0.4,0.5,0.1,1.9,0.1,1.9l-0.1,0.5c0,0-0.1,0.4,0.3,0.4c0.3,0,0.4,0,0.5,0.1c0.1,0,0.2,0.1,0.3,0.2
					c0.4,0.6,0.6,0.4,0.6,0.4s0.5,0,0.7,0c0.1,0,0.3,0.5-0.1,0.5c-0.5,0-0.8,0-0.8,0c-0.1,0-0.6-0.3-0.6-0.3c-0.9-0.4-1.4,2-0.2,1.7
					c0.3,0.3,0.5,1.2,0.5,1.2c0,0.4-1,1.5-1,1.5s-0.2,0.5-0.1,1.7c0.1,1.4,1.4,2.4,3.7,2.4c1.1,0,2.8,0.2,2.8,0.2s1.4,0.1,1.6,0.1
					c3.3,0.1,7.3-3.4,7.3-3.4l3-3.2c1.3-1.1,1.2-0.1,1.2-0.1c0.7,0.3-1,2-1,2c0.1-0.1-3.9,2.7-3.9,2.7c-1.6,1-1.6,1.7-1.6,1.7
					c-0.1,1.2-0.1,1.3-0.1,1.3s-1.8,1.2-2.1,1.1c-0.2-0.1,1.6-1.5,1.6-1.5c0.3-0.7-0.5-0.4-0.6-0.4c-1.2,0.8-2.7,0.7-2.7,0.7l0,0.9
					c0.1,1.5,0.7,2.6,0.7,2.6l0.8,1.4l0.5,1.1c0.7,1.3,0.9,3,0.9,3L548.2,349.8z"/>
				<path class="st2" d="M558.5,304.7c-0.1,0.3,0.5,0.8,0.5,0.8c0.1,0.1,0.9,1.1,0.9,1.1s0.8,0.7,0.7,2c0.1,1.2-0.3,1.4-0.5,2
					c0,0.7,0.3,2.1,0.3,2.1c0.2,0.4,0.6,3,0.6,3s0.2,2.5,0.3,2.5c0.2,0.2,1.3,0.2,3.3,0.1c1.4,0.6,1.3,2.3,1.4,2.3s0.5-0.2,0.5-0.2
					l0.3-0.6c0.1-0.3,0.2-0.6,0.2-0.6c-0.5-0.2-0.8-0.4-0.8-0.4c-0.2-0.3-0.1-0.8-0.1-0.8c0.1-0.5-0.8-0.4-0.8-0.4
					c-3,0.3-3.2,0-3.2,0c-0.2-0.3-0.7-4.4-0.7-4.4l-0.5-2.2c0-0.7,0.5-1.6,0.5-1.6c0.2-0.8,0-2.1,0-2.1c-0.3-0.9-1.2-1.9-1.2-1.9
					c-0.6-0.6-0.5-0.9-0.5-0.9c1.1-2.3,1.3-3.9,1.3-3.9l0.2-1.3c-0.2-1.6-0.7-1.8-0.7-1.8c-0.2-0.2-1-0.4-1-0.4
					c-0.8-0.3-1.8-0.3-2.1-0.3c-0.3,0-1.1,0.1-1.1,0.1c-0.4,0.1-0.8,0.2-0.8,0.2s-0.5,0.3,0,0.3c0.1,0,1.6-0.2,1.9-0.2
					c0.4,0.1,1.2,0.1,2.6,0.6c1.1,0.3,0.4,3.1,0.4,3.1L558.5,304.7z"/>
				<path class="st4" d="M558.5,304.7c-0.1,0.3,0.5,0.8,0.5,0.8c0.1,0.1,0.9,1.1,0.9,1.1s0.8,0.7,0.7,2c0.1,1.2-0.3,1.4-0.5,2
					c0,0.7,0.3,2.1,0.3,2.1c0.2,0.4,0.6,3,0.6,3s0.2,2.5,0.3,2.5c0.2,0.2,1.3,0.2,3.3,0.1c1.4,0.6,1.3,2.3,1.4,2.3s0.5-0.2,0.5-0.2
					l0.3-0.6c0.1-0.3,0.2-0.6,0.2-0.6c-0.5-0.2-0.8-0.4-0.8-0.4c-0.2-0.3-0.1-0.8-0.1-0.8c0.1-0.5-0.8-0.4-0.8-0.4
					c-3,0.3-3.2,0-3.2,0c-0.2-0.3-0.7-4.4-0.7-4.4l-0.5-2.2c0-0.7,0.5-1.6,0.5-1.6c0.2-0.8,0-2.1,0-2.1c-0.3-0.9-1.2-1.9-1.2-1.9
					c-0.6-0.6-0.5-0.9-0.5-0.9c1.1-2.3,1.3-3.9,1.3-3.9l0.2-1.3c-0.2-1.6-0.7-1.8-0.7-1.8c-0.2-0.2-1-0.4-1-0.4
					c-0.8-0.3-1.8-0.3-2.1-0.3c-0.3,0-1.1,0.1-1.1,0.1c-0.4,0.1-0.8,0.2-0.8,0.2s-0.5,0.3,0,0.3c0.1,0,1.6-0.2,1.9-0.2
					c0.4,0.1,1.2,0.1,2.6,0.6c1.1,0.3,0.4,3.1,0.4,3.1L558.5,304.7z"/>
				<path class="st1" d="M562.4,333.7l-2.3,2.9l-3.2,4.7l-1.9,3.8l-2.4,8.6h1.1c0.8-7,4.8-13.5,4.8-13.5l3.6-4.8l4.2-5.3l3.5-3.3
					c0,0,4-3,4.4-3.3c0.3-0.6,0.7,0.9,0.7,0.9c0.4,0.7,0.6,1,0.6,1c0.6,1.9,0,1.8,0,1.8c-1.3,0.2-1.9,1.2-1.9,1.2
					c-0.9,1.5-0.4,3.2-0.4,3.2c-1.9-0.2-2.5,1.2-2.5,1.2c-1.1,2.2-0.2,4.3-0.2,4.3s0.3,1.4,0.2,2.4c0,0.1-0.1,1.5,0.5,1.9
					c0.5,0.4,1,0.5,1,0.5s0.3,0.6,0.8,0.7c0.9,0.1,1.6-1.1,1.6-1.2c0.1-0.1,1.1-1,1.1-1s0.6-0.4,1.4-0.2c0.1,0,1.1-0.1,1.1-0.1
					c1.1-0.1,1.5-1.1,1.5-1.1s0.1,2.6,1.9,3.2c-0.2,0.2-0.2,0.7-0.2,0.7c-0.3,1.5,0.7,2.2,0.7,2.2c2.3,1.4,4.7,0.1,4.7,0.1
					c1.4-0.8,1.5-2.8,1.5-2.8c0.2-1.6,0-2.5,0-2.5c-1.3-2.1,0-3.5,0-3.5c0.4-0.4,0.7-1.2,0.9-2.4c0.2-1.9-0.8-2.6-0.8-2.6
					c-0.7-0.5-0.5-1.1-0.5-1.1l0.2-2.3c0-1.2-0.5-2.1-0.5-2.1c-0.2-0.5-1-0.9-1-0.9c-0.6-0.1-1.6-0.1-1.6-0.1
					c-2,0.1-1.9,0.5-2.1,0.4c-0.1-0.1,0.3-0.5,0.2-1.2c-0.6-1.1-0.3-1.7-0.3-1.7l1-1.5c1.4-2.5,1.2-5.6,1.2-5.6
					c-0.4-5.4-1.4-8.3-1.4-8.3c-1.5-4.8-3.7-9.1-3.7-9.1c-2.9-4.7-9.2-5.5-9.2-5.5c-3.1-0.6-8.4-0.4-8.4-0.4
					c-2.8,0.2-4.3,0.9-4.3,0.9s-2.4,0.9-3.4,2.6c0,0.1-0.3,0.8-0.2,0.9c0.3,0.2,0.2,0.4,0.2,0.4c0.1,0.3-0.2,0.6-0.2,0.6l-0.8,1.2
					c0,0-0.4,0.6-0.8,2c0,0-0.5,1.3-0.5,1.3c-0.2,0.9-0.5,1.7-0.5,1.7c-0.1,0.1-1,2-1,2c-0.3,1.4-0.8,2-0.8,2l-3.6,5.7
					c-0.4,0.8-0.5,1.6-0.4,1.8c0.1,0.4,0.2,0.6,0.6,0.6s1.1,0.1,1.4,0.1c0.7,0,0.7,0.5,0.7,0.5s0,1.7,0,1.8c0,0.2,0.1,1,0.1,1
					s0,0.5,0.7,0.8c0,0,0.1,0.2-0.1,0.5c-0.1,0.1-0.2,1.1-0.2,1.2c0,0.1,0,0.2,0.3,0.3c0.8,0.3,0.8,0.9,0.8,0.9
					c0.1,0.3-0.6,1.7-0.6,1.7c-0.4,0.7-0.3,2.8-0.2,2.9c0.3,1.7,2.2,2.1,2.2,2.1c1.9,0.1,3,0,3,0l2.3-0.2c0.7-0.1,0.7,1.1,0.7,1.1
					l1.8,7.8c0.6-0.9,0.6-0.8,0.6-0.8l-0.3-1.7l-1-4.6c-0.4-2.2-0.4-1.5-0.4-1.8c0-0.2,0.8-0.3,0.8-0.3c5.3-0.9,5.8-2.6,6-2.9
					c0.9-1.5,2.2-5.8,2.2-5.8s0.5-0.6,0.9-0.7c0.5-0.2,1.1,0.2,1.1,0.2c0.2,0.1,0.8,0.8,0.8,0.8c0.4,0.3,1.2,0.5,1.2,0.5
					c0.3,0.1,1.5,0.6,1.7,0.6c0.1,0,0.5,0.3,0.6,0.4c0.1,0.1,1.3,0.4,1.3,0.4c-0.2-0.5-0.1-0.6-1.1-1.3c-0.2-0.1-2.7-0.9-2.7-0.9
					c-0.6-0.4-1-0.7-1.1-0.8c-0.9-0.7-1.4-0.9-1.4-0.9c-0.9-0.2-2,1.3-2,1.3l-0.4,0.8c0.1,1-1.6,4.7-1.6,4.7
					c-0.3,0.5-0.4,1.4-1.7,1.6c-1.1,0.4-1.8,0.6-3.1,0.9c-2.2,0.5-3.8,0.5-3.8,0.5l-2.7,0.1c-4.7,0.1-3-3.6-3-3.6l0.4-1
					c0.1-0.3,0.3-0.2,0.6-0.1c0.7,0,0.1-0.6,0.1-0.6c-0.3-0.3-0.6-0.9-0.1-1.5c0-0.2-0.3-0.1-0.3-0.1c-0.6,0.4-0.9,0.1-0.9,0.1
					c-0.4-0.6,0.2-0.9,0.2-0.9s0.3-0.3,1.4,0c0.3,0.1,0.9,0,0.9,0c0.5-0.1,0.4-0.4,0.4-0.4c-0.6-0.4-0.5-0.4-0.7-0.5
					c-0.2-0.1-0.3,0.8-1.3,0.1c-0.5-0.5-0.6-0.4-0.7-0.4c-0.6,0-0.6,0.2-0.8-0.5l-0.1-2.2l0-0.7l1,0.1c0.6,0.2,0.9,0.1,0.9,0.1
					c-0.2,0.1,1-0.1,0.6-1.2c-0.3,0.7-1.6,0.3-1.6,0.3c-1-0.7-2.3-0.4-2.3-0.4c-1.7,0.2-0.9-1-0.9-1l1.6-2.6c0,0,1.8-2.5,2.7-4.1
					c0.2-1.7,0.5-2.4,0.5-2.4c0.7-0.8,0.9-1.5,0.9-1.5c1-3.1,1.1-3.8,1.1-3.8c0.1-0.5,0.8-1.6,1.5-1.7c-0.6-0.6-0.5-2,0-2.3
					c0.3-0.5,1.3-1.1,1.3-1.1c0.2-0.2,2.8-1.4,5.8-1.5c2.8-0.1,5.2,0,7.3,0.3c1.8,0.2,6.5,2.3,6.5,2.3c1.5,0.7,2.6,2.4,2.6,2.4
					c0.9,1,2.8,5.5,2.8,5.5s1.4,4.8,1.5,4.8c0.1,0,1,3.3,1.2,8.7c-0.2,3.6-2,4.6-2,4.6c-0.3,0.5-0.3,0.9-0.3,0.9c0,0.6,0.1,1,0.1,1
					c0.4,0.9,0.3,1.4,0.3,1.4c0.1,0.1-0.3,0.9-0.3,0.9s-0.1,0.6,1,0.4c0.2,0,1-0.2,1-0.2c1.7-0.2,3-0.1,3.4,2c0,0-0.5,1.8-0.3,3.4
					c1.5,1.7,1.3,3.3,1.3,3.3s0,0.2-0.6,1c0,0-1,1.6-1,1.6c-0.4,1.7,0.2,2.7,0.2,2.7c0.6,0.9,0.3,2.9,0.3,2.9
					c-0.7,3.6-7.1,3-5.3-0.6c-1.5-1.1-1.6-2-1.6-2l-0.8-2.3l-1.3,1.3c-0.5,0.6-1.7,0.6-1.7,0.6l-1.8-0.1c0,0,0.1,0.9-0.8,1.4
					c-1.2,1.6-1.9,0.6-1.9,0.6c-1.4-0.9-1.2-4.2-1.2-4.2c-1.2-1.4-0.1-3.2-0.1-3.2c0.3-2,2.5-2,2.5-2s0-0.9,0-1.3
					c0-0.7,0.5-1.7,0.5-1.7c0.7-0.8,1.4-0.9,1.4-0.9c1.2-0.1,0.9-1.3,0.9-1.3l-0.3-1.4l-0.5-2c-0.1-0.4-0.8-1.2-0.8-1.2l-0.7,0.5
					l-4,3.1C566.6,328.4,562.4,333.7,562.4,333.7"/>
				<path class="st1" d="M549.1,301.7c-0.4,0.2-0.7,0.3-0.7,0.3l-2.1,0.5c0,0-0.1,0.1,0,0.2c0,0,0.4,1.2,2.1,0.2
					c0,0,0.8-0.6,1.5-1.2h2.5c-0.2,0.5-0.3,1-0.3,1c0.4-0.3-1.4,1-1.4,1l-0.8,0.5c-1.3,1-2.7,0.7-2.7,0.7c-0.7,0-1.1-0.4-1.1-0.4
					l-0.2-0.2c1.2,0.2,2.1,0.3,2.7-0.1c0,0,1.9-0.8,3-2.2c0-0.5-1-0.2-1-0.2l-0.6,0.3c-0.5,0.2-2.1,1.6-2.1,1.6
					c-0.3,0.2-0.6,0.1-0.6,0.1c-0.6-0.7-1.5-0.9-1.5-0.9l-0.7,0c-0.7,0.2-0.5-0.2-0.5-0.2s0.3-0.5,2.5-0.9c0.5-0.1,0.9-0.2,1.2-0.2
					L549.1,301.7z M545.1,301.7c-0.4,0.9-0.9,0.4-1.1,0L545.1,301.7z M540.8,301.7C540.8,301.7,540.8,301.7,540.8,301.7
					c-0.8,0.6-1.3,1.6-1.3,1.6l-0.1,1.2c0.2,0.5,0.7,0,0.7,0c0,0,0.1-0.7,0.4-1.1c0.2-0.4,0.8-0.8,1.8-1.1c0.5-0.1,0.7-0.2,0.8-0.2
					c0.6,0.1,0.2,0.5,0.2,0.5c-0.1,0.1-1.2,0.3-1.2,0.3c-1.2,0.2-1.5,1.5-1.5,1.5c0,1.1-0.6,1.9-0.6,1.9c-0.2-1.1-0.9-1.4-0.9-1.4
					c-0.2-0.4-0.2-0.8-0.2-0.8c0-1,0.4-1.9,0.6-2.3H540.8z"/>
				<path class="st1" d="M541.2,299.2c0.8,0,1.2-0.1,1.2-0.1c0.6-0.1,1.5,0.2,1.5,0.2c0.3,0.1,0.8,0.1,0.8,0.1
					c0.6-0.1,0.2-0.6,0.2-0.6c-0.8-0.5-2-0.5-2-0.5c-1.5,0-1.9,0.7-1.9,0.7C541,299.1,541,299.2,541.2,299.2 M549.9,301.7
					c0.5-0.4,0.9-0.7,0.9-0.7c0.6-0.3,1.9-0.1,1.9-0.1c0,0-0.1,0.4-0.2,0.7L549.9,301.7z M548.4,297.1c-0.4,0.1-0.6,0.2-0.7,0.3
					c-0.1,0-1.2,0.7-1.7,1.3c0,0-1.2,1.3-1.2,2c0,0,0,0.2,0.2,0.3c0,0,0.2,0,0.2,0c0.1-0.1,0.8-1.5,1.2-1.9c0,0,1.7-1.4,2.9-0.8
					l0.9,0.7c0,0,0.3,0.2,0.5,0.2c0,0,0.6,0,1.1-0.1c0,0,0.6-0.1,0.1-0.4l-0.3-0.1l-0.3-0.1c-0.3-0.1-0.7-0.4-1.1-0.9
					c0,0-0.3-0.2-0.6-0.3h1.3c0.4,0.4,0.9,0.7,0.9,0.7c0,0,0.7,0.2,1.6-0.7l1.2,0c0,0-0.1,0.1-0.1,0.1l-1,0.5c0,0-0.7,0.5-0.8,0.9
					c0.1,0.6,0.9,0,0.9,0c0.3,0.7-0.4,1.1-0.4,1.1c-0.3-0.2-1.3,0-1.3,0c-0.8,0.2-1.4,0.9-1.4,0.9c-0.4,0.5-0.8,0.8-1.1,1l-1.1,0
					c1-0.2,0.9-0.4,1-0.7c0,0,0.1-0.2-0.2-0.2c-0.1,0-1.1,0.2-1.2,0.2c-0.1,0-0.2,0-0.2,0s0.7-0.5,2.5-0.6c0.3-0.5,0.3-0.4-0.1-0.6
					c0,0-0.7-0.2-1.1-0.1c-0.7,0.2-1.3,0.7-1.3,0.7l-0.8,0.6l-0.8,0.5c0,0,0.1-0.4,0.1-0.4c0.5-0.7,1.9-1.5,1.9-1.5l0.8-0.3
					c0.5-0.6-0.7-0.5-0.7-0.5c-1.4,0-2.5,1.6-2.5,1.6s-0.4,1.1-0.5,1.1c0,0,0,0,0,0l-1.1,0c-0.1-0.2-0.2-0.3-0.2-0.3
					c0,0-0.3-0.2-0.3-0.2s-0.4-0.1-0.4-0.1c-1.4-0.1-1.9,0.4-2.2,0.6l-1.1,0c0.2-0.3,0.3-0.4,0.3-0.4c0.5-0.4,0.8-0.7,1.3-0.8
					c0,0,0.7-0.3,2.7-0.2c0.4-0.3,0-0.5,0-0.5s-1-0.3-3-0.1c-0.3,0.1-0.5-0.2-0.5-0.2c0-0.1,0.9-1.2,0.9-1.2s2-0.5,3.8-0.1
					c1,0.2,0.6-0.7,0.5-0.7c-0.1-0.1-0.6-0.3-1-0.4L548.4,297.1z"/>
				<path class="st1" d="M545.5,295.1c0.1,0,0.3,0,0.3,0c1.5,0.1,1.6,1,1.6,1c0,0.2,0.7,0.9,0.7-0.4c-0.3-1.3-1.9-1.3-1.9-1.3
					c-0.6,0-0.9,0.3-0.9,0.3S545.3,295,545.5,295.1 M553.2,297.1c0.1-0.1,0.1-0.1,0.2-0.2c0.2-0.3,0.3-0.3,0.3-0.3
					c0.5-0.1,1.2-0.1,0.7,0.6L553.2,297.1z M544.6,297.1c-0.4-0.1-0.8-0.2-0.8-0.2c-0.1,0,1-0.5,2.9,0.1c0.4,0.1,0.4-0.4,0.4-0.4
					c-0.1-0.4-1-0.8-0.9-0.8c-1.1-0.3-2.2-0.2-2.2-0.2l1.5-1.7c0,0,0.4-0.1,0.4-0.1s0.8-0.2,1.4,0c0.6,0.2,1.3,1.4,1.3,1.4l0.4,0.5
					c0.7,1.1,0.5,0,0.5,0s-0.1-0.3-0.1-0.3c-0.3-1-0.7-1.6-1-2c-0.2-0.3-1.1-0.4-1.1-0.4c-1.8,0.2,0.8-0.6,1.6-0.2
					c0,0,0.4,0.6,0.4,0.6l1.1,2.9c0.1,0.3,0.3,0.5,0.5,0.7l-1.3,0c0,0,0,0-0.1,0c-0.3-0.1-0.7,0-1,0H544.6z"/>
				<path class="st2" d="M539.4,316.6c0.4,0,0.6,0,0.9-0.1c0-0.2,0.1-1.2,0.1-1.2v-0.6l0.1-0.5l0.3-0.3c0,0,0.2-0.2,0.4-0.2
					s0.6,0,0.6,0l0.6,0l0.5,0.2l0.8,0.3l0.6,0.8l0.2,0.3l0.4,0.2c0.1,0,0.4,0.2,0.4,0.2c-0.1-0.1-1-1.5-1.1-1.7c0,0-0.2-0.2-0.3-0.2
					c-0.3-0.2-0.6-0.2-0.6-0.2l-0.7-0.3l-0.5-0.3l-0.5-0.1h-0.5l-0.5,0l-0.6,0.1l-0.2,0.2l0.2,0.5l0.1,0.4v1l-0.2,0.6L539.4,316.6z"
					/>
				<path class="st3" d="M539.4,316.6c0.4,0,0.6,0,0.9-0.1c0-0.2,0.1-1.2,0.1-1.2v-0.6l0.1-0.5l0.3-0.3c0,0,0.2-0.2,0.4-0.2
					s0.6,0,0.6,0l0.6,0l0.5,0.2l0.8,0.3l0.6,0.8l0.2,0.3l0.4,0.2c0.1,0,0.4,0.2,0.4,0.2c-0.1-0.1-1-1.5-1.1-1.7c0,0-0.2-0.2-0.3-0.2
					c-0.3-0.2-0.6-0.2-0.6-0.2l-0.7-0.3l-0.5-0.3l-0.5-0.1h-0.5l-0.5,0l-0.6,0.1l-0.2,0.2l0.2,0.5l0.1,0.4v1l-0.2,0.6L539.4,316.6z"
					/>
				<path class="st2" d="M541.4,317.4l0.4,0c0,0,0.2,0,0.2,0h0.4c0.1,0,0.4-0.1,0.4-0.1c0,0,0.6-0.4,0.6-0.4l0.1-0.2l-0.1-0.2
					l-0.1-0.3c0,0-0.2-0.2-0.3-0.2c0,0-0.2-0.1-0.2-0.1l-0.2-0.2l-0.3-0.2l-0.2-0.2l-0.2-0.1l-0.3-0.1l-0.1,0l-0.1,0l-0.2,0
					l-0.1,0.1l0,0.1l0.1,0.1l0.2,0.1l0.2,0.1l0.2,0.1l0.2,0.1l0.2,0.1l0.2,0.2l0.2,0.2l0.1,0.2l-0.3,0.1l-0.2,0l-0.1-0.2l-0.1-0.1
					l-0.1-0.1l-0.1-0.1l-0.1,0l-0.2,0l-0.2,0.1l0,0.2l0,0.2l0,0.3c0,0,0.2,0,0.2,0s0.2,0,0.2,0l0.2,0c0,0,0.1,0,0.1,0
					c0,0,0.2,0,0.2,0c0,0,0.2,0,0.2,0l0.2,0.2l0,0.2l-0.2,0.1h-0.2l-0.2,0.1l-0.2,0l-0.3,0L541.4,317.4L541.4,317.4z"/>
				<path class="st3" d="M541.4,317.4l0.4,0c0,0,0.2,0,0.2,0h0.4c0.1,0,0.4-0.1,0.4-0.1c0,0,0.6-0.4,0.6-0.4l0.1-0.2l-0.1-0.2
					l-0.1-0.3c0,0-0.2-0.2-0.3-0.2c0,0-0.2-0.1-0.2-0.1l-0.2-0.2l-0.3-0.2l-0.2-0.2l-0.2-0.1l-0.3-0.1l-0.1,0l-0.1,0l-0.2,0
					l-0.1,0.1l0,0.1l0.1,0.1l0.2,0.1l0.2,0.1l0.2,0.1l0.2,0.1l0.2,0.1l0.2,0.2l0.2,0.2l0.1,0.2l-0.3,0.1l-0.2,0l-0.1-0.2l-0.1-0.1
					l-0.1-0.1l-0.1-0.1l-0.1,0l-0.2,0l-0.2,0.1l0,0.2l0,0.2l0,0.3c0,0,0.2,0,0.2,0s0.2,0,0.2,0l0.2,0c0,0,0.1,0,0.1,0
					c0,0,0.2,0,0.2,0c0,0,0.2,0,0.2,0l0.2,0.2l0,0.2l-0.2,0.1h-0.2l-0.2,0.1l-0.2,0l-0.3,0L541.4,317.4L541.4,317.4z"/>
				<path class="st2" d="M541.6,317.9l0,0.2l0.1,0.2l0.2,0.1l0.1,0l0.2,0l0.2-0.1l0.1-0.2l0.1-0.1l0-0.1c0,0,0.1,0-0.1,0
					c-0.2,0-0.3,0-0.3,0l-0.2,0l-0.1-0.1l-0.1,0L541.6,317.9L541.6,317.9z"/>
				<path class="st3" d="M541.6,317.9l0,0.2l0.1,0.2l0.2,0.1l0.1,0l0.2,0l0.2-0.1l0.1-0.2l0.1-0.1l0-0.1c0,0,0.1,0-0.1,0
					c-0.2,0-0.3,0-0.3,0l-0.2,0l-0.1-0.1l-0.1,0L541.6,317.9L541.6,317.9z"/>
				<path class="st2" d="M573.1,321.5l-0.4,0.3l-0.4,0.3l-0.6,0.4L571,323l-0.7,0.6l-0.7,0.6l-0.8,0.6l-0.7,0.5l-0.7,0.6l-0.5,0.4
					c-0.2,0.1-0.4,0.1-0.4,0.1c-0.1,0-0.1-0.2-0.1-0.2c0.1-0.1,0.3-0.2,0.3-0.2l0.4-0.3l0.6-0.4l0.6-0.4l0.6-0.5l0.5-0.4l0.6-0.5
					l0.5-0.5l0.7-0.6l0.9-0.9l0.3-0.5l0.3-0.2h0.3l0.2,0.1L573.1,321.5z"/>
				<path class="st3" d="M573.1,321.5l-0.4,0.3l-0.4,0.3l-0.6,0.4L571,323l-0.7,0.6l-0.7,0.6l-0.8,0.6l-0.7,0.5l-0.7,0.6l-0.5,0.4
					c-0.2,0.1-0.4,0.1-0.4,0.1c-0.1,0-0.1-0.2-0.1-0.2c0.1-0.1,0.3-0.2,0.3-0.2l0.4-0.3l0.6-0.4l0.6-0.4l0.6-0.5l0.5-0.4l0.6-0.5
					l0.5-0.5l0.7-0.6l0.9-0.9l0.3-0.5l0.3-0.2h0.3l0.2,0.1L573.1,321.5z"/>
				<path class="st2" d="M569,325.5c0.1,0.1,0,0.2,0,0.2l-0.3,0.4l-1.9,1.5l-0.4,0.4l-0.5,0.4l-0.4,0.4l-0.3,0.2
					c-0.1,0.1-0.2,0.1-0.2,0c0-0.1,0.2-0.3,0.2-0.3c0.1-0.1,0.7-0.5,0.7-0.5l0.6-0.5l0.6-0.5l0.8-0.6l0.4-0.3l0.3-0.3l0.1-0.2
					C568.9,325.4,569,325.5,569,325.5"/>
				<path class="st3" d="M569,325.5c0.1,0.1,0,0.2,0,0.2l-0.3,0.4l-1.9,1.5l-0.4,0.4l-0.5,0.4l-0.4,0.4l-0.3,0.2
					c-0.1,0.1-0.2,0.1-0.2,0c0-0.1,0.2-0.3,0.2-0.3c0.1-0.1,0.7-0.5,0.7-0.5l0.6-0.5l0.6-0.5l0.8-0.6l0.4-0.3l0.3-0.3l0.1-0.2
					C568.9,325.4,569,325.5,569,325.5z"/>
				<polygon class="st2" points="571.7,320.8 571.5,320.9 571.4,321.1 571.1,321.4 570.7,321.7 570.2,322.1 569.9,322.3 
					569.5,322.7 569.2,323 568.8,323.4 568.6,323.6 568.3,323.8 568.1,324 567.9,324.2 567.7,324.3 567.5,324.2 567.5,324.1 
					567.6,323.9 568,323.6 568.3,323.4 568.7,323 569.1,322.6 569.5,322.2 569.9,321.8 570.4,321.4 570.8,321 571.1,320.6 
					571.2,320.5 571.4,320.5 571.5,320.6 				"/>
				<polygon class="st3" points="571.7,320.8 571.5,320.9 571.4,321.1 571.1,321.4 570.7,321.7 570.2,322.1 569.9,322.3 
					569.5,322.7 569.2,323 568.8,323.4 568.6,323.6 568.3,323.8 568.1,324 567.9,324.2 567.7,324.3 567.5,324.2 567.5,324.1 
					567.6,323.9 568,323.6 568.3,323.4 568.7,323 569.1,322.6 569.5,322.2 569.9,321.8 570.4,321.4 570.8,321 571.1,320.6 
					571.2,320.5 571.4,320.5 571.5,320.6 				"/>
				<path class="st2" d="M570.6,320.3l-0.2,0.1l-0.2,0.2l-0.2,0.2l-0.1,0.2l-0.3,0.3l-0.2,0.2l-0.2,0.2l-0.2,0.2l-0.2,0.2l-0.1,0.1
					l-0.1,0.1c-0.2,0.1-0.3,0-0.3,0c0-0.2,0.1-0.3,0.1-0.3l0.1-0.2l0.2-0.2l0.2-0.2l0.3-0.3l0.2-0.3l0.2-0.2l0.1-0.2l0.2-0.1l0-0.1
					l0-0.1c0,0,0.1,0,0.2,0c0,0,0.2,0,0.2,0l0.1,0l0.1,0L570.6,320.3z"/>
				<path class="st3" d="M570.6,320.3l-0.2,0.1l-0.2,0.2l-0.2,0.2l-0.1,0.2l-0.3,0.3l-0.2,0.2l-0.2,0.2l-0.2,0.2l-0.2,0.2l-0.1,0.1
					l-0.1,0.1c-0.2,0.1-0.3,0-0.3,0c0-0.2,0.1-0.3,0.1-0.3l0.1-0.2l0.2-0.2l0.2-0.2l0.3-0.3l0.2-0.3l0.2-0.2l0.1-0.2l0.2-0.1l0-0.1
					l0-0.1c0,0,0.1,0,0.2,0c0,0,0.2,0,0.2,0l0.1,0l0.1,0L570.6,320.3z"/>
				<path class="st1" d="M566.2,319.8l-0.4,0.2l-0.5,0.8l-1,1.8l-1.7,2.4c-0.6,1-1.3,1.3-1.3,1.3c-0.4,0.1-1.4,0.3-1.4,0.3l1.1-0.8
					c0.6-0.3,1.6-1.5,1.6-1.5l0.8-1l0.6-0.9l0.5-0.7l0.6-0.9c0.1-0.1,0.5-1.8,0.5-1.8l0.2,0l0.2,0.2l0.2,0.2L566.2,319.8z"/>
				<path class="st3" d="M566.2,319.8l-0.4,0.2l-0.5,0.8l-1,1.8l-1.7,2.4c-0.6,1-1.3,1.3-1.3,1.3c-0.4,0.1-1.4,0.3-1.4,0.3l1.1-0.8
					c0.6-0.3,1.6-1.5,1.6-1.5l0.8-1l0.6-0.9l0.5-0.7l0.6-0.9c0.1-0.1,0.5-1.8,0.5-1.8l0.2,0l0.2,0.2l0.2,0.2L566.2,319.8z"/>
				<polygon class="st2" points="565.4,319 565.3,319.2 564.8,319.9 564.4,320.4 563.9,321.1 563.5,321.7 563,322.2 562.6,322.8 
					562.1,323.3 561.6,323.9 561.1,324.4 560.6,324.9 560.1,325.3 559.7,325.7 558.7,326.8 558,326.9 558.9,326.1 559.3,325.7 
					560,325.1 560.4,324.7 560.9,324.2 561.2,323.9 561.5,323.6 561.9,323.2 562.3,322.7 562.6,322.2 563.2,321.5 563.6,321 
					564.2,320.1 564.9,319 565.1,318.5 565.5,318.7 				"/>
				<polygon class="st3" points="565.4,319 565.3,319.2 564.8,319.9 564.4,320.4 563.9,321.1 563.5,321.7 563,322.2 562.6,322.8 
					562.1,323.3 561.6,323.9 561.1,324.4 560.6,324.9 560.1,325.3 559.7,325.7 558.7,326.8 558,326.9 558.9,326.1 559.3,325.7 
					560,325.1 560.4,324.7 560.9,324.2 561.2,323.9 561.5,323.6 561.9,323.2 562.3,322.7 562.6,322.2 563.2,321.5 563.6,321 
					564.2,320.1 564.9,319 565.1,318.5 565.5,318.7 				"/>
				<path class="st2" d="M564.7,318.1l-0.2,0.4l-0.2,0.4l-0.5,0.7l-0.7,0.8l-1,1.3l-0.6,0.8l-0.4,0.5l-0.9,1.1l-0.4,0.4l-0.9,0.9
					l-0.4,0.4l-0.7,0.6c-1.1,0.9-1.5,0.9-1.5,0.9c-0.4,0.1-0.8,0.1-0.8,0.1s0.4-0.3,0.5-0.3c0,0,0.3-0.1,0.3-0.1l0.4-0.2l0.4-0.3
					l0.5-0.4l0.4-0.4l1-0.9l0.6-0.6l0.5-0.6l0.8-0.9l0.7-0.8l0.6-0.7l1-1.3l1-1.5c0,0,0.1-0.2,0.1-0.2
					C564.7,317.5,564.7,318.1,564.7,318.1"/>
				<path class="st3" d="M564.7,318.1l-0.2,0.4l-0.2,0.4l-0.5,0.7l-0.7,0.8l-1,1.3l-0.6,0.8l-0.4,0.5l-0.9,1.1l-0.4,0.4l-0.9,0.9
					l-0.4,0.4l-0.7,0.6c-1.1,0.9-1.5,0.9-1.5,0.9c-0.4,0.1-0.8,0.1-0.8,0.1s0.4-0.3,0.5-0.3c0,0,0.3-0.1,0.3-0.1l0.4-0.2l0.4-0.3
					l0.5-0.4l0.4-0.4l1-0.9l0.6-0.6l0.5-0.6l0.8-0.9l0.7-0.8l0.6-0.7l1-1.3l1-1.5c0,0,0.1-0.2,0.1-0.2
					C564.7,317.5,564.7,318.1,564.7,318.1z"/>
				<path class="st2" d="M556.3,325.3l-0.3,0.2l-0.5,0.3l-0.5,0.3l-0.4,0.2l-0.3,0.1l-0.5,0.2l-0.6,0.1l-0.8,0.1l-0.6,0
					c0,0-0.9,0.2,0,0.4c0,0,0.5,0,0.5,0l0.7-0.1c0.7,0,1.4-0.4,1.5-0.4c0,0,0.9-0.4,0.9-0.4l1.5-1l1.1-1
					C558.1,324,556.3,325.3,556.3,325.3"/>
				<path class="st3" d="M556.3,325.3l-0.3,0.2l-0.5,0.3l-0.5,0.3l-0.4,0.2l-0.3,0.1l-0.5,0.2l-0.6,0.1l-0.8,0.1l-0.6,0
					c0,0-0.9,0.2,0,0.4c0,0,0.5,0,0.5,0l0.7-0.1c0.7,0,1.4-0.4,1.5-0.4c0,0,0.9-0.4,0.9-0.4l1.5-1l1.1-1
					C558.1,324,556.3,325.3,556.3,325.3z"/>
				<path class="st2" d="M547.4,334.2c-1.7,0.4-2.2,0.3-2.2,0.3l-5.4,0.2c-0.9,0-1.3-0.2-1.3-0.2l1.3-0.2c1.7,0,6.9-0.7,6.9-0.7
					l2.2-0.3L547.4,334.2z"/>
				<path class="st3" d="M547.4,334.2c-1.7,0.4-2.2,0.3-2.2,0.3l-5.4,0.2c-0.9,0-1.3-0.2-1.3-0.2l1.3-0.2c1.7,0,6.9-0.7,6.9-0.7
					l2.2-0.3L547.4,334.2z"/>
				<path class="st1" d="M549.5,332.5l-2.3,0.5l-3.1,0.4c0,0-1.6,0.1-1.7,0.1c-0.2,0-0.4-0.1-0.4-0.1c0-0.1,0-0.1,0-0.1
					s0.2-0.1,0.3-0.1s1.8-0.1,1.8-0.1l3.6-0.5l2.4-0.6l1-0.3L549.5,332.5z"/>
				<path class="st3" d="M549.5,332.5l-2.3,0.5l-3.1,0.4c0,0-1.6,0.1-1.7,0.1c-0.2,0-0.4-0.1-0.4-0.1c0-0.1,0-0.1,0-0.1
					s0.2-0.1,0.3-0.1s1.8-0.1,1.8-0.1l3.6-0.5l2.4-0.6l1-0.3L549.5,332.5z"/>
				<path class="st2" d="M553.6,330.6l-2.3,0.5l-2.3,0.4l-3,0.4c-0.6,0.1-1.2,0-1.2,0c-0.2,0-0.2-0.1-0.2-0.1c0-0.1,0.2-0.2,0.3-0.2
					c0.1,0,0.4,0,0.4,0c0.4,0,2.3-0.3,2.3-0.3l2.3-0.4c0,0,1.7-0.4,1.9-0.4c0.2,0,1.9-0.5,1.9-0.5L553.6,330.6z"/>
				<path class="st3" d="M553.6,330.6l-2.3,0.5l-2.3,0.4l-3,0.4c-0.6,0.1-1.2,0-1.2,0c-0.2,0-0.2-0.1-0.2-0.1c0-0.1,0.2-0.2,0.3-0.2
					c0.1,0,0.4,0,0.4,0c0.4,0,2.3-0.3,2.3-0.3l2.3-0.4c0,0,1.7-0.4,1.9-0.4c0.2,0,1.9-0.5,1.9-0.5L553.6,330.6z"/>
				<polygon class="st2" points="549.5,321.5 549.2,321.4 548.9,321.4 548.7,321.5 548.4,321.6 548.1,321.8 547.7,322.1 
					547.2,322.4 546.9,322.5 546.8,322.6 546.5,322.7 546.5,322.6 546.6,322.5 546.8,322.4 547,322.2 547.5,321.8 547.9,321.5 
					548.4,321.3 548.6,321.1 548.9,321 549.1,320.8 549.4,320.8 549.6,321.2 				"/>
				<polygon class="st3" points="549.5,321.5 549.2,321.4 548.9,321.4 548.7,321.5 548.4,321.6 548.1,321.8 547.7,322.1 
					547.2,322.4 546.9,322.5 546.8,322.6 546.5,322.7 546.5,322.6 546.6,322.5 546.8,322.4 547,322.2 547.5,321.8 547.9,321.5 
					548.4,321.3 548.6,321.1 548.9,321 549.1,320.8 549.4,320.8 549.6,321.2 				"/>
				<path class="st2" d="M549.3,320.2c-0.1,0-0.3-0.1-0.3-0.1l-0.2,0.1l-0.4,0.3l-0.2,0.1l-0.4,0.2l-0.3,0.2l-0.2,0.2l-0.2,0.1
					l-0.3,0.1l-0.2,0.1c0,0.1-0.2,0-0.2,0s0-0.1,0.1-0.2c0.1-0.1,0.3-0.1,0.3-0.2c0.1-0.1,0.6-0.5,0.6-0.5l0.7-0.5l0.6-0.4
					c0,0,0.4-0.2,0.5-0.2c0.1,0,0.2-0.3,0.2-0.3l0.2-0.1l0.4,0.3c0,0-0.1,0.2-0.1,0.3c0,0.1-0.2,0.3-0.2,0.3
					S549.4,320.2,549.3,320.2"/>
				<path class="st3" d="M549.3,320.2c-0.1,0-0.3-0.1-0.3-0.1l-0.2,0.1l-0.4,0.3l-0.2,0.1l-0.4,0.2l-0.3,0.2l-0.2,0.2l-0.2,0.1
					l-0.3,0.1l-0.2,0.1c0,0.1-0.2,0-0.2,0s0-0.1,0.1-0.2c0.1-0.1,0.3-0.1,0.3-0.2c0.1-0.1,0.6-0.5,0.6-0.5l0.7-0.5l0.6-0.4
					c0,0,0.4-0.2,0.5-0.2c0.1,0,0.2-0.3,0.2-0.3l0.2-0.1l0.4,0.3c0,0-0.1,0.2-0.1,0.3c0,0.1-0.2,0.3-0.2,0.3
					S549.4,320.2,549.3,320.2z"/>
				<path class="st2" d="M548.7,318.1l-0.3,0.2l-0.4,0.2l-0.5,0.3l-0.4,0.3l-0.3,0.2c0,0,0,0-0.2,0.1c-0.3,0.1-0.4,0.1-0.4,0.1
					c-0.1,0-0.2-0.1-0.1-0.2c0.1-0.1,0.3-0.2,0.3-0.2l0.3-0.2l0.4-0.4l0.3-0.3l0.3-0.2l0.3-0.2l0.2-0.1l0.2-0.1l0.2-0.2l0-0.3
					l-0.2,0l-0.2,0.1l-0.4,0.3l-0.6,0.4l-0.3,0.2l-0.2,0.2c0,0-0.2,0.1-0.3,0.1c-0.1,0-0.2,0-0.3,0c-0.2,0-0.2-0.1-0.2-0.1
					c0-0.1,0.3-0.2,0.3-0.2l0.8-0.4l0.4-0.3l0.3-0.2l0.3-0.2l0.3-0.1l0.2-0.1l0.1,0l0.2,0.4v0.4L548.7,318.1z"/>
				<path class="st3" d="M548.7,318.1l-0.3,0.2l-0.4,0.2l-0.5,0.3l-0.4,0.3l-0.3,0.2c0,0,0,0-0.2,0.1c-0.3,0.1-0.4,0.1-0.4,0.1
					c-0.1,0-0.2-0.1-0.1-0.2c0.1-0.1,0.3-0.2,0.3-0.2l0.3-0.2l0.4-0.4l0.3-0.3l0.3-0.2l0.3-0.2l0.2-0.1l0.2-0.1l0.2-0.2l0-0.3
					l-0.2,0l-0.2,0.1l-0.4,0.3l-0.6,0.4l-0.3,0.2l-0.2,0.2c0,0-0.2,0.1-0.3,0.1c-0.1,0-0.2,0-0.3,0c-0.2,0-0.2-0.1-0.2-0.1
					c0-0.1,0.3-0.2,0.3-0.2l0.8-0.4l0.4-0.3l0.3-0.2l0.3-0.2l0.3-0.1l0.2-0.1l0.1,0l0.2,0.4v0.4L548.7,318.1z"/>
				<path class="st2" d="M548.7,315.7l-0.4,0.3l-0.4,0.2l-0.4,0.2l-0.3,0.2l-0.4,0.2l-0.3,0.2l-0.2,0.1l-0.3,0.1c0,0-0.1,0-0.1-0.1
					c0-0.1,0.1-0.2,0.1-0.2s0.3-0.1,0.3-0.2c0-0.1,0.4-0.2,0.4-0.2c0-0.1,0.3-0.3,0.3-0.3s0.2-0.1,0.3-0.2c0.1-0.1,0.4-0.3,0.4-0.3
					s0.3-0.1,0.3-0.2c0-0.1,0.1-0.1,0.1-0.2c0.1-0.1,0.2-0.2,0.2-0.2s0.2-0.1,0.2,0c0.1,0.1,0.1,0.2,0.1,0.2L548.7,315.7z"/>
				<path class="st3" d="M548.7,315.7l-0.4,0.3l-0.4,0.2l-0.4,0.2l-0.3,0.2l-0.4,0.2l-0.3,0.2l-0.2,0.1l-0.3,0.1c0,0-0.1,0-0.1-0.1
					c0-0.1,0.1-0.2,0.1-0.2s0.3-0.1,0.3-0.2c0-0.1,0.4-0.2,0.4-0.2c0-0.1,0.3-0.3,0.3-0.3s0.2-0.1,0.3-0.2c0.1-0.1,0.4-0.3,0.4-0.3
					s0.3-0.1,0.3-0.2c0-0.1,0.1-0.1,0.1-0.2c0.1-0.1,0.2-0.2,0.2-0.2s0.2-0.1,0.2,0c0.1,0.1,0.1,0.2,0.1,0.2L548.7,315.7z"/>
				<path class="st2" d="M561.1,315.1l-0.3,0.1l-0.3,0.2l-0.3,0.2l-0.2,0.1l-0.3,0.2l-0.3,0.1l-0.4,0.2l-0.3,0.1l-0.3,0.1
					c0,0-0.1,0.1-0.2,0c-0.1-0.1-0.1-0.2-0.1-0.2s0.1-0.1,0.2-0.1c0.1,0,0.5-0.2,0.5-0.2l0.6-0.3l0.5-0.3l0.4-0.2l0.3-0.2l0.3-0.1
					l0.2,0.1V315.1z"/>
				<path class="st3" d="M561.1,315.1l-0.3,0.1l-0.3,0.2l-0.3,0.2l-0.2,0.1l-0.3,0.2l-0.3,0.1l-0.4,0.2l-0.3,0.1l-0.3,0.1
					c0,0-0.1,0.1-0.2,0c-0.1-0.1-0.1-0.2-0.1-0.2s0.1-0.1,0.2-0.1c0.1,0,0.5-0.2,0.5-0.2l0.6-0.3l0.5-0.3l0.4-0.2l0.3-0.2l0.3-0.1
					l0.2,0.1V315.1z"/>
				<polygon class="st2" points="560.8,314 560.6,314.1 560.2,314.4 559.8,314.6 559.4,314.9 559,315.1 558.2,315.5 557.5,315.8 
					557.2,316 556.8,316.1 556.6,316 556.8,315.8 557.2,315.6 558.1,315.2 558.6,314.9 559.6,314.3 560.4,313.7 560.6,313.6 
					560.8,313.7 				"/>
				<polygon class="st3" points="560.8,314 560.6,314.1 560.2,314.4 559.8,314.6 559.4,314.9 559,315.1 558.2,315.5 557.5,315.8 
					557.2,316 556.8,316.1 556.6,316 556.8,315.8 557.2,315.6 558.1,315.2 558.6,314.9 559.6,314.3 560.4,313.7 560.6,313.6 
					560.8,313.7 				"/>
				<polygon class="st2" points="560.7,313.1 560.4,313.1 560.1,313.3 559.8,313.6 559.6,313.8 559.2,314 558.7,314.3 558.1,314.6 
					557.6,314.8 556.9,315.1 556.4,315.4 555.8,315.6 555.6,315.6 555.5,315.5 555.6,315.3 556,315.1 556.5,314.9 557.5,314.5 
					558.4,314 559.1,313.5 559.6,313.2 559.9,313.1 560.1,312.9 560.4,312.7 560.7,312.7 				"/>
				<polygon class="st3" points="560.7,313.1 560.4,313.1 560.1,313.3 559.8,313.6 559.6,313.8 559.2,314 558.7,314.3 558.1,314.6 
					557.6,314.8 556.9,315.1 556.4,315.4 555.8,315.6 555.6,315.6 555.5,315.5 555.6,315.3 556,315.1 556.5,314.9 557.5,314.5 
					558.4,314 559.1,313.5 559.6,313.2 559.9,313.1 560.1,312.9 560.4,312.7 560.7,312.7 				"/>
				<path class="st2" d="M560.5,312l-0.4,0.1l-0.3,0.1l-0.5,0.3l-0.6,0.4l-0.7,0.4l-0.7,0.4l-0.5,0.3l-0.7,0.3l-0.4,0.2l-0.6,0.2
					l-0.4,0.2l-0.4,0.1l-0.4,0l-0.3,0l-0.3-0.1l0.1-0.2c0,0,0.2-0.1,0.3-0.1c0.1,0,0.7-0.2,0.7-0.2l0.9-0.3l0.7-0.4l1.1-0.6l1.1-0.6
					l0.6-0.3l0.6-0.3c0,0,0.3-0.2,0.3-0.2c0.1,0,0.2-0.1,0.2-0.2c0-0.1,0.1-0.3,0.1-0.3l0.2,0.1l0.1,0.3L560.5,312z"/>
				<path class="st3" d="M560.5,312l-0.4,0.1l-0.3,0.1l-0.5,0.3l-0.6,0.4l-0.7,0.4l-0.7,0.4l-0.5,0.3l-0.7,0.3l-0.4,0.2l-0.6,0.2
					l-0.4,0.2l-0.4,0.1l-0.4,0l-0.3,0l-0.3-0.1l0.1-0.2c0,0,0.2-0.1,0.3-0.1c0.1,0,0.7-0.2,0.7-0.2l0.9-0.3l0.7-0.4l1.1-0.6l1.1-0.6
					l0.6-0.3l0.6-0.3c0,0,0.3-0.2,0.3-0.2c0.1,0,0.2-0.1,0.2-0.2c0-0.1,0.1-0.3,0.1-0.3l0.2,0.1l0.1,0.3L560.5,312z"/>
				<path class="st2" d="M549.1,319.1l-0.3,0.1l-0.2,0.2l-0.4,0.2l-0.3,0.2l-0.3,0.2l-0.3,0.2l-0.1,0.1l-0.3,0.2l-0.2,0.2
					c0,0-0.2,0.1-0.3,0.1c-0.1,0-0.2,0-0.2,0s0-0.2,0.1-0.2c0.1,0,0.3-0.2,0.3-0.2l0.3-0.2l0.3-0.2l0.2-0.2l0.3-0.2l0.3-0.2l0.3-0.2
					l0.2-0.1l0.2-0.1l0.2-0.1l0.3,0.1l0.2,0.1L549.1,319.1z"/>
				<path class="st3" d="M549.1,319.1l-0.3,0.1l-0.2,0.2l-0.4,0.2l-0.3,0.2l-0.3,0.2l-0.3,0.2l-0.1,0.1l-0.3,0.2l-0.2,0.2
					c0,0-0.2,0.1-0.3,0.1c-0.1,0-0.2,0-0.2,0s0-0.2,0.1-0.2c0.1,0,0.3-0.2,0.3-0.2l0.3-0.2l0.3-0.2l0.2-0.2l0.3-0.2l0.3-0.2l0.3-0.2
					l0.2-0.1l0.2-0.1l0.2-0.1l0.3,0.1l0.2,0.1L549.1,319.1z"/>
				<path class="st2" d="M549.1,319.1l-0.3,0.1l-0.2,0.2l-0.4,0.2l-0.3,0.2l-0.3,0.2l-0.3,0.2l-0.1,0.1l-0.3,0.2l-0.2,0.2
					c0,0-0.2,0.1-0.3,0.1c-0.2,0-0.2-0.2-0.1-0.2c0.1,0,0.3-0.2,0.3-0.2l0.3-0.2l0.3-0.2l0.2-0.2l0.3-0.2l0.3-0.2l0.3-0.2l0.2-0.1
					l0.2-0.1l0.2-0.1l0.3,0.1l0.2,0.1L549.1,319.1z"/>
				<path class="st3" d="M549.1,319.1l-0.3,0.1l-0.2,0.2l-0.4,0.2l-0.3,0.2l-0.3,0.2l-0.3,0.2l-0.1,0.1l-0.3,0.2l-0.2,0.2
					c0,0-0.2,0.1-0.3,0.1c-0.2,0-0.2-0.2-0.1-0.2c0.1,0,0.3-0.2,0.3-0.2l0.3-0.2l0.3-0.2l0.2-0.2l0.3-0.2l0.3-0.2l0.3-0.2l0.2-0.1
					l0.2-0.1l0.2-0.1l0.3,0.1l0.2,0.1L549.1,319.1z"/>
				<path class="st2" d="M547.3,339.1l0.1-0.2l0.1-0.3l0.2-0.1l0.1-0.1l0.1-0.3c0,0-0.2,0.1-0.2,0.1l-0.3,0.1l-0.2,0.1l-0.2,0.1
					l-0.1,0.7L547.3,339.1z"/>
				<path class="st4" d="M547.3,339.1l0.1-0.2l0.1-0.3l0.2-0.1l0.1-0.1l0.1-0.3c0,0-0.2,0.1-0.2,0.1l-0.3,0.1l-0.2,0.1l-0.2,0.1
					l-0.1,0.7L547.3,339.1z"/>
				<path class="st2" d="M520.7,352c0.4-0.3,0.5-0.9,0.2-1.2c-0.3-0.4-0.9-0.5-1.2-0.2c-0.4,0.3-0.5,0.8-0.2,1.2
					C519.8,352.2,520.3,352.3,520.7,352"/>
				<polygon class="st2" points="528.7,362.7 528.3,362.4 527.7,363.2 524.6,360.6 531.8,358.8 532,358.5 527.9,355.1 528.1,354.9 
					527.7,354.5 526.6,355.8 527,356.1 527.5,355.5 530.4,358 523.2,359.8 523,360.1 527.7,364 				"/>
				<path class="st2" d="M541.6,364.3l-2.6-1.5l-0.3,0.5l1,0.5l-1.8,3.3c-0.6,1.1-1.7,1.4-2.7,0.9c-1-0.5-1.2-1.6-0.6-2.7l1.8-3.3
					l1,0.6l0.3-0.5l-3-1.7l-0.3,0.5l1,0.6l-2,3.6c-0.7,1.2-0.2,2.7,1.2,3.5c1.5,0.8,3.1,0.4,3.9-1l1.8-3.3l1,0.5L541.6,364.3z"/>
				<path class="st1" d="M548.7,367.3l1,0.3c0.7,0.2,1,0.7,0.8,1.4c-0.2,0.7-0.8,1.1-1.5,0.9l-0.9-0.2L548.7,367.3z M548,370.3
					l1.1,0.3c1,0.2,1.3,0.8,1.1,1.7c-0.2,0.8-0.8,1.1-1.8,0.9l-1-0.3L548,370.3z M548.7,373.9c1.4,0.3,2.3-0.1,2.6-1.2
					c0.3-1.1-0.4-2-1.8-2.3c1.1,0.3,2-0.2,2.2-1c0.3-1-0.4-1.9-1.6-2.2l-3.6-0.9l-0.1,0.5l1.1,0.3l-1.4,5.7l-1.1-0.3L545,373
					L548.7,373.9z"/>
				<polygon class="st2" points="561.8,373.9 561.3,373.9 561.2,374.7 558.7,374.6 558.8,371.9 560.7,372 560.7,372.8 561.2,372.8 
					561.3,370.7 560.7,370.7 560.7,371.4 558.8,371.3 558.9,368.8 561.3,368.9 561.3,369.7 561.9,369.7 561.9,368 561.4,368 
					561.3,368.3 556.6,368.1 556.6,368.7 557.7,368.7 557.5,374.6 556.4,374.5 556.4,375.1 561.8,375.3 				"/>
				<path class="st1" d="M568.5,368.3l1-0.2c0.8-0.1,1.3,0.3,1.4,1.1c0.1,0.8-0.2,1.4-1,1.6l-1.1,0.2L568.5,368.3z M573.9,373.3
					l-0.4,0.1c-0.3,0.1-0.6-0.1-1-0.4l-1.7-1.8c1-0.3,1.4-1.2,1.3-2.2c-0.2-1.2-1.1-1.7-2.5-1.5l-3.5,0.6l0.1,0.6l1.1-0.2l0.9,5.7
					l-1.1,0.2l0.1,0.6l3.4-0.5l-0.1-0.6l-1.1,0.2l-0.4-2.5l0.7-0.1l2,2.1c0.5,0.5,0.6,0.5,1.2,0.4l1.1-0.2L573.9,373.3z"/>
				<polygon class="st2" points="583.1,369.1 582.6,369.2 582.9,370.1 580.5,371 578.5,365.6 579.5,365.2 579.3,364.7 576.1,365.9 
					576.3,366.5 577.4,366.1 579.5,371.5 578.4,371.9 578.6,372.4 583.6,370.5 				"/>
				<polygon class="st2" points="590,366.3 589.1,366.8 586.1,361.9 587,361.3 586.7,360.8 583.8,362.5 584.1,363.1 585.1,362.5 
					588.1,367.4 587.1,368 587.4,368.5 590.3,366.7 				"/>
				<polygon class="st2" points="595.8,354.3 596.6,353.5 596.2,353.1 594,355.1 594.4,355.6 595.2,354.8 598.1,357.9 591.7,357.2 
					590.3,358.5 590.7,359 591.5,358.3 591.9,358.3 595.6,362.3 594.8,363.1 595.2,363.5 597.4,361.4 597,361 596.2,361.8 
					593.2,358.5 599.8,359.3 600.2,359 				"/>
				<path class="st2" d="M602.6,350.3c-0.4-0.3-1-0.2-1.2,0.2c-0.3,0.4-0.2,1,0.2,1.2c0.4,0.3,1,0.2,1.2-0.2
					C603.1,351.1,603,350.6,602.6,350.3"/>
				<polygon class="st2" points="515.1,336.4 515.6,337.4 510.2,339.8 509.8,338.8 509.3,339 510.6,342.1 511.2,341.9 510.7,340.8 
					513.1,339.8 514.7,343.6 512.4,344.6 511.9,343.6 511.4,343.8 512.8,346.9 513.3,346.7 512.8,345.6 518.2,343.3 518.6,344.3 
					519.1,344.1 517.8,341 517.2,341.2 517.7,342.2 515.3,343.3 513.6,339.6 516,338.5 516.5,339.5 517,339.3 515.6,336.2 				"/>
				<path class="st2" d="M506.5,325.2l0.5,3l0.6-0.1l-0.2-1.1l3.7-0.6c1.2-0.2,2.2,0.5,2.4,1.6c0.2,1.1-0.5,1.9-1.8,2.1l-3.7,0.6
					l-0.2-1.1l-0.6,0.1l0.5,3.4l0.6-0.1l-0.2-1.1l4-0.6c1.4-0.2,2.2-1.5,2-3.1c-0.3-1.7-1.6-2.7-3.2-2.4l-3.8,0.6l-0.2-1.1
					L506.5,325.2z"/>
				<polygon class="st2" points="513.7,310.6 513.6,311.7 507.8,311 508,309.9 507.4,309.8 507.1,312.1 511.9,315.2 506.5,316.9 
					506.2,319.1 506.8,319.2 507,318.1 512.7,318.8 512.6,319.9 513.1,320 513.5,317 513,316.9 512.8,318 508.1,317.5 513.8,315.6 
					508.5,312.2 513.5,312.8 513.3,314 513.9,314 514.3,310.7 				"/>
				<path class="st1" d="M510.4,301.9l0.4-1c0.3-0.7,0.8-0.9,1.5-0.6c0.7,0.3,1,0.9,0.7,1.6l-0.3,0.9L510.4,301.9z M513.3,303l0.4-1
					c0.4-0.9,1-1.2,1.9-0.9c0.8,0.3,1,0.9,0.7,1.9l-0.4,1L513.3,303z M516.9,302.7c0.5-1.3,0.2-2.3-0.9-2.8c-1.1-0.4-2,0.1-2.5,1.5
					c0.4-1,0.1-2-0.8-2.3c-1-0.4-1.9,0.1-2.4,1.3l-1.3,3.4l0.5,0.2l0.4-1.1l5.4,2.1l-0.4,1.1l0.5,0.2L516.9,302.7z"/>
				<path class="st1" d="M516.3,290.3c0.7-1,2.4-1.1,3.8-0.1c1.4,1,1.9,2.6,1.2,3.6c-0.7,1-2.4,1.1-3.8,0.1
					C516.1,292.9,515.6,291.3,516.3,290.3 M521.8,294.1c1.1-1.6,0.6-3.9-1-5c-1.6-1.1-3.9-0.7-5,0.8c-1.1,1.6-0.7,3.9,0.9,5
					C518.4,296.1,520.7,295.7,521.8,294.1"/>
				<polygon class="st2" points="529.3,283.1 528.9,283.5 529.5,284.2 527.7,285.9 523.7,281.8 524.6,281 524.1,280.6 521.7,282.9 
					522.1,283.4 522.9,282.6 526.9,286.8 526.1,287.5 526.5,287.9 530.4,284.2 				"/>
				<path class="st1" d="M534.4,280.5l-3-4.9l1-0.6c1.2-0.7,2.7-0.2,3.6,1.2c0.9,1.4,0.6,3-0.6,3.7L534.4,280.5z M532.8,282.2l3-1.9
					c1.8-1.1,2.3-3.2,1.2-4.9c-1-1.6-3.2-2.1-4.9-1l-3,1.9l0.3,0.5l1-0.6l3.1,4.9l-1,0.6L532.8,282.2z"/>
				<polygon class="st2" points="546.7,274.8 545.5,275.2 543.6,269.7 545.7,269 545.9,269.8 546.4,269.6 545.9,268 545.4,268.2 
					545.5,268.4 540.2,270.2 540.1,270 539.6,270.1 540.2,271.8 540.7,271.6 540.4,270.8 542.5,270.1 544.4,275.6 543.2,276 
					543.4,276.5 546.8,275.3 				"/>
				
					<rect x="550.1" y="270" transform="matrix(0.9815 -0.1916 0.1916 0.9815 -41.6285 110.7083)" class="st2" width="2.9" height="1.1"/>
				<path class="st2" d="M565.6,266.3l-3-0.1l0,0.6l1.1,0l-0.1,3.8c0,1.2-0.8,2.1-2,2.1c-1.1,0-1.8-0.9-1.8-2.1l0.1-3.8l1.1,0l0-0.6
					l-3.4-0.1l0,0.6l1.1,0l-0.1,4.1c0,1.4,1.1,2.5,2.7,2.5c1.7,0,2.9-1.1,2.9-2.7l0.1-3.8l1.1,0L565.6,266.3z"/>
				<polygon class="st2" points="577.9,269.4 579,269.7 579.1,269.1 576.2,268.3 576,268.9 577.1,269.2 576,273.3 573.2,267.5 
					571.3,267 571.2,267.6 572.2,267.9 572.4,268.3 571,273.5 569.9,273.2 569.8,273.8 572.7,274.6 572.8,274 571.7,273.7 
					572.9,269.4 575.8,275.5 576.2,275.6 				"/>
				<polygon class="st2" points="584.6,278.7 583.6,278.2 586.3,273 587.3,273.6 587.6,273 584.6,271.4 584.3,272 585.3,272.5 
					582.6,277.6 581.6,277.1 581.3,277.6 584.3,279.2 				"/>
				<polygon class="st2" points="595.8,279.3 596.3,279.7 596.7,279.2 594.9,277.9 594.6,278.4 595.2,278.9 590.9,281.5 
					592.2,276.6 592.9,277.2 593.3,276.7 591,274.9 590.6,275.4 591.2,275.8 589.4,282.7 589.7,282.9 				"/>
				<polygon class="st2" points="599.6,290.3 599.3,289.9 598.7,290.4 597,288.5 598.9,286.8 600.2,288.2 599.7,288.7 600,289.1 
					601.6,287.7 601.2,287.3 600.7,287.8 599.4,286.4 601.2,284.7 602.9,286.5 602.3,287 602.7,287.4 603.9,286.3 603.6,285.9 
					603.3,286.1 600.2,282.6 599.8,283 600.5,283.8 596.2,287.7 595.4,286.9 595,287.2 598.6,291.2 				"/>
				<path class="st1" d="M607.8,293.7l0.5,0.9c0.4,0.7,0.2,1.3-0.6,1.7c-0.7,0.4-1.4,0.3-1.8-0.4l-0.5-0.9L607.8,293.7z M605,300.6
					l-0.2-0.4c-0.2-0.3-0.1-0.6,0.1-1l1.1-2.2c0.6,0.8,1.6,1,2.5,0.5c1.1-0.6,1.3-1.6,0.5-2.9l-1.7-3.1l-0.5,0.3l0.5,1l-5.1,2.8
					l-0.5-1l-0.5,0.3l1.6,3l0.5-0.3l-0.5-1l2.2-1.2l0.4,0.6l-1.3,2.6c-0.3,0.6-0.3,0.7,0,1.3l0.5,1L605,300.6z"/>
				<path class="st2" d="M606.3,304.7c-0.1,0.7-0.1,1.2,0.1,1.8c0.4,1.2,1.5,1.8,2.6,1.5c0.9-0.3,1.3-0.8,1.6-2.2
					c0.1-0.4,0.2-0.8,0.3-1.2c0.1-0.6,0.3-0.8,0.7-0.9c0.6-0.2,1.1,0.1,1.3,0.8c0.1,0.4,0.1,0.7,0,1.3l-0.7,0.2l0.2,0.5l1.7-0.6
					l-0.2-0.5l-0.4,0.1c0.1-0.5,0.1-0.9-0.1-1.4c-0.4-1.1-1.5-1.8-2.5-1.4c-0.8,0.3-1.2,0.9-1.4,2.3c-0.2,1.4-0.5,1.9-1,2.1
					c-0.6,0.2-1.1-0.2-1.4-0.9c-0.2-0.5-0.2-0.9,0-1.6l0.7-0.2l-0.2-0.5l-1.8,0.6l0.2,0.5L606.3,304.7z"/>
				<polygon class="st2" points="609.1,315.9 608.9,314.7 614.7,313.9 614.8,315 615.4,315 615,311.6 614.4,311.7 614.5,312.8 
					608.8,313.6 608.6,312.5 608.1,312.6 608.5,315.9 				"/>
				<polygon class="st2" points="609.2,324.6 609.3,323.4 615,323.6 615,325.8 614.1,325.7 614.1,326.3 615.8,326.4 615.9,325.8 
					615.6,325.8 615.8,320.3 616.1,320.3 616.1,319.7 614.3,319.7 614.3,320.2 615.2,320.2 615.1,322.4 609.3,322.2 609.3,321 
					608.8,320.9 608.6,324.6 				"/>
				<path class="st1" d="M610.4,331.5l2.3,1.7l-2.8,0.4L610.4,331.5z M616.1,333.9c0.4,0.1,0.8-0.2,0.9-0.5c0.1-0.4-0.2-0.8-0.6-0.9
					c-0.4-0.1-0.8,0.2-0.9,0.6C615.4,333.4,615.7,333.8,616.1,333.9 M615.4,336.5c0.4,0.1,0.8-0.1,0.9-0.5c0.1-0.4-0.2-0.8-0.6-0.9
					c-0.4-0.1-0.8,0.2-0.9,0.6C614.8,335.9,615,336.4,615.4,336.5 M607,335.9l0.2-0.6l7.1-1.1l0.1-0.4l-5.7-4.4l0.1-0.6l-0.5-0.1
					l-0.5,2l0.5,0.1l0.2-0.8l1.4,1.1l-0.7,2.7l-1.8,0.3l0.2-0.6l-0.5-0.1l-0.6,2.5L607,335.9z"/>
				<polygon class="st2" points="603.9,343.2 604.4,342 609.7,344.5 608.7,346.4 608,346.1 607.7,346.6 609.3,347.3 609.6,346.8 
					609.3,346.7 611.6,341.7 611.9,341.8 612.1,341.3 610.5,340.6 610.3,341.1 611.1,341.4 610.2,343.4 604.9,341 605.4,339.8 
					604.9,339.6 603.4,342.9 				"/>
				<polygon class="st2" points="34,325.1 32.2,325.1 32.2,316 34,316 34,315.1 28.7,315.1 28.7,316 30.4,316 30.4,320 24,320 
					24,316 25.8,316 25.8,315.1 20.5,315.1 20.5,316 22.2,316 22.2,325.1 20.5,325.1 20.5,325.9 25.8,325.9 25.8,325.1 24,325.1 
					24,320.9 30.4,320.9 30.4,325.1 28.7,325.1 28.7,325.9 34,325.9 				"/>
				<path class="st2" d="M52.9,315.1h-4.7v0.9h1.8v5.9c0,1.9-1.3,3.3-3,3.3c-1.7,0-2.9-1.3-2.9-3.2V316h1.8v-0.9h-5.3v0.9h1.8v6.4
					c0,2.2,1.8,3.8,4.3,3.8c2.7,0,4.5-1.7,4.5-4.3V316h1.8V315.1z"/>
				<polygon class="st2" points="73.8,325.1 72,325.1 72,316 73.8,316 73.8,315.1 70.1,315.1 66.4,323 62.7,315.1 59.1,315.1 
					59.1,316 60.9,316 60.9,325.1 59.1,325.1 59.1,325.9 63.8,325.9 63.8,325.1 62.1,325.1 62.1,317.7 66,326.1 70.3,317.2 
					70.3,325.1 68.5,325.1 68.5,325.9 73.8,325.9 				"/>
				<path class="st1" d="M84.3,316h1.7c1.2,0,1.8,0.7,1.8,1.8c0,1.2-0.7,2-1.9,2h-1.5V316z M84.3,320.8h1.7c1.6,0,2.3,0.7,2.3,2.2
					c0,1.3-0.8,2-2.3,2h-1.7V320.8z M86.8,325.9c2.2,0,3.5-1,3.5-2.8c0-1.8-1.3-2.8-3.5-2.9c1.7,0,3-1,3-2.4c0-1.6-1.3-2.7-3.3-2.7
					h-5.7v0.9h1.8v9.1h-1.8v0.9H86.8z"/>
				<path class="st1" d="M102,315.8c2,0,3.6,2.1,3.6,4.7c0,2.7-1.6,4.7-3.6,4.7c-2,0-3.5-2.1-3.5-4.8
					C98.4,317.9,100,315.8,102,315.8 M102,326.2c3,0,5.5-2.7,5.5-5.7c0-3-2.6-5.7-5.5-5.7c-3,0-5.6,2.6-5.6,5.7
					C96.4,323.6,99,326.2,102,326.2"/>
				<polygon class="st2" points="122.4,323.6 121.5,323.6 121.5,325 117.6,325 117.6,316 119.3,316 119.3,315.1 114,315.1 114,316 
					115.8,316 115.8,325.1 114,325.1 114,325.9 122.4,325.9 				"/>
				<path class="st1" d="M131.3,325v-9h1.9c2.2,0,3.8,2,3.8,4.5c0,2.5-1.7,4.5-3.8,4.5H131.3z M127.7,325.9h5.6
					c3.2,0,5.7-2.3,5.7-5.4c0-3-2.5-5.4-5.7-5.4h-5.6v0.9h1.8v9.1h-1.8V325.9z"/>
				<polygon class="st2" points="152,325.1 150,325.1 150,316 153.4,316 153.4,317.4 154.3,317.4 154.3,314.6 153.4,314.6 
					153.4,315.1 144.8,315.1 144.8,314.6 143.9,314.6 143.9,317.4 144.8,317.4 144.8,316 148.2,316 148.2,325.1 146.2,325.1 
					146.2,325.9 152,325.9 				"/>
				<rect x="159.1" y="319.7" class="st2" width="4.5" height="1.8"/>
				<path class="st2" d="M181.9,315.1h-4.7v0.9h1.8v5.9c0,1.9-1.3,3.3-3,3.3c-1.7,0-2.9-1.3-2.9-3.2V316h1.8v-0.9h-5.3v0.9h1.8v6.4
					c0,2.2,1.8,3.8,4.3,3.8c2.7,0,4.5-1.7,4.5-4.3V316h1.8V315.1z"/>
				<polygon class="st2" points="198.9,316 200.7,316 200.7,315.1 195.9,315.1 195.9,316 197.7,316 197.7,322.8 191.1,315.1 
					188.1,315.1 188.1,316 189.7,316 190.2,316.7 190.2,325.1 188.5,325.1 188.5,325.9 193.2,325.9 193.2,325.1 191.4,325.1 
					191.4,318.2 198.2,326.1 198.9,326.1 				"/>
				<polygon class="st2" points="212.6,325.1 210.8,325.1 210.8,316 212.6,316 212.6,315.1 207.3,315.1 207.3,316 209,316 
					209,325.1 207.3,325.1 207.3,325.9 212.6,325.9 				"/>
				<polygon class="st2" points="227.9,316 228.9,316 228.9,315.1 225.5,315.1 225.5,316 226.8,316 223.8,323.3 220.8,316 
					222.3,316 222.3,315.1 217.7,315.1 217.7,316 218.9,316 223.1,326.2 223.7,326.2 				"/>
				<polygon class="st2" points="242.6,323.8 241.8,323.8 241.8,325 237.8,325 237.8,320.9 240.8,320.9 240.8,322.1 241.7,322.1 
					241.7,318.8 240.8,318.8 240.8,320 237.8,320 237.8,316 241.6,316 241.6,317.3 242.5,317.3 242.5,314.6 241.6,314.6 
					241.6,315.1 234.3,315.1 234.3,316 236,316 236,325.1 234.3,325.1 234.3,325.9 242.6,325.9 				"/>
				<path class="st1" d="M252.9,316h1.6c1.2,0,1.9,0.7,1.9,2c0,1.3-0.7,2.2-1.9,2.2h-1.7V316z M260.1,325.1h-0.7
					c-0.5,0-1-0.3-1.4-0.9l-2.2-3.2c1.5-0.3,2.5-1.4,2.5-3c0-1.9-1.2-2.9-3.5-2.9h-5.5v0.9h1.8v9h-1.8v0.9h5.3v-0.9h-1.8v-3.9h1.1
					l2.5,3.8c0.6,0.9,0.8,1,1.8,1h1.7V325.1z"/>
				<path class="st2" d="M266.5,325.5c0.9,0.5,1.8,0.8,2.7,0.8c1.9,0,3.4-1.3,3.4-3.1c0-1.5-0.6-2.3-2.6-3.4c-0.5-0.3-1.1-0.6-1.7-1
					c-0.8-0.5-1.1-0.8-1.1-1.4c0-1,0.7-1.6,1.8-1.6c0.6,0,1.1,0.1,2,0.6v1.2h0.9v-2.8h-0.9v0.6c-0.7-0.4-1.4-0.5-2.1-0.5
					c-1.9,0-3.4,1.3-3.4,3c0,1.4,0.7,2.2,2.8,3.2c1.9,1,2.6,1.6,2.6,2.5c0,0.9-0.8,1.6-2,1.6c-0.8,0-1.5-0.2-2.4-0.8v-1.2h-0.9v2.9
					h0.9V325.5z"/>
				<polygon class="st2" points="284.3,325.1 282.5,325.1 282.5,316 284.3,316 284.3,315.1 279,315.1 279,316 280.8,316 
					280.8,325.1 279,325.1 279,325.9 284.3,325.9 				"/>
				<polygon class="st2" points="297.5,325.1 295.5,325.1 295.5,316 298.9,316 298.9,317.4 299.8,317.4 299.8,314.6 298.9,314.6 
					298.9,315.1 290.3,315.1 290.3,314.6 289.5,314.6 289.5,317.4 290.3,317.4 290.3,316 293.7,316 293.7,325.1 291.7,325.1 
					291.7,325.9 297.5,325.9 				"/>
				<path class="st1" d="M307,321.6l1.8-4.1l1.7,4.1H307z M308.4,312.2c0-0.7-0.5-1.2-1.2-1.2c-0.7,0-1.2,0.5-1.2,1.2
					c0,0.6,0.5,1.2,1.2,1.2C307.9,313.3,308.4,312.8,308.4,312.2 M312.6,312.2c0-0.7-0.5-1.2-1.2-1.2c-0.7,0-1.2,0.5-1.2,1.2
					c0,0.6,0.5,1.2,1.2,1.2C312,313.3,312.6,312.8,312.6,312.2 M314.9,325.1h-1l-4.3-10.3h-0.6l-4.5,10.3h-0.9v0.9h3.3v-0.9h-1.3
					l1.1-2.6h4.3l1.1,2.6h-1v0.9h3.9L314.9,325.1z"/>
				<polygon class="st2" points="326.7,325.1 324.7,325.1 324.7,316 328.1,316 328.1,317.4 329,317.4 329,314.6 328.1,314.6 
					328.1,315.1 319.5,315.1 319.5,314.6 318.6,314.6 318.6,317.4 319.5,317.4 319.5,316 322.9,316 322.9,325.1 320.9,325.1 
					320.9,325.9 326.7,325.9 				"/>
				<polygon class="st2" points="352.8,323.4 352,323.4 352,325 345.7,325 352.5,315.6 352.5,315.1 344.2,315.1 344.2,314.6 
					343.3,314.6 343.3,317.3 344.2,317.3 344.2,316 350,316 343.3,325.5 343.3,325.9 352.8,325.9 				"/>
				<path class="st2" d="M371,315.1h-4.7v0.9h1.8v5.9c0,1.9-1.3,3.3-3,3.3c-1.7,0-2.9-1.3-2.9-3.2V316h1.8v-0.9h-5.3v0.9h1.8v6.4
					c0,2.2,1.8,3.8,4.3,3.8c2.7,0,4.5-1.7,4.5-4.3V316h1.8V315.1z"/>
				<path class="st1" d="M390.6,316h1.7c1.2,0,1.8,0.7,1.8,1.8c0,1.2-0.8,2-1.9,2h-1.5V316z M390.6,320.8h1.7c1.6,0,2.3,0.7,2.3,2.2
					c0,1.3-0.8,2-2.3,2h-1.7V320.8z M393.1,325.9c2.2,0,3.5-1,3.5-2.8c0-1.8-1.3-2.8-3.5-2.9c1.7,0,3-1,3-2.4c0-1.6-1.3-2.7-3.3-2.7
					H387v0.9h1.8v9.1H387v0.9H393.1z"/>
				<polygon class="st2" points="411.5,323.8 410.6,323.8 410.6,325 406.6,325 406.6,320.9 409.7,320.9 409.7,322.1 410.5,322.1 
					410.5,318.8 409.7,318.8 409.7,320 406.6,320 406.6,316 410.5,316 410.5,317.3 411.3,317.3 411.3,314.6 410.5,314.6 
					410.5,315.1 403.1,315.1 403.1,316 404.9,316 404.9,325.1 403.1,325.1 403.1,325.9 411.5,325.9 				"/>
				<path class="st1" d="M421.8,316h1.6c1.2,0,1.9,0.7,1.9,2c0,1.3-0.7,2.2-1.9,2.2h-1.7V316z M429,325.1h-0.7c-0.5,0-1-0.3-1.4-0.9
					l-2.2-3.2c1.5-0.3,2.5-1.4,2.5-3c0-1.9-1.2-2.9-3.5-2.9h-5.5v0.9h1.8v9h-1.8v0.9h5.3v-0.9h-1.8v-3.9h1.1l2.5,3.8
					c0.6,0.9,0.8,1,1.8,1h1.7V325.1z"/>
				<polygon class="st2" points="442.9,323.6 442,323.6 442,325 438.1,325 438.1,316 439.9,316 439.9,315.1 434.6,315.1 434.6,316 
					436.3,316 436.3,325.1 434.6,325.1 434.6,325.9 442.9,325.9 				"/>
				<polygon class="st2" points="453.8,325.1 452,325.1 452,316 453.8,316 453.8,315.1 448.5,315.1 448.5,316 450.2,316 
					450.2,325.1 448.5,325.1 448.5,325.9 453.8,325.9 				"/>
				<polygon class="st2" points="471.4,316 473.1,316 473.1,315.1 468.4,315.1 468.4,316 470.2,316 470.2,322.8 463.6,315.1 
					460.6,315.1 460.6,316 462.2,316 462.7,316.7 462.7,325.1 460.9,325.1 460.9,325.9 465.7,325.9 465.7,325.1 463.9,325.1 
					463.9,318.2 470.7,326.1 471.4,326.1 				"/>
			</g>
		</g>
	</g>
</g>
</svg>
